<?xml version="1.0" standalone="no"?>
<!DOCTYPE svg PUBLIC "-//W3C//DTD SVG 20010904//EN"
 "http://www.w3.org/TR/2001/REC-SVG-20010904/DTD/svg10.dtd">
<svg version="1.0" xmlns="http://www.w3.org/2000/svg"
 width="890.000000pt" height="893.000000pt" viewBox="0 0 890.000000 893.000000"
 preserveAspectRatio="xMidYMid meet">
<metadata>
Created by potrace 1.16, written by Peter Selinger 2001-2019
</metadata>
<g transform="translate(0.000000,893.000000) scale(0.100000,-0.100000)"
fill="#000000" stroke="none">
<path d="M4490 8118 c-666 -45 -1316 -261 -1885 -626 -337 -216 -703 -545
-949 -852 -704 -879 -1003 -1980 -841 -3093 96 -663 367 -1305 774 -1837 608
-794 1467 -1322 2451 -1509 58 -10 130 -22 160 -26 30 -3 84 -10 120 -15 131
-18 260 -24 470 -23 1040 5 2017 405 2761 1131 475 463 803 983 1009 1602 138
413 201 803 204 1245 1 360 -32 639 -115 979 -251 1018 -907 1907 -1814 2458
-698 424 -1520 622 -2345 566z m-1458 -666 c-3 -17 -1 -23 7 -18 6 4 9 11 7
15 -6 9 34 8 49 -1 6 -3 18 -4 28 -3 9 2 15 -1 12 -5 -3 -5 -1 -11 5 -15 5 -3
10 0 10 7 0 7 8 1 17 -12 20 -29 20 -33 -3 -36 -9 -1 -13 0 -10 3 9 9 -15 34
-25 27 -5 -3 -9 -10 -9 -15 0 -6 4 -8 9 -5 5 4 8 -2 6 -11 -2 -10 -4 -18 -5
-18 -7 0 -5 -47 2 -51 4 -3 9 2 9 10 3 29 4 34 12 43 5 4 7 4 5 -2 -1 -5 2
-10 7 -10 6 0 9 4 7 8 -1 5 2 6 7 3 5 -3 11 0 14 8 3 7 18 12 34 11 15 -1 34
6 40 14 7 9 4 -5 -7 -31 -41 -95 -41 -228 -1 -307 98 -191 386 -209 570 -36
l50 47 113 -66 c62 -36 119 -69 127 -74 10 -5 11 -13 6 -22 -12 -19 -14 -50
-3 -56 8 -5 13 19 8 41 -1 6 2 7 6 2 4 -4 9 -22 10 -40 2 -43 3 -44 14 -27 6
9 5 20 -3 30 -10 13 -10 13 4 3 9 -7 19 -11 23 -8 3 3 2 -1 -4 -7 -17 -20 -11
-31 8 -17 15 13 16 12 4 -3 -15 -19 -7 -62 9 -52 6 4 6 11 -1 19 -8 9 -8 15 0
20 6 4 9 3 8 -2 -2 -4 2 -8 7 -8 5 0 9 3 8 7 -1 3 5 12 15 20 15 12 16 11 3
-4 -7 -10 -10 -18 -6 -18 5 0 1 -8 -8 -18 -10 -10 -14 -22 -10 -26 5 -4 9 -17
9 -29 3 -43 4 -48 12 -43 9 5 8 59 -2 75 -4 5 -3 12 2 15 9 5 12 -10 12 -51 0
-12 5 -25 11 -29 7 -4 10 -1 7 7 -7 19 11 51 23 43 6 -3 8 -12 5 -20 -5 -13
10 -29 28 -29 5 0 11 -11 13 -25 2 -19 1 -22 -7 -10 -8 13 -10 13 -10 -1 0 -9
7 -20 16 -23 8 -3 13 -10 10 -15 -3 -5 2 -15 11 -22 15 -12 16 -12 10 4 -9 23
0 40 16 30 17 -11 31 -10 39 2 5 6 8 5 8 -3 0 -8 5 -10 13 -5 6 4 17 8 22 8 6
1 9 6 8 12 -1 6 5 10 15 9 19 -3 19 -21 0 -21 -7 -1 -12 -7 -10 -14 1 -7 -2
-10 -8 -6 -5 3 -10 0 -10 -7 0 -8 -3 -9 -8 -3 -11 15 -32 17 -32 2 0 -8 -4 -7
-10 3 -8 13 -10 13 -10 1 0 -11 -4 -9 -15 5 -16 21 -20 8 -6 -16 6 -8 7 -19 3
-25 -12 -18 -9 -29 12 -53 12 -13 21 -27 21 -30 0 -4 2 -6 5 -5 3 1 6 -10 7
-25 2 -24 1 -24 -7 -7 -8 18 -9 18 -9 -6 -1 -22 3 -26 27 -24 20 1 26 6 25 21
-1 10 0 13 3 6 3 -6 11 -9 16 -6 7 5 8 2 2 -7 -4 -8 -7 -25 -6 -39 2 -19 1
-22 -7 -10 -5 8 -7 18 -4 24 4 5 1 6 -8 0 -8 -5 -17 -9 -21 -9 -3 0 -10 -4
-15 -9 -5 -5 -2 -6 6 -1 9 5 12 4 7 -3 -3 -6 -1 -14 5 -18 7 -4 9 -3 5 4 -3 6
-2 13 3 16 5 3 11 -3 14 -14 3 -11 1 -18 -3 -15 -17 10 -19 -12 -4 -31 14 -16
15 -17 10 -2 -3 11 0 17 6 15 7 -1 12 3 13 10 0 6 3 14 7 18 4 4 4 14 1 23 -4
15 -3 15 6 2 6 -8 11 -12 12 -7 5 25 4 33 -3 44 -10 12 16 13 28 0 9 -8 24 1
24 14 0 6 -4 8 -9 4 -5 -3 -12 -2 -15 3 -2 4 6 8 19 8 13 0 21 -5 18 -11 -3
-8 10 -11 37 -10 22 1 43 -1 45 -5 3 -4 -9 -6 -25 -5 -17 1 -33 -1 -35 -6 -3
-4 -14 -6 -25 -4 -20 4 -37 -12 -34 -32 1 -7 2 -18 3 -25 1 -14 16 -1 16 15 0
6 12 12 27 12 15 1 26 -3 25 -9 -1 -5 12 -10 30 -11 17 0 34 -2 37 -5 3 -3
-20 -5 -52 -5 -31 1 -63 -3 -69 -8 -9 -6 -15 -4 -19 8 -5 13 -9 14 -15 3 -7
-10 -9 -11 -9 0 0 7 -4 11 -9 7 -6 -3 -8 -15 -5 -28 3 -12 6 -26 7 -32 2 -5 6
-15 10 -22 8 -13 -10 -12 -32 1 -10 7 -11 3 -5 -15 4 -13 8 -37 9 -53 1 -17 7
-32 15 -34 7 -3 10 0 7 5 -4 6 2 10 13 9 11 0 20 4 20 9 0 6 -10 9 -21 9 -11
-1 -18 1 -15 4 3 2 1 13 -4 22 -13 24 18 21 32 -3 5 -10 13 -15 19 -12 14 9
11 27 -3 19 -7 -4 -9 -3 -5 1 13 15 38 14 44 -1 4 -12 8 -12 21 -2 8 7 18 13
21 13 3 0 5 3 4 6 -2 5 44 4 57 -1 3 -1 9 -2 13 -1 5 1 6 -2 3 -7 -3 -5 -18
-8 -33 -7 -15 1 -34 -2 -40 -8 -7 -5 -13 -6 -13 -2 0 5 -9 0 -20 -10 -11 -10
-20 -15 -20 -10 0 4 -7 2 -15 -5 -21 -17 -9 -30 26 -30 20 0 28 4 23 12 -5 7
-3 8 7 2 8 -4 24 -9 37 -10 53 -3 26 -10 -41 -11 -389 -5 -689 -18 -832 -37
-97 -13 -236 -14 -283 -2 -60 14 -64 17 -57 43 17 71 24 187 14 256 -18 125
-42 195 -104 297 -122 201 -408 319 -675 278 -100 -15 -125 -15 -122 0 1 8 -1
11 -6 8 -5 -3 -48 34 -95 82 l-87 88 32 24 c18 13 48 35 66 48 17 13 32 22 32
19 0 -3 -20 -20 -45 -38 -35 -25 -42 -35 -34 -46 6 -7 8 -13 5 -13 -4 0 -1
-10 6 -22 7 -13 11 -26 10 -30 -1 -5 2 -8 8 -8 11 0 14 23 3 34 -11 10 -12 35
-3 41 5 3 7 -3 5 -15 -2 -11 0 -22 6 -25 9 -6 11 5 12 57 0 16 3 25 6 22 3 -3
6 -14 6 -25 0 -10 5 -18 10 -16 6 1 9 10 9 19 -1 10 2 15 6 13 9 -6 8 -25 -3
-42 -4 -6 -3 -14 2 -17 10 -7 33 49 23 58 -3 4 -7 14 -8 22 -1 9 1 13 4 9 4
-4 7 -12 7 -18 1 -7 7 -11 14 -9 7 1 10 -2 7 -7 -3 -5 2 -15 11 -22 14 -12 15
-11 9 11 -6 19 -5 21 3 10 6 -8 11 -13 12 -10 6 34 9 43 15 48 4 4 4 -1 1 -10
-3 -10 -2 -20 3 -23 9 -6 14 8 11 27 0 5 5 7 12 5 7 -1 12 7 11 20 0 12 3 20
8 17 4 -3 8 -13 9 -22 0 -11 4 -8 10 8 10 23 11 24 23 8 7 -10 16 -15 19 -11
4 3 1 13 -5 21 -7 7 -13 24 -14 35 -2 12 0 16 3 8 5 -11 7 -11 14 0 7 11 9 11
9 1 0 -7 4 -11 9 -7 6 3 8 -3 6 -15 -2 -11 1 -22 6 -25 5 -4 7 -10 4 -15 -3
-5 -1 -11 4 -14 5 -3 11 1 15 9 3 8 2 17 -3 19 -11 7 -8 50 4 54 6 1 10 -4 10
-10 0 -7 9 -13 20 -13 14 0 20 6 19 22 -1 13 3 20 7 17 8 -5 13 10 10 29 -1 5
4 5 10 1 9 -5 10 -2 6 9 -3 9 -2 19 4 22 5 4 9 3 8 -2 -5 -27 1 -35 16 -23 8
7 15 9 16 4 0 -5 4 0 9 11 7 17 8 16 7 -8 -1 -24 -27 -64 -27 -42 0 4 -8 1
-17 -6 -10 -8 -14 -9 -10 -2 4 6 3 14 -2 17 -5 3 -11 -1 -15 -9 -3 -8 -1 -17
4 -20 9 -6 8 -24 -3 -42 -4 -6 -3 -14 2 -17 8 -5 24 23 26 46 1 16 13 17 26 1
8 -10 9 -14 2 -10 -7 5 -16 -1 -22 -12 -14 -26 -14 -28 4 -28 9 0 14 6 11 13
-3 7 2 11 12 9 28 -4 43 14 29 35 -8 14 -14 16 -20 7 -6 -9 -7 -8 -4 3 2 8 9
16 15 16 22 3 23 4 15 17 -13 22 -11 35 6 33 9 -2 17 -8 17 -14 1 -7 2 -13 4
-14 1 -2 3 -11 5 -21 2 -10 -1 -14 -8 -10 -6 4 -8 0 -4 -10 3 -9 2 -19 -3 -22
-15 -9 0 -34 17 -28 12 5 12 7 1 14 -10 7 -11 9 0 9 7 0 11 4 7 9 -3 5 -1 12
4 15 10 6 9 20 -4 49 -4 10 -5 21 -1 24 10 11 37 12 30 2 -3 -5 -10 -7 -15 -4
-5 4 -9 0 -9 -7 0 -8 11 -14 25 -14 18 0 24 4 20 14 -3 7 -5 20 -5 28 0 9 -4
13 -9 9 -5 -3 -12 -2 -15 3 -2 4 5 8 18 8 18 0 22 -4 18 -24z m-10 -491 c153
-52 269 -154 343 -301 74 -146 88 -329 38 -515 -42 -153 -135 -310 -262 -436
-141 -141 -316 -239 -497 -279 -127 -28 -289 -22 -399 13 -85 28 -210 103
-260 157 -27 29 -24 28 25 -9 72 -54 157 -95 249 -121 61 -16 98 -19 205 -16
139 3 145 4 246 37 434 138 721 568 654 978 -35 218 -168 394 -366 486 -63 30
-52 32 24 6z m-1160 -428 l41 -42 -42 -92 c-104 -223 -107 -468 -9 -669 84
-172 245 -293 451 -339 56 -12 94 -26 103 -38 26 -33 104 -157 151 -238 117
-204 237 -361 402 -525 81 -81 123 -114 180 -143 40 -20 84 -37 96 -37 32 0
38 -14 16 -34 -15 -13 -18 -14 -18 -1 0 8 4 12 8 9 4 -2 10 0 14 6 4 6 -5 10
-20 10 -14 0 -24 -4 -20 -9 3 -6 -5 -8 -19 -5 -21 3 -24 1 -21 -16 4 -21 -10
-36 -19 -21 -4 5 -2 13 4 16 8 5 7 12 -2 22 -7 9 -12 18 -10 20 5 7 -13 28
-35 41 -27 15 -33 15 -33 2 0 -6 6 -9 13 -8 6 2 11 -4 9 -13 -1 -9 5 -22 13
-29 18 -15 20 1 3 18 -8 8 -8 12 -1 12 22 0 23 -33 2 -56 -30 -32 -50 -15 -27
22 4 6 1 20 -6 30 -13 18 -14 17 -14 -6 0 -31 -6 -57 -15 -66 -7 -7 -3 19 8
51 6 17 4 16 -13 -4 -11 -14 -18 -32 -17 -40 2 -9 4 -20 4 -24 1 -5 7 -5 14
-1 9 5 9 4 0 -6 -13 -14 -6 -43 8 -34 5 3 6 -3 2 -12 -4 -12 -8 -14 -11 -6 -3
10 -7 10 -20 0 -8 -7 -17 -12 -19 -10 -1 1 -3 0 -3 -3 0 -3 3 -5 8 -6 4 0 12
-5 18 -10 6 -5 14 -6 18 -2 12 12 33 11 33 -2 0 -7 -8 -12 -18 -10 -10 2 -21
-1 -25 -6 -4 -6 -13 -4 -25 7 -10 9 -19 14 -19 9 0 -4 -6 -2 -13 4 -8 6 -17 7
-21 3 -4 -4 -7 -2 -6 3 5 21 -1 29 -10 15 -7 -11 -10 -11 -10 -2 0 7 -4 11 -8
8 -5 -3 -9 1 -9 9 0 8 5 11 10 8 5 -3 8 0 5 8 -6 17 -30 19 -40 4 -5 -6 -8 -4
-8 5 -1 10 -10 4 -26 -15 -13 -16 -22 -22 -19 -13 6 16 3 16 -34 9 -2 -1 2 -7
8 -14 9 -11 5 -13 -17 -11 -15 1 -27 3 -27 4 0 1 -8 3 -17 5 -17 3 -23 -7 -18
-30 1 -5 -2 -7 -6 -2 -10 10 -13 47 -3 41 15 -9 20 16 10 51 -7 25 -6 33 1 28
7 -4 9 0 5 10 -3 9 -2 19 4 22 5 4 7 10 4 15 -3 5 1 20 10 33 8 13 12 27 9 30
-7 7 -33 -37 -39 -65 -6 -29 -26 -59 -35 -53 -5 3 -11 -7 -13 -22 -3 -20 -4
-18 -4 9 1 32 3 35 16 25 12 -10 14 -9 8 6 -4 10 -3 16 2 13 5 -3 11 1 15 9 3
8 1 17 -5 20 -5 4 -9 12 -8 18 2 21 -13 57 -22 51 -5 -3 -4 -14 2 -26 9 -17 8
-23 -5 -30 -13 -7 -14 -13 -6 -23 9 -10 7 -13 -7 -11 -10 2 -16 5 -13 8 3 3
-1 13 -9 22 -8 9 -10 16 -5 14 5 -2 9 2 9 7 0 6 -3 9 -7 8 -4 -2 -4 5 -1 15 6
15 5 15 -10 3 -9 -7 -15 -16 -13 -20 3 -4 -6 -7 -19 -7 -13 0 -22 3 -20 7 3 3
-4 14 -14 23 -15 13 -17 27 -14 64 3 26 9 51 13 56 5 5 6 -10 3 -33 -3 -25 -1
-46 7 -55 6 -9 9 -20 6 -25 -4 -5 -2 -12 3 -15 16 -10 20 21 6 41 -8 10 -14
32 -13 48 1 30 1 29 8 -5 l7 -35 3 35 3 35 7 -30 c7 -27 7 -26 5 9 -3 27 0 35
7 28 6 -6 11 -26 11 -44 -1 -28 1 -30 8 -13 7 16 8 14 5 -10 l-5 -30 15 34 c8
18 17 31 20 28 3 -3 -2 -19 -11 -37 -9 -18 -14 -34 -11 -37 3 -3 12 10 20 28
13 28 15 30 12 9 -2 -14 -1 -18 2 -10 4 12 6 11 13 -5 l8 -20 1 20 1 20 9 -20
9 -20 1 20 1 20 10 -20 c7 -15 8 -11 3 15 -4 26 -3 31 5 20 6 -8 11 -24 12
-35 1 -17 2 -16 9 5 l8 25 1 -24 c1 -13 4 -22 7 -18 3 3 3 21 -1 39 -7 29 -9
30 -16 13 -7 -18 -9 -16 -13 14 0 5 -4 13 -8 17 -4 4 -2 14 5 23 11 14 10 14
-6 2 -12 -9 -14 -17 -7 -26 5 -6 7 -15 3 -19 -4 -4 -13 4 -21 16 -10 18 -12
19 -7 3 16 -47 16 -59 -2 -30 -9 17 -16 35 -14 40 9 29 9 45 0 40 -5 -4 -7
-10 -4 -15 3 -4 -4 -19 -15 -31 -11 -13 -19 -19 -20 -13 0 6 3 14 7 18 11 10
12 37 2 30 -5 -3 -7 -8 -5 -12 2 -4 -3 -16 -11 -27 -15 -19 -15 -19 -10 5 4
14 2 32 -4 40 -8 11 -9 9 -4 -10 7 -24 6 -24 -11 -8 -14 14 -15 20 -5 32 9 11
9 16 0 22 -7 4 -9 3 -5 -4 3 -6 1 -14 -5 -17 -5 -4 -8 -13 -6 -19 3 -7 1 -19
-4 -27 -6 -10 -9 -11 -10 -1 -1 6 -2 18 -3 25 -1 6 0 17 3 22 8 15 10 38 3 30
-4 -4 -7 -12 -7 -18 -1 -7 -7 -11 -14 -9 -7 1 -19 -3 -27 -9 -18 -15 -18 1 0
27 12 17 13 21 1 21 -8 0 -13 -3 -12 -6 3 -15 -15 -51 -24 -45 -5 3 -6 11 -2
17 12 20 12 37 0 34 -7 -1 -10 5 -9 13 2 8 0 12 -4 8 -4 -4 -14 -2 -23 4 -9 7
-4 -1 12 -18 15 -17 25 -33 21 -37 -3 -3 -17 6 -31 21 -13 15 -22 22 -19 17 2
-6 0 -17 -5 -25 -8 -11 -9 -6 -6 18 2 18 0 35 -5 38 -5 3 -8 2 -7 -3 4 -23 -2
-64 -9 -59 -9 6 -9 57 0 72 4 6 1 11 -7 11 -7 0 -12 -8 -10 -18 2 -10 0 -21
-6 -24 -9 -6 -12 5 -10 35 0 10 -1 11 -5 2 -3 -6 -10 -9 -15 -6 -6 3 -5 11 2
20 10 12 10 15 -2 12 -8 -2 -13 2 -12 8 1 6 -5 11 -13 11 -12 0 -12 -3 1 -17
8 -9 12 -19 9 -23 -10 -10 -42 36 -39 56 2 9 0 15 -5 12 -5 -3 -13 3 -19 12
-6 10 -11 13 -11 7 0 -6 7 -17 15 -24 8 -7 12 -17 9 -22 -3 -5 -12 -1 -19 9
-7 10 -17 15 -21 10 -4 -4 -2 -7 4 -7 7 0 12 -5 12 -10 0 -21 -25 -4 -35 25
-8 21 -8 34 -1 45 9 13 9 13 -6 2 -14 -11 -18 -11 -26 5 -5 10 -8 26 -7 36 2
9 -1 15 -5 12 -8 -5 -7 -24 2 -50 1 -5 -1 -11 -7 -12 -5 -2 -11 2 -11 7 -1 6
-3 12 -4 15 -8 15 -5 32 9 50 16 19 15 20 -5 2 -23 -19 -36 -14 -27 11 4 10 3
14 -1 11 -10 -9 -16 -50 -6 -44 5 3 11 1 14 -4 3 -5 -1 -12 -9 -15 -21 -8 -37
33 -21 54 10 13 9 13 -8 0 -18 -14 -19 -13 -13 3 4 10 3 16 -2 13 -5 -4 -8 14
-6 39 1 24 -1 42 -5 40 -4 -3 -6 -18 -5 -35 1 -16 -3 -38 -11 -47 -12 -16 -13
-13 -9 22 4 28 2 36 -5 25 -5 -8 -10 -12 -11 -7 -5 26 -4 34 5 46 8 11 8 13 0
8 -17 -10 -31 13 -29 45 1 15 -1 25 -5 23 -4 -3 -6 -18 -5 -35 1 -16 -3 -38
-11 -47 -12 -16 -13 -13 -9 22 4 28 2 36 -5 25 -5 -8 -10 -12 -11 -7 -3 13 -6
27 -9 32 -1 3 -3 9 -4 14 0 5 -4 13 -8 17 -4 4 -2 14 4 23 9 12 7 11 -8 -2
-21 -18 -50 -94 -40 -105 3 -3 6 3 7 14 1 10 7 1 13 -21 l13 -40 7 38 c4 21
11 35 17 32 5 -4 6 -13 0 -23 -11 -20 -12 -79 -1 -62 9 14 25 -16 21 -40 -2
-10 2 -9 13 5 l16 20 -6 -20 c-5 -16 -4 -17 4 -6 9 12 12 10 17 -11 4 -14 20
-35 35 -47 20 -14 27 -27 24 -39 -5 -13 -4 -14 4 -3 7 10 12 7 20 -15 8 -23
11 -25 12 -9 l1 20 9 -20 9 -20 1 20 1 20 9 -20 c5 -11 9 -33 10 -50 l2 -30 9
30 8 30 -3 -33 c-1 -18 1 -35 6 -38 4 -3 9 12 9 33 l2 38 7 -40 8 -40 -1 42
c-1 23 2 45 6 49 7 7 10 -16 9 -66 l-1 -25 9 25 c8 22 9 20 5 -10 -4 -25 -2
-31 5 -20 9 13 10 13 10 0 0 -13 1 -13 10 0 9 13 10 13 10 0 0 -13 2 -13 11 0
9 13 10 12 5 -2 -3 -10 0 -20 6 -24 7 -5 8 -2 4 7 -4 8 2 3 13 -10 13 -15 21
-18 22 -10 0 12 1 12 6 0 5 -11 7 -11 15 0 7 12 9 11 7 -1 -1 -8 -1 -22 0 -30
1 -13 2 -13 11 0 9 13 10 13 10 0 0 -13 1 -13 10 0 8 12 10 9 7 -10 -2 -14 -2
-18 1 -10 4 12 7 11 14 -5 6 -15 7 -12 2 10 -6 33 11 24 19 -10 4 -18 5 -17 6
3 0 13 6 20 11 17 7 -4 7 -12 0 -25 -8 -16 -7 -18 9 -15 15 3 18 -1 15 -18 -4
-21 -4 -21 6 -2 10 19 10 19 6 -2 -2 -13 0 -26 5 -29 5 -3 10 7 10 23 l2 28 5
-30 5 -30 8 30 c7 25 7 23 5 -13 -2 -23 -6 -46 -10 -49 -3 -4 4 -17 16 -30 12
-12 18 -26 15 -30 -4 -3 -7 0 -7 8 0 12 -2 11 -11 -1 -9 -13 -10 -13 -6 2 3 9
-2 22 -10 30 -15 11 -16 10 -10 -7 7 -20 7 -20 -8 -1 -11 14 -15 16 -15 5 0
-8 -10 3 -23 24 -13 21 -26 34 -31 30 -4 -4 -4 0 -1 9 7 17 -12 64 -22 55 -2
-3 0 -14 6 -26 7 -11 7 -22 2 -25 -5 -4 -8 -14 -6 -24 2 -9 4 -21 4 -25 1 -5
6 -5 11 -2 6 4 7 12 3 18 -4 7 0 6 10 -2 16 -13 14 -36 -3 -26 -5 3 -11 1 -15
-5 -10 -16 -25 -1 -18 17 5 12 3 14 -7 8 -9 -6 -11 -4 -4 6 4 8 9 27 10 42 2
23 0 26 -12 16 -7 -6 -12 -14 -10 -18 3 -4 -6 -7 -19 -7 -13 0 -23 5 -22 11 1
5 -8 10 -19 9 -19 -1 -22 3 -19 38 3 35 2 38 -12 26 -9 -7 -19 -13 -22 -13 -3
0 -6 -12 -5 -27 0 -19 -3 -25 -10 -19 -6 5 -14 10 -18 10 -13 2 -9 16 4 16 17
0 18 33 1 47 -14 11 -15 10 -9 -12 5 -17 4 -20 -2 -12 -7 11 -11 10 -16 -4 -6
-15 -8 -15 -24 0 -14 12 -21 13 -30 4 -14 -14 -13 -15 -16 34 -1 20 1 35 5 32
4 -2 12 4 18 13 6 11 11 13 11 5 0 -7 5 -10 10 -7 8 5 7 12 -1 22 -11 13 -15
13 -27 -4 -13 -16 -14 -16 -9 -1 3 10 2 20 -3 23 -6 4 -11 1 -11 -4 -1 -6 -2
-15 -3 -20 0 -5 -5 -13 -10 -18 -5 -4 -6 -3 -3 3 7 12 -20 42 -38 43 -5 1 -10
5 -10 10 0 5 -3 12 -7 16 -4 4 -4 13 -2 20 6 14 -25 69 -34 61 -2 -3 3 -17 12
-30 10 -16 12 -27 5 -31 -7 -5 -6 -11 2 -21 6 -8 8 -14 4 -14 -5 0 0 -9 10
-20 10 -11 15 -20 12 -20 -4 0 -10 0 -14 0 -5 0 -9 5 -9 10 -3 23 -5 24 -14
10 -6 -10 -10 -11 -10 -2 0 6 -5 11 -12 10 -7 -2 -12 6 -13 17 0 11 7 20 15
20 17 0 20 22 7 49 -6 11 -5 22 2 29 6 6 11 16 11 21 -1 6 -9 0 -20 -13 -11
-12 -17 -28 -13 -35 14 -21 13 -38 -1 -27 -7 6 -17 7 -22 3 -4 -4 -3 0 4 9 14
19 4 33 -14 18 -9 -8 -12 -6 -9 8 2 10 4 18 6 18 1 0 3 21 4 47 2 49 -9 57
-17 14 -3 -14 -1 -29 4 -34 5 -5 1 -15 -9 -23 -16 -13 -17 -12 -5 3 7 9 9 19
4 22 -5 3 -7 18 -4 32 3 19 1 25 -7 20 -6 -4 -8 -13 -5 -19 4 -7 -1 -5 -10 4
-15 14 -22 32 -25 62 -1 5 -5 6 -10 3 -10 -7 -9 -25 2 -43 4 -6 3 -15 -3 -18
-6 -4 -10 -3 -9 2 1 4 0 10 -1 13 -7 19 -7 41 1 46 5 3 9 10 9 16 0 6 -8 4
-18 -5 -15 -14 -19 -15 -19 -2 0 8 4 12 8 9 13 -7 21 15 25 65 3 46 3 46 -10
16 -7 -16 -12 -38 -10 -47 1 -10 -3 -17 -9 -15 -7 1 -13 -12 -15 -32 -2 -20 1
-31 6 -27 6 4 8 -3 4 -16 -5 -21 -5 -21 -14 2 -19 51 -20 178 -3 335 19 181
22 318 6 386 -35 154 -190 362 -292 394 -22 7 -25 22 -4 22 8 0 11 -5 8 -10
-3 -5 0 -8 7 -5 7 2 15 11 16 19 2 7 6 25 9 39 4 14 7 31 7 39 1 9 7 7 19 -8
17 -20 17 -25 4 -45 -8 -12 -12 -26 -8 -31 5 -4 3 -5 -3 -2 -7 4 -18 -1 -25
-10 -12 -15 -12 -16 4 -10 11 4 16 3 12 -3 -3 -6 -2 -10 4 -10 8 0 18 19 26
50 1 3 5 13 10 23 9 21 -23 72 -46 72 -8 0 -14 7 -15 15 -1 27 8 32 27 14 17
-16 28 -7 12 10 -14 14 -11 34 6 32 9 -2 16 -8 16 -14 0 -6 4 -14 8 -19 12
-11 5 48 -7 67 -6 8 -6 12 -2 8 5 -4 15 -3 23 3 10 9 11 15 1 26 -9 11 -8 13
3 11 8 -2 13 3 11 12 -2 8 -1 12 3 8 12 -12 50 36 51 64 0 15 3 30 6 34 4 3 4
13 1 22 -4 13 -1 12 11 -3 l18 -20 -7 20 c-12 37 -14 56 -4 49 6 -3 8 5 5 20
-3 15 -1 24 4 21 5 -3 11 -1 14 4 3 5 -1 11 -9 15 -16 6 -39 -26 -27 -39 4 -5
2 -5 -5 -1 -14 7 -56 -47 -45 -59 4 -5 2 -5 -4 -2 -11 7 -29 -19 -25 -36 1 -5
-3 -6 -8 -3 -9 6 -26 -22 -22 -37 1 -5 -3 -6 -9 -2 -13 8 -11 11 68 112 l65
83 28 -17 c16 -10 48 -36 71 -60z m1066 -105 c-1 -13 2 -23 7 -23 6 0 8 6 7
14 -8 33 73 -79 104 -144 44 -93 48 -112 48 -235 1 -100 -18 -195 -45 -224
-10 -11 -6 15 5 33 6 10 5 12 -2 7 -7 -4 -12 -5 -12 -2 0 2 -3 13 -7 23 -6 16
-5 16 10 4 9 -7 17 -11 17 -7 0 15 2 22 13 35 9 12 9 13 0 7 -8 -4 -13 -1 -13
9 0 9 4 14 8 11 9 -5 9 -5 16 63 3 30 1 40 -5 30 -7 -11 -9 -9 -9 8 0 12 -4
24 -9 27 -5 3 -7 15 -4 26 3 11 9 17 14 14 5 -3 7 -10 4 -15 -4 -5 -2 -16 3
-24 6 -11 8 -2 8 27 -1 24 -5 49 -9 56 -5 6 -5 17 -1 24 4 7 3 8 -4 4 -7 -4
-10 0 -8 11 2 10 -1 27 -5 38 -9 18 -9 18 -5 -2 2 -13 0 -26 -6 -29 -6 -4 -9
7 -8 27 3 49 1 63 -7 55 -4 -3 -6 -26 -6 -49 l1 -42 -8 35 -8 35 1 -35 c0 -19
-5 -44 -12 -55 -10 -16 -11 -17 -7 -2 3 10 2 15 -3 12 -5 -3 -12 -1 -16 4 -3
5 -14 8 -25 6 -11 -2 -24 4 -30 13 -8 15 -9 14 -10 -6 0 -13 4 -20 10 -17 6 3
10 -1 10 -11 0 -14 -2 -15 -17 -3 -14 12 -16 12 -8 0 5 -9 4 -12 -3 -8 -6 5
-9 -1 -6 -15 4 -22 4 -22 -6 -3 -10 19 -10 19 -6 -2 2 -13 2 -23 0 -23 -3 0
-9 10 -15 23 l-10 22 5 -23 c2 -12 0 -20 -5 -16 -5 3 -9 13 -10 22 0 11 -2 12
-6 4 -3 -7 1 -20 9 -29 7 -10 8 -14 1 -10 -7 5 -10 -1 -8 -18 1 -14 -2 -28 -8
-32 -6 -4 -7 -1 -2 8 8 12 6 12 -8 0 -14 -11 -17 -11 -18 0 0 12 -1 12 -6 0
-5 -11 -7 -11 -15 0 -8 11 -8 10 -4 -4 3 -10 2 -15 -3 -12 -12 7 -25 -14 -27
-42 -1 -19 1 -21 14 -10 12 9 14 9 9 0 -5 -8 -1 -11 12 -8 14 3 18 -1 14 -12
-5 -12 -8 -12 -15 -1 -7 9 -8 7 -4 -7 l6 -20 -16 20 c-14 17 -16 17 -10 2 4
-12 2 -16 -6 -11 -7 5 -8 3 -3 -7 7 -11 5 -11 -10 1 -15 12 -17 12 -10 1 5 -9
4 -12 -3 -7 -7 4 -10 -1 -7 -14 2 -11 1 -19 -3 -16 -4 2 -7 -7 -7 -20 0 -30 3
-30 16 -1 l10 22 -5 -23 c-2 -12 -1 -20 3 -17 4 2 8 -2 8 -10 0 -8 -5 -13 -11
-12 -6 1 -11 -12 -12 -30 -1 -19 3 -30 9 -26 6 4 7 1 2 -7 -5 -8 -4 -11 3 -6
6 3 9 -1 7 -11 -1 -10 3 -24 9 -32 7 -10 7 -13 0 -8 -6 3 -11 0 -11 -8 0 -12
3 -12 16 -2 12 10 13 9 6 -2 -5 -9 -4 -12 2 -8 6 4 9 -3 8 -16 -1 -12 2 -33 6
-47 6 -23 7 -23 8 -3 1 12 6 25 11 28 7 4 9 -2 7 -17 -2 -12 -2 -16 1 -8 4 12
7 11 14 -5 6 -15 7 -13 3 10 -5 29 -5 29 8 7 l13 -23 11 23 c11 23 11 23 10 1
-1 -18 -28 -40 -59 -49 -5 -1 -10 -2 -13 -3 -3 0 -6 0 -8 2 -2 1 -11 -6 -20
-15 -10 -9 -26 -15 -37 -13 -11 2 -20 -2 -20 -8 0 -8 -3 -8 -8 -2 -9 13 -38
12 -35 -1 1 -5 -9 -10 -21 -10 -16 0 -23 6 -22 18 1 10 -3 18 -9 18 -5 0 -10
-9 -9 -19 1 -10 -5 -18 -12 -17 -17 3 -54 36 -51 46 1 4 -2 8 -8 8 -5 0 -9 -4
-7 -10 1 -5 -3 -6 -9 -3 -8 5 -8 10 0 18 8 8 6 17 -7 31 -15 18 -15 19 0 8 11
-9 18 -10 23 -2 3 6 10 8 15 5 5 -3 10 0 13 7 2 7 3 5 2 -4 -2 -10 1 -21 6
-24 5 -3 9 1 9 8 0 9 3 9 10 -2 8 -12 10 -12 11 5 l0 20 9 -20 9 -20 1 20 1
20 9 -20 9 -20 1 20 c1 19 2 19 9 1 6 -17 8 -17 14 -3 10 27 -38 44 -70 24 -8
-5 -11 3 -8 27 2 21 -1 33 -9 32 -23 -3 -35 -17 -31 -37 3 -17 1 -19 -10 -9
-9 8 -15 8 -20 0 -10 -16 -34 6 -30 28 1 9 0 22 -4 27 -9 17 -10 35 0 29 13
-8 11 10 -3 25 -11 11 -10 12 2 5 39 -22 68 -2 44 30 -8 11 -14 16 -14 12 0
-5 -6 -3 -14 4 -8 6 -12 19 -9 27 4 10 2 14 -5 9 -6 -3 -14 -2 -17 4 -4 6 -1
9 7 8 7 -2 12 4 10 12 -2 8 0 11 5 7 4 -5 8 -18 8 -30 0 -12 5 -22 10 -22 6 0
8 4 7 10 -2 5 0 6 5 2 4 -5 9 -13 9 -18 1 -5 2 -13 3 -17 2 -15 51 -8 52 8 0
10 3 9 9 -5 9 -20 10 -17 10 23 0 4 -8 7 -17 7 -10 -1 -17 -6 -16 -11 1 -6 -5
-11 -13 -11 -8 0 -12 3 -9 5 3 3 0 11 -7 19 -9 11 -8 13 2 11 7 -2 14 2 17 9
5 13 -14 12 -37 -1 -8 -5 -12 -6 -8 -1 4 4 2 15 -5 23 -10 13 -9 14 3 7 23
-14 42 -15 37 -2 -2 7 -9 12 -14 12 -6 0 -15 3 -19 7 -4 4 -13 3 -20 -3 -9 -7
-12 -6 -10 3 1 7 5 14 10 15 16 3 25 27 14 40 -6 7 -14 11 -17 8 -4 -2 -8 2
-8 10 0 13 3 12 18 -1 17 -16 19 -15 25 1 6 16 8 16 16 1 12 -22 39 -2 31 22
-4 13 -3 14 5 3 11 -15 21 -4 17 20 -2 10 4 16 14 15 9 -1 16 4 16 9 0 6 -4 9
-10 7 -5 -2 -7 0 -3 4 4 4 3 13 -3 21 -9 10 -15 11 -28 1 -13 -10 -14 -10 -3
2 16 19 16 35 -1 21 -10 -8 -14 -7 -14 3 0 17 26 14 38 -5 7 -12 9 -12 9 1 0
12 2 12 9 1 5 -8 11 -9 15 -3 3 5 -1 15 -9 22 -8 7 -15 9 -15 5 0 -4 -6 -2
-13 4 -8 6 -16 8 -20 5 -3 -3 -4 1 -3 10 2 18 21 23 21 6 0 -5 5 -10 10 -9 6
1 9 6 7 12 -2 7 0 8 5 4 4 -5 9 -13 9 -18 3 -22 5 -23 15 -9 8 12 9 11 7 -5
-2 -12 2 -19 10 -17 8 1 11 -2 8 -7 -7 -10 10 -24 32 -27 8 -2 11 3 8 13 -3 8
-6 20 -7 26 0 7 -5 3 -10 -8 l-9 -20 1 20 c2 34 -1 41 -11 25 -7 -12 -9 -10
-7 7 0 12 4 21 8 20 4 -1 7 3 8 8 1 6 -7 10 -16 10 -10 -1 -17 -7 -15 -15 3
-11 -1 -10 -16 3 -10 9 -21 14 -24 11 -3 -3 -9 0 -14 7 -4 7 -3 10 4 5 6 -3
13 -2 17 4 4 6 12 7 18 3 22 -14 37 -11 38 5 0 14 2 14 6 2 11 -29 26 -42 34
-29 4 7 5 19 2 26 -5 12 -7 12 -15 1 -7 -10 -8 -10 -6 2 2 8 0 15 -3 15 -3 0
-12 5 -20 11 -8 6 -22 10 -32 8 -11 -1 -16 0 -13 4 11 10 36 11 42 1 6 -11 24
-2 24 12 0 6 -4 8 -9 4 -5 -3 -12 -1 -16 5 -4 6 -11 8 -16 5 -5 -3 -6 1 -2 10
5 13 7 14 14 3 5 -7 14 -13 21 -13 7 0 13 -9 13 -20 1 -11 7 -19 14 -17 7 1
10 -1 7 -6 -2 -4 -1 -14 5 -22 7 -12 9 -11 10 5 1 11 1 27 0 35 0 10 1 11 5 2
3 -6 10 -9 15 -6 6 3 5 11 -2 20 -10 12 -10 14 1 12 7 -2 14 2 17 9 8 22 -29
6 -43 -18 -7 -13 -13 -19 -13 -14 -1 6 4 17 9 25 6 10 4 20 -7 32 -9 10 -13
18 -10 18 4 0 10 0 15 0 4 0 7 -6 7 -12 0 -7 9 -13 20 -13 11 1 19 6 18 12 -1
6 7 19 18 29 11 10 19 13 17 7 -2 -6 2 -11 7 -11 6 -1 9 7 7 16 -2 15 -1 15 8
-1 11 -17 30 -15 30 4 0 6 -5 7 -12 3 -7 -4 -8 -3 -4 5 9 14 28 4 24 -13 -2
-6 2 -13 7 -14 15 -3 13 21 -3 40 -9 11 -10 18 -2 23 6 3 9 1 8 -6 -2 -7 9
-13 25 -14 20 -1 27 3 27 17 0 10 3 18 6 18 3 0 4 -10 2 -22z m127 -248 c-2
-4 2 -16 10 -26 17 -22 20 -48 5 -39 -6 4 -8 10 -5 15 3 5 1 11 -4 14 -5 4 -8
-2 -7 -11 2 -10 0 -27 -4 -38 -4 -11 -4 -27 1 -35 27 -52 30 -81 13 -107 -8
-13 -12 -35 -10 -50 4 -18 2 -23 -5 -16 -10 10 -21 103 -12 103 2 0 7 -10 12
-22 7 -21 8 -21 13 -2 3 11 1 31 -5 44 -6 14 -10 32 -11 40 -1 8 -7 14 -13 13
-15 -3 -17 13 -3 22 5 3 6 13 3 22 -4 9 -2 14 3 11 5 -3 9 8 10 25 1 18 -1 26
-4 18 -4 -11 -6 -11 -14 0 -5 9 -6 4 -2 -15 6 -23 4 -27 -7 -20 -18 11 -40 14
-35 5 3 -4 0 -13 -5 -21 -8 -11 -9 -8 -6 12 2 15 0 25 -4 22 -5 -3 -9 -14 -9
-24 0 -10 -4 -21 -8 -24 -5 -3 -7 9 -5 27 2 25 1 28 -6 12 -4 -11 -7 -30 -4
-43 2 -15 0 -21 -7 -17 -6 4 -9 14 -6 24 5 12 2 11 -9 -3 -10 -13 -15 -15 -15
-6 0 9 -5 7 -15 -6 -10 -13 -14 -15 -15 -5 0 8 -3 12 -6 8 -3 -3 -2 -12 2 -19
12 -18 14 -39 4 -33 -4 3 -6 -5 -2 -17 3 -14 2 -19 -7 -14 -6 4 -9 11 -6 16 3
5 0 12 -6 16 -8 5 -9 3 -4 -7 7 -12 6 -12 -7 -1 -14 11 -16 10 -13 -5 2 -10 4
-18 5 -18 1 0 3 -11 6 -25 3 -20 2 -22 -7 -10 -9 13 -10 12 -5 -3 4 -12 2 -16
-6 -11 -7 5 -8 3 -3 -6 5 -8 4 -11 -2 -7 -11 7 -10 -34 1 -52 4 -5 2 -12 -4
-16 -9 -5 -14 16 -13 52 1 7 -3 10 -8 7 -5 -3 -7 -20 -3 -37 3 -21 2 -28 -5
-22 -5 6 -11 21 -14 35 -3 16 -4 12 -4 -12 1 -21 5 -34 11 -31 5 4 6 1 1 -7
-5 -9 -4 -11 3 -6 8 5 10 1 5 -10 -5 -13 -8 -14 -11 -5 -4 11 -6 11 -13 0 -7
-10 -8 -6 -5 12 2 15 -2 39 -9 53 -8 14 -12 27 -9 27 2 1 9 3 14 4 6 1 12 4
15 5 3 1 10 3 16 4 15 1 40 37 33 48 -3 4 -9 6 -14 3 -5 -3 -11 -1 -15 5 -4 6
-10 8 -15 5 -4 -3 -7 3 -6 12 2 10 8 19 14 19 7 1 14 3 17 4 3 1 13 3 23 4 26
2 42 15 36 30 -5 14 12 31 31 31 5 0 15 11 22 25 11 22 13 23 14 5 0 -15 3
-13 12 10 14 35 30 38 50 11 13 -17 14 -17 29 6 9 14 23 25 32 25 8 0 13 -3
11 -7z m-36 -96 c-13 -16 -2 -37 13 -28 7 5 9 1 5 -9 -3 -9 -2 -19 2 -22 5 -2
11 -14 14 -25 4 -17 3 -19 -8 -10 -19 15 -22 4 -18 -65 3 -78 7 -108 15 -120
16 -25 -110 -138 -141 -127 -8 3 -11 0 -7 -6 3 -6 2 -13 -3 -16 -5 -3 -11 4
-15 17 -9 33 -7 49 4 42 5 -3 8 -11 6 -18 -1 -7 -1 -9 1 -4 3 4 10 4 15 1 6
-4 8 -2 4 4 -3 6 -2 13 4 17 5 3 10 -2 11 -12 1 -41 17 25 22 93 3 38 6 71 7
74 1 3 2 12 1 22 -1 9 3 19 8 22 7 5 8 -12 5 -46 -3 -29 -6 -74 -8 -99 -2 -26
-7 -52 -11 -59 -5 -9 -4 -11 3 -6 7 4 12 13 12 21 0 8 5 17 12 21 8 5 9 2 5
-10 -4 -11 -3 -15 4 -11 6 4 8 13 5 21 -3 7 -1 16 5 19 5 4 7 17 5 30 -3 14 0
28 6 31 7 4 9 -7 6 -34 -2 -22 0 -38 5 -35 4 2 7 29 5 58 -2 29 -7 50 -12 47
-6 -3 -6 3 -2 14 11 27 15 64 6 59 -5 -3 -10 2 -14 10 -3 8 -1 17 4 20 6 4 10
1 10 -6 0 -7 2 -10 5 -7 3 2 -4 24 -16 47 -11 24 -18 45 -16 48 7 6 32 -39 29
-51 -2 -5 4 -4 12 3 17 14 12 36 -5 25 -6 -3 -9 2 -7 12 2 12 -2 18 -10 16 -7
-1 -12 5 -10 14 2 10 -5 18 -16 20 -14 2 -16 0 -7 -9 18 -18 13 -31 -6 -16
-10 8 -14 9 -10 2 4 -6 3 -14 -3 -18 -13 -8 -13 11 1 36 5 11 14 17 19 14 5
-3 14 4 21 17 11 21 12 21 25 3 10 -13 11 -22 3 -31z m1511 -102 c3 -4 23 -8
44 -9 22 -2 44 -7 49 -12 5 -5 -10 -5 -33 1 -38 10 -45 9 -56 -7 -16 -21 -18
-61 -5 -69 11 -7 11 -55 -1 -62 -5 -3 -4 -11 2 -19 8 -10 8 -15 0 -20 -8 -5
-8 -11 1 -21 6 -7 16 -11 21 -8 6 4 5 10 -3 15 -11 7 -11 9 -1 9 9 0 10 5 3
18 -6 11 -6 24 0 33 7 12 9 12 9 -1 0 -13 1 -13 10 0 7 11 10 11 10 2 0 -7 4
-11 9 -7 10 6 24 -11 27 -33 2 -11 -1 -11 -13 0 -19 15 -45 20 -41 6 2 -5 8
-10 13 -10 6 0 16 -5 24 -11 23 -19 42 -16 51 7 4 13 15 23 24 23 8 0 13 -4
10 -9 -3 -5 -10 -6 -15 -3 -5 4 -9 -1 -9 -10 0 -9 4 -14 9 -10 6 3 8 -4 6 -16
-5 -25 -15 -38 -15 -19 0 9 -3 10 -14 1 -10 -9 -16 -8 -26 4 -7 8 -16 13 -20
10 -5 -3 -11 -1 -15 5 -4 6 -11 8 -16 4 -5 -3 -6 -10 -3 -16 4 -7 2 -8 -4 -4
-7 4 -12 3 -12 -3 0 -5 5 -13 11 -16 7 -5 3 -15 -10 -29 -17 -19 -18 -23 -5
-40 10 -14 14 -16 14 -5 0 12 2 12 10 -1 9 -13 10 -13 10 0 0 12 2 12 9 2 7
-11 9 -11 14 2 4 9 12 15 18 14 6 -2 13 2 16 9 2 7 -3 10 -14 8 -10 -2 -18 -4
-18 -5 0 -1 -12 -3 -27 -4 -20 -2 -25 0 -18 9 13 16 79 12 90 -5 8 -12 10 -12
10 4 0 11 3 17 6 13 4 -3 3 -14 -1 -24 -5 -10 -9 -21 -9 -25 -1 -3 -5 -10 -9
-15 -5 -4 -7 -2 -5 6 2 7 -5 15 -15 16 -13 3 -17 -1 -13 -11 3 -9 1 -12 -4 -9
-6 3 -10 0 -10 -7 0 -8 -3 -9 -8 -3 -9 13 -42 13 -61 1 -9 -6 -12 -5 -7 2 4 7
0 10 -12 7 -13 -2 -18 4 -20 22 -1 13 -7 32 -13 41 -8 14 -9 13 -5 -8 3 -14 6
-36 6 -49 0 -16 4 -21 15 -18 8 4 17 2 20 -3 3 -5 14 -7 25 -5 11 2 20 -1 20
-7 0 -14 -78 -2 -160 25 -36 12 -65 27 -65 34 0 6 -4 15 -9 20 -5 5 -6 3 -2
-4 14 -25 -13 -12 -38 17 -24 29 -46 86 -46 120 0 73 51 144 118 164 46 13
161 12 172 -2z m-1160 -156 c0 4 6 1 13 -5 8 -6 17 -8 21 -4 4 4 9 -3 13 -16
4 -17 8 -19 15 -9 5 8 7 4 4 -14 -3 -15 0 -30 5 -33 9 -6 13 14 10 45 -1 10 1
11 6 4 4 -6 16 -10 25 -8 14 2 16 -1 8 -16 -13 -25 -13 -33 2 -24 6 4 8 3 4
-4 -3 -6 -2 -14 4 -17 7 -4 8 -11 1 -18 -13 -16 -12 -29 4 -47 17 -19 17 -31
1 -50 -14 -17 -15 -29 -1 -50 13 -20 15 -41 4 -34 -5 3 -7 9 -4 14 3 4 -1 13
-9 19 -16 13 -15 33 1 52 15 18 14 31 -2 49 -16 17 -17 31 -4 46 6 7 3 16 -8
25 -15 12 -16 12 -10 -3 3 -10 2 -20 -3 -23 -10 -6 -8 -24 5 -45 14 -21 13
-33 -1 -50 -17 -20 -16 -31 3 -52 9 -10 12 -18 8 -18 -4 0 0 -10 11 -22 l19
-23 -22 19 c-13 10 -20 22 -18 26 3 4 -1 13 -9 19 -15 13 -16 28 -1 51 15 23
14 38 -1 51 -13 10 -14 8 -10 -14 2 -15 -1 -31 -9 -37 -16 -13 -14 -32 4 -54
7 -9 10 -16 5 -16 -4 0 5 -15 22 -32 l29 -33 -32 29 c-18 16 -30 32 -28 36 3
4 -1 13 -9 19 -8 7 -13 20 -11 29 1 9 -2 25 -7 35 -7 15 -12 16 -24 6 -8 -6
-14 -16 -14 -21 0 -7 5 -6 13 0 10 9 13 6 13 -13 0 -23 -1 -23 -18 -8 -10 9
-18 21 -17 27 3 26 -2 47 -10 42 -15 -9 -3 -57 20 -82 12 -13 25 -21 30 -19 4
3 11 1 14 -5 4 -6 3 -9 -2 -8 -4 2 -8 0 -8 -3 0 -4 -8 -16 -18 -27 -12 -13
-15 -22 -7 -27 5 -3 7 -12 3 -18 -11 -17 -11 -30 1 -47 9 -13 9 -13 -6 -2 -16
13 -18 35 -5 48 4 4 2 13 -4 21 -6 7 -8 13 -4 13 4 0 2 6 -4 14 -8 10 -9 16
-1 21 6 4 9 3 8 -2 -2 -4 2 -9 7 -10 6 -2 10 5 10 15 -1 9 -7 16 -14 14 -7 -1
-10 2 -7 7 4 5 2 12 -4 16 -5 3 -11 1 -11 -4 -3 -21 -4 -26 -12 -38 -4 -6 -3
-14 3 -18 6 -4 8 -10 5 -15 -3 -5 -1 -11 5 -15 6 -4 7 -12 3 -18 -12 -18 -11
-30 5 -49 11 -13 11 -17 0 -24 -7 -4 -10 -4 -6 1 4 4 2 15 -4 23 -16 18 -19
40 -7 48 6 3 5 11 -2 20 -6 8 -8 14 -4 14 4 0 3 6 -2 13 -11 15 -11 26 4 53 7
11 8 26 3 34 -4 7 -6 20 -3 29 3 9 -4 5 -16 -9 -11 -14 -21 -28 -21 -32 0 -5
0 -10 0 -13 0 -3 3 -5 8 -5 4 0 7 4 7 9 0 5 3 12 7 16 8 8 5 -15 -3 -30 -4 -5
-9 -23 -13 -38 -5 -21 -4 -27 5 -21 7 4 9 3 5 -4 -3 -6 -2 -14 4 -17 7 -4 7
-12 2 -18 -10 -15 -10 -28 3 -47 13 -20 15 -41 4 -34 -5 3 -7 9 -4 14 3 4 -1
13 -9 19 -15 12 -16 28 -3 47 4 7 0 17 -8 24 -9 8 -12 22 -8 42 4 23 3 29 -6
24 -6 -4 -9 -11 -6 -16 3 -5 1 -12 -5 -15 -8 -5 -6 -14 4 -30 9 -13 12 -26 7
-30 -12 -7 -8 -29 8 -49 7 -9 10 -16 6 -16 -5 0 0 -10 11 -22 l19 -23 -23 19
c-12 11 -20 21 -17 24 3 3 -1 12 -7 20 -15 18 -19 40 -7 47 5 4 2 17 -7 31
-13 19 -20 22 -30 13 -8 -6 -11 -15 -8 -20 3 -5 2 -15 -3 -21 -12 -20 -11 -31
5 -50 8 -10 11 -18 7 -18 -5 0 2 -11 14 -24 17 -19 20 -26 9 -32 -7 -4 -10 -3
-5 1 4 5 -3 19 -15 32 -12 13 -18 23 -13 23 4 0 0 9 -10 20 -10 11 -15 20 -10
20 4 0 2 7 -5 15 -8 10 -9 19 -3 28 12 16 11 37 -2 36 -5 0 -9 -6 -7 -14 1 -7
-2 -16 -8 -20 -7 -4 -7 -12 0 -26 6 -10 8 -19 4 -19 -4 0 1 -9 11 -20 10 -11
14 -20 10 -20 -5 0 2 -11 15 -25 13 -14 20 -25 16 -25 -5 0 -2 -8 5 -17 13
-16 12 -17 -4 -4 -9 8 -15 16 -12 19 3 3 -5 16 -17 29 -12 13 -18 23 -13 23 4
0 1 8 -8 18 -15 17 -17 21 -17 43 0 5 -4 8 -9 5 -12 -8 -8 -30 8 -50 7 -9 10
-16 6 -16 -5 0 0 -9 10 -20 21 -24 27 -47 15 -55 -5 -3 -7 3 -5 14 2 11 -5 27
-16 36 -10 10 -16 21 -14 25 3 4 -2 13 -9 20 -8 6 -13 20 -11 30 2 11 0 22 -6
25 -8 6 -13 -8 -10 -27 0 -5 -5 -7 -11 -5 -7 1 -11 -5 -9 -13 2 -8 4 -20 5
-26 1 -7 8 -20 16 -29 15 -18 22 -63 10 -70 -4 -2 -6 8 -5 23 1 15 -5 35 -14
45 -15 18 -20 33 -24 72 -2 11 -6 25 -10 32 -4 6 -3 14 2 18 6 3 8 12 5 20
-11 28 -21 5 -19 -42 2 -27 4 -48 5 -48 1 0 3 -8 5 -18 2 -11 1 -17 -2 -14 -2
3 -5 9 -5 14 1 4 -6 15 -14 25 -9 9 -11 18 -6 22 6 3 8 15 5 26 -3 11 -10 17
-16 13 -5 -3 -7 -1 -4 4 4 6 0 16 -9 23 -13 12 -14 10 -10 -15 3 -16 0 -35 -7
-43 -15 -18 -15 -16 2 -35 7 -10 10 -17 6 -17 -5 0 0 -9 11 -21 18 -20 27 -66
14 -74 -4 -2 -6 8 -5 23 1 15 -6 36 -16 47 -10 11 -18 23 -18 28 -1 4 -3 7 -6
7 -3 0 -4 -2 -2 -4 1 -2 -7 -13 -17 -25 -11 -12 -16 -21 -11 -21 4 0 3 -6 -2
-12 -6 -7 -9 -21 -8 -30 2 -10 0 -20 -4 -23 -6 -3 -7 39 -2 53 1 1 1 5 2 10 0
4 8 15 16 25 9 9 12 17 8 17 -4 0 0 9 9 19 12 13 14 21 6 26 -6 4 -9 13 -6 20
3 8 -2 19 -10 26 -13 10 -14 8 -10 -16 3 -15 8 -30 11 -33 3 -3 -2 -14 -12
-24 -9 -10 -12 -18 -8 -18 4 0 0 -9 -10 -20 -10 -11 -15 -20 -10 -20 4 0 3 -6
-2 -12 -6 -7 -9 -21 -8 -31 2 -9 0 -15 -5 -12 -7 4 -7 22 -1 43 1 1 1 5 2 10
0 4 8 15 16 25 9 9 12 17 8 17 -4 0 -1 8 8 18 11 12 13 22 7 32 -5 8 -10 12
-10 8 0 -5 1 -10 3 -12 1 -2 -7 -13 -17 -25 -11 -12 -15 -21 -11 -21 4 0 0 -9
-10 -20 -10 -11 -15 -20 -10 -20 4 0 2 -6 -4 -13 -6 -8 -9 -16 -6 -19 3 -3 -3
-11 -12 -19 -16 -13 -17 -12 -4 4 7 9 10 17 6 17 -4 0 -2 7 5 15 7 8 9 15 5
15 -5 0 0 9 10 20 10 11 15 20 10 20 -4 0 -1 7 6 16 16 20 20 42 8 50 -5 3 -9
0 -9 -5 0 -22 -2 -26 -17 -43 -9 -10 -12 -18 -8 -18 4 0 0 -9 -10 -20 -10 -11
-15 -20 -10 -20 4 0 2 -6 -4 -13 -6 -8 -7 -18 -3 -22 4 -5 1 -5 -6 -1 -10 6
-10 11 -1 22 6 8 8 14 4 14 -5 0 0 9 10 20 10 11 15 20 10 20 -4 0 -1 7 6 16
7 9 14 21 15 28 1 6 3 17 5 25 2 7 -2 16 -10 19 -9 3 -11 0 -7 -7 4 -7 2 -18
-4 -26 -7 -8 -9 -15 -5 -15 5 0 0 -9 -10 -20 -10 -11 -14 -20 -10 -20 4 0 1
-8 -8 -18 -10 -10 -14 -21 -11 -24 3 -3 1 -9 -4 -12 -14 -9 -9 19 7 38 7 9 10
16 6 16 -5 0 -1 8 8 18 13 14 14 21 5 30 -17 17 -33 15 -19 -2 9 -10 8 -16 -4
-26 -8 -7 -13 -16 -10 -20 3 -4 -2 -13 -10 -20 -8 -7 -12 -17 -8 -23 4 -6 1
-7 -6 -3 -9 6 -8 13 5 27 9 10 13 19 9 19 -4 0 -1 8 8 18 10 10 14 22 10 25
-10 10 -25 8 -19 -2 3 -5 -1 -14 -9 -21 -8 -7 -13 -16 -10 -20 3 -4 -3 -14
-13 -21 -15 -12 -16 -12 -6 1 14 20 12 42 -5 48 -9 3 -11 0 -6 -9 5 -8 5 -11
0 -7 -4 4 -14 0 -22 -10 -13 -15 -13 -15 -3 5 14 30 28 37 45 23 9 -7 15 -8
20 0 3 5 0 10 -7 10 -7 0 14 15 47 34 33 18 66 31 73 28 10 -4 11 -7 2 -12 -8
-5 -8 -10 -2 -14 5 -3 17 6 27 20 16 26 16 26 -7 19 -16 -5 -11 2 16 20 65 46
77 57 178 156 53 53 94 99 91 103 -4 3 -2 6 4 6 5 0 15 11 21 25 l12 25 35
-20 c19 -11 35 -17 35 -14z m-452 -862 c24 -14 52 -52 134 -179 69 -107 111
-125 300 -125 160 0 191 -16 174 -86 -28 -108 -353 -41 -545 114 -144 116
-193 211 -136 267 28 29 38 30 73 9z"/>
<path d="M3051 7437 c-17 -17 -13 -25 11 -23 13 0 23 -5 24 -11 1 -7 2 -14 4
-15 7 -10 7 -39 -1 -44 -5 -3 -9 -10 -9 -16 0 -7 4 -7 13 1 10 8 14 7 14 -4 0
-8 -5 -11 -10 -8 -6 4 -7 1 -2 -7 6 -9 4 -11 -5 -5 -9 6 -11 4 -5 -5 6 -9 4
-11 -5 -5 -9 6 -11 4 -5 -5 5 -8 4 -11 -2 -7 -6 4 -9 -4 -7 -21 l4 -27 -9 25
-9 25 -2 -25 c-2 -21 -3 -22 -7 -5 -8 31 -25 44 -20 15 2 -14 2 -18 -1 -10 -4
12 -7 11 -14 -5 -6 -15 -7 -12 -2 10 6 33 -11 24 -19 -10 -4 -17 -5 -16 -7 5
l-2 25 -8 -25 -8 -25 -2 25 -2 25 -9 -25 c-9 -25 -9 -25 -5 3 2 15 0 27 -5 27
-4 0 -10 -12 -12 -27 l-4 -28 -2 28 c0 15 -5 27 -11 27 -5 0 -7 8 -4 18 5 14
4 15 -5 2 -19 -27 -91 -14 -74 14 12 18 12 35 1 43 -6 3 -8 1 -5 -4 6 -9 -4
-23 -24 -35 -3 -1 -13 3 -22 10 -13 11 -15 10 -12 -5 2 -10 4 -19 5 -20 8 -9
4 -30 -7 -41 -7 -7 -13 -19 -13 -25 0 -7 9 -1 19 13 11 13 17 29 14 34 -4 5
-1 6 7 1 9 -5 10 -1 6 16 -6 20 -3 18 11 -6 9 -16 18 -36 19 -43 1 -8 6 -17
10 -20 4 -4 4 6 2 21 -7 37 7 21 16 -18 5 -22 4 -26 -4 -15 -9 13 -10 13 -10
0 0 -13 -1 -13 -10 0 -9 13 -10 13 -10 0 0 -13 -1 -13 -10 0 -9 13 -10 13 -10
0 0 -13 -1 -13 -10 0 -9 13 -10 13 -10 0 0 -13 -2 -13 -11 0 -9 12 -10 11 -5
-5 l6 -20 -16 20 c-16 20 -17 20 -10 0 4 -11 4 -16 0 -12 -4 4 -14 1 -22 -6
-13 -10 -14 -9 -7 2 6 11 5 12 -6 5 -8 -5 -18 -9 -24 -9 -11 -1 -11 -9 1 -39
5 -14 4 -17 -4 -12 -7 4 -12 13 -12 21 0 8 -4 17 -10 20 -7 4 -7 -2 -1 -18 6
-14 8 -27 5 -30 -3 -2 -7 -15 -9 -27 -2 -12 -1 -19 3 -16 7 7 8 11 11 37 0 5
5 8 10 5 11 -7 9 -25 -4 -46 -7 -13 -6 -13 7 -2 9 7 15 21 13 30 -2 10 3 29
10 42 13 24 14 22 11 -22 -3 -34 1 -51 12 -60 13 -11 14 -11 7 2 -5 8 -10 28
-11 43 -2 23 0 26 12 16 7 -6 11 -16 7 -22 -3 -6 -1 -7 6 -3 9 6 9 11 1 21 -7
8 -7 15 -1 19 5 3 11 3 14 -1 2 -5 2 -3 1 4 -2 6 4 17 12 24 13 10 14 8 10
-14 -2 -15 -8 -32 -12 -39 -3 -7 7 3 24 22 17 19 31 31 32 26 0 -5 -7 -17 -16
-27 -12 -14 -13 -18 -2 -25 7 -4 10 -4 6 1 -4 4 -3 14 4 22 9 11 14 11 31 -4
19 -17 19 -16 -1 11 -33 43 -26 55 9 16 21 -24 24 -26 10 -6 -11 15 -18 33
-14 39 4 6 9 2 14 -9 4 -11 14 -26 23 -33 9 -7 13 -18 9 -24 -3 -6 -1 -7 6 -3
6 4 8 13 4 19 -13 20 -12 36 3 48 13 10 14 8 10 -14 -3 -17 1 -30 12 -39 15
-11 16 -11 4 4 -8 10 -9 18 -3 22 6 4 7 14 4 23 -5 11 -3 14 6 9 7 -5 11 -17
8 -27 -3 -10 -1 -22 4 -25 5 -3 6 -10 3 -16 -4 -7 -2 -8 5 -4 6 4 8 12 4 19
-9 15 -10 55 -1 70 5 8 8 4 9 -10 2 -36 3 -41 12 -50 5 -4 8 -3 6 2 -4 17 12
45 23 39 5 -4 5 -10 -1 -18 -10 -12 -10 -41 2 -52 3 -4 4 6 1 21 -3 16 -1 24
5 21 6 -4 8 2 6 14 -2 11 0 22 6 25 5 4 10 1 10 -4 1 -6 2 -17 3 -23 1 -7 -3
-20 -8 -28 -9 -13 -8 -13 5 -3 12 10 18 10 27 1 7 -7 12 -8 12 -4 0 5 8 2 18
-5 15 -13 16 -12 3 3 -7 10 -17 16 -21 13 -10 -6 -23 13 -27 39 -3 16 -1 17
12 6 8 -7 12 -17 8 -24 -3 -6 -2 -8 2 -3 5 4 25 -7 44 -25 20 -18 27 -23 17
-10 -24 27 -33 80 -11 62 8 -6 12 -17 9 -24 -3 -7 2 -19 11 -26 14 -11 16 -11
13 1 -2 8 2 13 8 12 7 -1 9 8 6 24 -3 18 -1 24 7 19 6 -4 9 -11 7 -15 -3 -4 0
-13 6 -21 8 -13 9 -12 5 1 -3 9 0 22 6 28 6 6 8 11 5 11 -6 0 13 90 27 135 6
16 5 17 -4 5 -9 -13 -11 -13 -11 0 0 13 -1 13 -10 0 -5 -9 -5 -19 1 -26 7 -8
7 -14 0 -18 -6 -4 -7 -14 -4 -24 3 -9 3 -14 -1 -10 -4 3 -8 12 -10 20 -1 7 -6
19 -10 27 -6 9 -5 12 0 8 6 -3 11 3 11 14 2 18 0 17 -18 -5 -11 -15 -25 -23
-31 -20 -6 4 -8 2 -5 -3 4 -6 0 -16 -7 -22 -11 -9 -16 -9 -22 1 -11 18 -12 48
-2 54 5 3 4 12 -3 20 -9 11 -9 17 1 29 7 8 10 16 6 16 -14 3 -26 7 -28 9 -10
8 -38 6 -47 -3z"/>
<path d="M2677 7290 c-3 -12 -10 -19 -16 -16 -13 8 -52 -54 -44 -68 4 -5 12 6
19 25 8 21 13 27 13 15 1 -20 16 -13 16 7 1 7 7 11 14 9 8 -1 10 2 5 10 -4 7
-3 9 1 5 5 -4 10 -20 11 -35 1 -15 0 -19 -3 -9 -2 9 -9 15 -14 11 -5 -3 -6
-10 -3 -16 5 -7 2 -8 -6 -3 -9 6 -11 4 -5 -6 7 -12 6 -12 -7 -1 -13 10 -17 9
-23 -10 -21 -63 -23 -65 -25 -38 l-2 25 -8 -25 c-8 -23 -8 -22 -7 8 1 19 5 36
9 38 4 3 8 10 8 17 0 25 -23 -13 -30 -50 -7 -37 -8 -37 -9 -7 0 17 -7 36 -14
42 -10 9 -16 4 -25 -22 -7 -19 -12 -38 -11 -43 1 -4 1 -17 -1 -28 l-1 -20 -9
20 c-8 19 -9 19 -9 1 -1 -26 -9 -17 -15 17 -2 14 0 30 6 33 6 4 8 2 4 -4 -3
-6 -2 -13 4 -17 15 -9 12 21 -3 34 -11 8 -16 4 -24 -22 -9 -30 -7 -37 19 -66
16 -18 28 -27 27 -19 -1 7 3 24 9 38 10 22 11 21 8 -18 -3 -23 0 -40 4 -37 5
3 7 12 4 20 -7 18 20 14 44 -8 15 -14 19 -14 19 -3 0 8 -3 14 -6 13 -3 -1 -6
3 -6 8 0 6 4 9 8 7 4 -1 3 7 -3 17 -6 11 -6 22 -1 25 9 6 24 -28 24 -57 0 -10
2 -15 5 -12 7 6 11 36 16 95 2 19 8 36 15 36 6 1 14 3 19 4 4 1 10 2 14 1 20
-3 25 36 9 68 -17 32 -18 32 -24 11z"/>
<path d="M3826 7001 c-41 -41 -54 -61 -45 -66 7 -5 10 -4 6 2 -8 13 17 36 28
25 5 -4 5 -2 1 5 -3 6 -2 14 3 17 14 9 21 -21 7 -33 -7 -6 -15 -9 -18 -6 -2 3
-5 -2 -5 -10 0 -13 2 -13 17 0 14 13 19 13 28 2 9 -10 8 -17 -1 -27 -10 -12
-9 -12 5 -1 10 7 17 16 16 19 0 4 0 18 1 32 1 19 4 22 10 11 11 -16 6 -47 -8
-65 -8 -9 -3 -19 16 -37 15 -13 22 -17 15 -8 -6 9 -8 19 -4 23 4 4 2 6 -4 4
-7 -1 -12 2 -12 7 0 6 4 9 9 8 4 -2 5 5 2 15 -6 15 -4 15 9 4 9 -7 15 -22 13
-32 -2 -11 1 -22 6 -25 5 -4 6 -11 3 -17 -4 -7 -2 -8 5 -4 8 6 9 12 2 20 -6 7
-8 16 -4 19 3 4 14 -5 23 -21 13 -20 15 -31 6 -42 -10 -13 -9 -13 7 -1 12 10
15 17 7 25 -13 13 -13 29 0 21 22 -14 52 -93 40 -107 -7 -10 -6 -37 1 -32 5 3
7 9 4 14 -3 5 -1 11 4 15 10 5 9 23 -4 60 -6 17 -4 16 13 -4 21 -26 22 -36 7
-61 -5 -9 0 -8 13 4 23 20 31 9 10 -12 -7 -7 -8 -12 -4 -12 5 0 3 -6 -3 -14
-8 -10 -9 -16 -1 -21 6 -4 10 -3 9 2 -1 4 0 11 1 16 1 4 3 12 4 17 1 12 21 14
21 3 1 -5 9 -23 18 -40 16 -31 15 -38 -6 -34 -5 1 -6 -3 -2 -9 5 -8 11 -8 21
1 11 9 11 15 0 38 -12 23 -12 29 1 46 15 19 15 19 10 -4 -3 -13 1 -37 9 -52
16 -32 18 -43 5 -34 -5 3 -13 0 -17 -6 -4 -7 -3 -9 3 -6 13 8 86 -67 76 -77
-5 -4 -3 -6 4 -4 6 1 11 0 12 -4 1 -5 -2 -8 -6 -9 -19 -2 -33 -22 -23 -34 6
-8 5 -16 -3 -25 -10 -12 -9 -12 6 -1 13 10 14 17 7 26 -7 9 -7 15 -1 19 11 7
25 -11 27 -36 1 -10 3 -20 4 -23 7 -14 5 -32 -4 -45 -9 -13 -9 -13 6 -2 9 7
15 21 13 30 -2 9 -4 17 -5 17 -7 0 -6 36 1 41 8 5 13 -10 10 -29 -1 -5 3 -6 8
-2 6 3 9 -9 7 -30 -2 -19 0 -38 5 -41 5 -3 7 -9 4 -14 -3 -5 -1 -11 4 -15 5
-3 8 -14 6 -25 -2 -11 0 -22 5 -25 5 -3 7 3 5 14 -2 11 3 25 10 31 11 9 13 6
11 -17 -1 -15 -6 -35 -11 -43 -8 -13 -6 -13 8 -1 14 11 18 11 22 0 5 -16 2
-39 -7 -55 -4 -6 -1 -11 6 -11 7 0 13 7 13 16 0 38 3 52 11 48 4 -3 7 -27 6
-54 l-1 -48 57 -1 c45 0 56 3 57 16 1 9 -7 22 -18 28 -10 7 -19 9 -18 5 4 -22
-3 -24 -20 -9 -11 10 -17 25 -14 34 4 15 3 15 -6 2 -9 -12 -10 -9 -7 14 3 15
-1 38 -8 50 -9 13 -11 28 -6 41 l9 20 1 -20 1 -20 9 20 c8 18 9 18 9 2 1 -10
5 -16 10 -13 4 3 7 -6 5 -19 -1 -16 2 -23 8 -19 7 5 8 2 3 -6 -5 -8 -4 -11 1
-7 5 3 11 -3 12 -14 4 -43 6 -48 18 -53 10 -4 11 1 3 20 -11 31 -3 50 16 34
10 -9 13 -7 10 7 -2 10 -4 22 -4 27 -1 6 -7 2 -14 -9 -13 -17 -15 -17 -30 5
-9 13 -14 27 -12 30 3 4 -2 13 -10 20 -12 10 -13 16 -3 27 9 11 8 13 -3 11
-10 -2 -14 7 -15 27 0 17 -4 36 -8 43 -4 7 -4 12 0 12 4 0 -1 10 -12 23 -22
24 -24 34 -10 57 5 8 5 12 1 7 -10 -9 -47 22 -39 34 3 5 -1 6 -8 4 -18 -7 -21
33 -5 55 6 8 7 12 2 7 -13 -11 -44 23 -38 41 4 10 3 14 -2 10 -4 -4 -8 -18 -9
-30 -1 -13 -7 -23 -16 -23 -14 0 -16 -6 -11 -36 0 -5 6 -7 11 -4 8 5 7 11 0
20 -10 11 -8 13 9 10 14 -2 19 0 15 7 -4 6 -3 8 4 4 6 -3 9 -18 6 -32 -3 -14
-1 -23 5 -20 5 3 9 0 8 -7 -1 -42 4 -77 12 -73 4 3 7 17 6 31 -2 14 1 23 5 20
5 -3 7 -13 4 -23 -5 -15 -4 -15 6 -2 10 13 11 13 7 -1 -3 -9 -1 -22 3 -30 5
-8 4 -19 -3 -28 -10 -12 -9 -13 2 -6 9 5 12 4 7 -3 -4 -7 0 -10 12 -7 15 2 17
-3 16 -39 -3 -62 -22 -138 -25 -95 0 8 -3 23 -5 34 -3 11 -5 29 -5 40 0 16 -2
17 -9 5 -9 -13 -10 -13 -11 0 -1 8 -2 20 -4 25 -1 6 -3 17 -4 25 -1 13 -3 13
-10 1 -7 -11 -12 -4 -20 25 -6 21 -11 46 -12 54 -1 8 -5 4 -9 -10 l-8 -25 -2
25 c-1 14 -2 32 -1 40 1 12 0 12 -7 2 -6 -9 -12 -6 -21 14 -6 15 -9 29 -6 32
3 3 5 -1 5 -8 0 -7 3 -11 6 -8 3 4 -1 19 -9 35 -8 15 -13 38 -11 50 2 12 -1
25 -8 29 -8 5 -9 2 -5 -10 5 -11 3 -15 -5 -10 -7 5 -9 0 -6 -14 4 -12 2 -20
-3 -16 -5 3 -6 -3 -3 -13 4 -14 4 -15 -4 -4 -5 7 -8 23 -6 35 4 20 4 20 -5 1
l-10 -20 -1 20 -1 20 -10 -20 c-9 -19 -9 -19 -5 2 2 13 -1 21 -8 20 -6 -1 -10
7 -8 20 2 12 -1 24 -7 27 -5 3 -7 -4 -4 -16 3 -15 -1 -12 -13 10 -13 25 -19
30 -26 20 -7 -9 -8 -8 -4 5 3 10 2 16 -4 12 -6 -4 -7 2 -4 12 5 14 4 15 -4 4
-9 -12 -12 -9 -18 14 -6 26 -8 27 -15 10 -7 -20 -8 -20 -9 0 l-1 20 -10 -20
c-7 -16 -8 -13 -3 10 14 70 14 76 4 70 -5 -3 -11 -21 -11 -38 l-2 -32 -7 35
-7 35 -3 -35 -3 -35 -7 35 -8 35 1 -37 c1 -20 -2 -40 -6 -44 -7 -8 -11 9 -7
40 1 10 -4 30 -11 43 -9 18 -15 20 -22 11 -6 -9 -7 -8 -3 5 3 10 2 16 -3 13
-12 -8 -33 19 -23 29 4 5 2 5 -4 2 -6 -3 -11 0 -11 8 0 11 4 12 14 4 10 -9 13
-8 13 2 0 11 2 11 9 -1 6 -8 8 -17 5 -21 -2 -4 1 -11 7 -15 9 -5 10 0 7 14 -4
12 -2 20 3 16 5 -3 9 -11 9 -17 0 -15 39 -66 40 -52 0 6 -7 22 -16 35 -15 25
-15 25 3 4 10 -11 24 -19 30 -17 6 2 18 -5 25 -16 8 -12 18 -18 22 -14 4 4 9
-3 13 -15 3 -12 9 -19 14 -16 5 3 6 11 3 17 -4 7 -3 8 1 4 14 -12 27 -89 14
-81 -5 3 -9 1 -9 -5 0 -15 20 -24 20 -9 1 7 7 2 15 -12 7 -14 17 -25 22 -25
15 0 33 -16 28 -25 -3 -4 2 -13 10 -20 8 -7 15 -10 15 -7 0 9 -29 72 -30 63 0
-5 -7 -3 -15 4 -8 7 -12 17 -8 23 3 5 1 7 -5 3 -6 -3 -14 -1 -18 6 -11 18 -12
48 -2 54 16 10 7 21 -34 40 -24 10 -45 21 -48 24 -4 4 -121 76 -141 86 -3 2
-32 -23 -63 -55z"/>
<path d="M1805 6559 c-4 -5 -2 -16 5 -24 8 -9 8 -15 0 -20 -6 -3 -8 -11 -4
-16 3 -5 0 -16 -6 -24 -7 -8 -9 -15 -5 -15 4 0 1 -7 -6 -16 -7 -9 -12 -29 -11
-44 4 -35 -15 -49 -26 -20 -8 21 -9 21 -40 -11 -28 -29 -36 -59 -11 -43 5 3 6
10 3 16 -4 7 -2 8 4 4 7 -4 12 -1 12 8 0 8 4 18 10 21 7 4 7 -2 0 -19 -6 -16
-6 -27 0 -31 6 -4 10 1 10 9 0 8 4 17 8 20 10 6 8 -36 -2 -53 -4 -7 -5 -15 -2
-18 3 -4 -1 -17 -10 -31 -10 -15 -11 -21 -3 -17 8 6 10 4 3 -6 -8 -14 -14 -34
-16 -56 -1 -7 -4 -10 -8 -8 -6 4 -7 -6 -11 -92 -1 -39 -3 -43 -9 -23 l-8 25
-2 -25 c-2 -21 -3 -22 -7 -5 -3 11 -10 26 -17 34 -8 11 -8 13 0 8 12 -7 26 48
15 59 -6 5 -7 9 -10 35 0 5 -5 8 -9 5 -5 -3 -9 1 -9 9 0 8 4 12 8 9 4 -2 12 4
18 13 6 11 11 13 11 5 0 -7 5 -10 10 -7 7 4 7 12 2 18 -4 7 -9 26 -9 42 0 17
1 22 4 12 2 -9 9 -15 14 -12 5 4 5 14 -2 26 -15 28 -39 7 -33 -28 7 -39 -2
-58 -21 -43 -8 7 -12 17 -8 23 3 6 1 7 -6 3 -9 -6 -9 -11 -1 -21 18 -22 1 -39
-19 -21 -15 14 -18 14 -18 1 0 -8 4 -12 8 -10 9 6 59 -52 59 -69 0 -6 -5 -17
-12 -24 -7 -7 -9 -12 -5 -12 4 0 1 -13 -8 -29 -8 -17 -11 -32 -6 -36 13 -7 24
12 15 27 -4 7 -3 8 5 4 7 -5 9 -16 5 -28 -4 -14 -2 -18 5 -14 6 4 11 0 11 -9
0 -11 5 -15 15 -11 10 3 15 1 13 -7 -2 -6 1 -13 7 -14 5 -1 12 -10 16 -20 7
-17 8 -17 8 0 1 10 6 15 11 12 7 -4 7 -12 0 -25 -11 -21 13 -50 25 -30 4 6 3
10 -2 9 -19 -3 -23 2 -14 20 8 14 7 22 -2 29 -13 11 -16 57 -4 69 7 6 8 2 11
-36 0 -11 4 -22 7 -26 4 -3 5 8 4 25 -1 17 -5 34 -9 37 -3 3 0 13 7 21 8 11 8
14 0 9 -6 -4 -13 -2 -16 5 -2 7 -3 5 -2 -4 2 -10 -1 -21 -6 -24 -16 -10 -13
65 3 81 8 7 9 5 5 -6 -3 -9 0 -16 7 -16 9 0 12 13 11 38 -1 21 1 36 6 33 4 -2
6 4 4 15 -2 10 2 29 9 43 7 13 13 30 14 38 2 29 8 48 20 63 9 10 10 17 2 22
-13 8 -13 52 0 60 7 4 9 -2 5 -18 -4 -14 -2 -28 3 -31 6 -4 8 3 4 16 -3 14 -1
19 6 14 8 -5 10 -1 5 10 -4 12 -3 15 6 10 6 -4 11 -4 10 1 -1 4 3 21 10 37 12
31 9 39 -35 83 -14 14 -25 19 -29 12z m50 -45 c13 -21 14 -29 3 -51 -7 -14
-17 -26 -23 -25 -29 1 -49 -58 -25 -73 8 -5 7 -12 -2 -22 -11 -14 -15 -23 -22
-63 -1 -8 -6 -23 -10 -32 -4 -9 -9 -23 -10 -32 -1 -8 -5 -18 -9 -22 -4 -4 -4
-18 0 -32 4 -16 2 -23 -4 -19 -27 17 -38 -31 -29 -119 2 -27 0 -41 -8 -41 -9
0 -11 20 -9 66 3 59 9 106 13 106 2 0 6 16 14 50 2 11 5 20 6 20 3 0 11 41 11
57 0 10 4 20 9 23 5 3 7 12 3 21 -3 8 2 23 12 34 9 10 15 29 13 43 -1 13 3 32
11 41 7 9 10 16 6 16 -4 0 -2 6 4 14 6 8 10 20 9 27 -2 8 3 13 10 12 17 -4 15
8 -5 23 -16 13 -16 13 -1 8 9 -3 24 -17 33 -30z"/>
<path d="M1888 5328 c9 -11 10 -18 2 -23 -6 -3 -8 -10 -5 -14 2 -5 -2 -17 -11
-27 -14 -18 -15 -18 -8 6 3 14 3 22 -1 17 -9 -8 -11 -28 -21 -177 -6 -87 -5
-93 10 -81 13 11 14 16 4 29 -8 10 -9 13 -1 9 12 -8 33 41 33 79 0 13 3 25 8
28 4 2 7 -32 6 -77 -1 -52 4 -92 13 -109 7 -15 13 -30 13 -33 -1 -22 1 -25 10
-20 7 4 7 13 0 26 -6 10 -8 19 -4 19 3 0 1 7 -7 16 -27 32 -14 121 24 163 12
13 15 20 7 15 -20 -11 -40 -14 -40 -5 0 3 7 18 16 31 l16 25 -20 -22 c-11 -12
-22 -19 -26 -16 -3 4 1 15 11 25 9 10 12 18 8 18 -4 0 0 10 11 23 19 22 19 22
-1 6 -25 -19 -51 -18 -46 1 2 8 4 20 5 25 1 6 5 15 9 21 4 7 -1 18 -11 25 -15
13 -16 12 -4 -3z"/>
<path d="M2869 4605 c-1 -3 -2 -11 -3 -17 -1 -7 -7 -12 -14 -10 -7 1 -11 -3
-9 -10 1 -7 -2 -12 -8 -13 -5 0 -16 -4 -23 -8 -9 -7 -11 -2 -8 17 3 14 1 28
-3 30 -9 6 -9 -45 0 -59 11 -16 -9 -57 -23 -49 -10 6 -10 5 -1 -7 10 -12 9
-20 -2 -37 -9 -11 -15 -25 -14 -29 1 -4 0 -10 -1 -13 -1 -3 -3 -31 -4 -62 -1
-46 1 -55 12 -46 10 9 12 8 10 -1 -2 -8 5 -15 15 -16 14 -3 16 0 7 9 -7 10 -6
17 4 25 9 7 17 8 20 2 7 -10 25 -9 44 3 11 6 11 11 0 24 -11 13 -11 14 1 7 11
-6 13 -4 8 8 -3 9 -2 19 3 22 9 6 8 31 -3 41 -7 7 -11 -11 -8 -29 1 -5 -3 -6
-8 -2 -6 3 -17 -8 -26 -25 -9 -17 -20 -28 -25 -25 -6 4 -10 8 -10 11 0 3 5 2
12 -2 8 -5 9 -2 5 10 -4 9 -3 15 2 12 5 -3 11 1 15 9 3 8 1 17 -5 21 -6 4 -6
11 2 20 6 8 9 17 6 20 -3 4 -15 -8 -25 -26 -13 -21 -22 -27 -25 -18 -4 9 -6
10 -6 1 -1 -7 -6 -13 -12 -13 -8 0 -8 4 1 15 6 8 8 20 4 26 -4 8 -3 9 4 5 11
-7 16 6 15 40 0 7 7 11 16 9 9 -1 22 3 30 9 12 9 13 8 6 -3 -6 -10 -4 -12 5
-6 9 6 11 4 5 -5 -6 -10 -4 -11 6 -4 22 13 40 14 32 1 -4 -7 2 -5 12 3 10 8
16 10 13 5 -4 -7 3 -11 17 -11 14 0 21 4 17 11 -3 5 2 4 11 -4 9 -7 17 -10 17
-5 0 5 8 0 17 -11 l16 -20 -7 20 c-6 20 -6 20 9 1 11 -14 15 -16 15 -5 0 12 2
12 9 0 5 -8 7 -20 4 -28 -4 -11 -8 -10 -19 4 -15 21 -19 10 -5 -16 7 -13 6
-18 -4 -18 -8 0 -11 7 -7 16 5 13 3 14 -10 4 -12 -10 -18 -59 -8 -70 1 -2 3
-9 4 -15 0 -7 8 -13 16 -13 9 0 14 -8 12 -19 -2 -11 1 -15 7 -11 6 3 9 18 6
33 -4 15 -7 34 -9 42 -2 8 10 34 25 59 26 40 30 69 9 56 -4 -3 -11 2 -14 11
-3 8 -10 12 -16 9 -5 -3 -10 0 -10 7 0 10 -3 9 -11 -2 -9 -12 -10 -11 -6 8 3
13 1 20 -5 16 -5 -3 -7 -17 -4 -30 8 -30 -2 -31 -13 -1 -5 13 -5 27 1 34 6 8
4 10 -9 8 -10 -2 -20 -4 -22 -4 -3 -1 0 -6 7 -13 7 -7 12 -19 12 -27 0 -11 -4
-9 -15 6 -9 13 -13 34 -11 49 3 14 2 23 -2 19 -7 -7 -8 -12 -11 -41 0 -8 -5
-13 -10 -9 -6 3 -8 14 -6 25 2 11 0 22 -4 25 -5 2 -8 -3 -7 -13 0 -9 -3 -17
-9 -17 -5 0 -9 9 -9 20 2 17 -1 16 -21 -7 -13 -15 -26 -24 -29 -21 -3 4 4 17
16 30 20 21 33 53 22 53 -2 0 -5 -2 -5 -5z"/>
<path d="M2941 6333 c12 -20 12 -25 -3 -39 -12 -12 -17 -13 -23 -3 -5 8 -4 10
3 5 8 -5 10 -1 6 9 -6 14 -8 14 -20 -3 -13 -19 -48 -23 -71 -9 -7 5 -13 5 -13
1 0 -3 -8 0 -17 7 -9 8 -14 9 -10 3 7 -12 -22 -43 -31 -34 -3 3 -15 -13 -28
-35 -12 -22 -27 -41 -33 -41 -6 -1 -14 -2 -18 -3 -3 0 2 -10 13 -22 13 -15 18
-33 16 -67 -1 -31 2 -42 7 -33 5 8 7 21 4 30 -4 13 -3 13 5 2 7 -10 10 -3 10
25 0 31 -2 35 -9 19 -8 -18 -8 -17 -6 5 1 16 -3 24 -11 22 -8 -1 -11 2 -8 7 4
5 15 8 26 6 11 -2 20 2 20 8 0 7 4 6 10 -3 9 -13 10 -13 10 0 0 13 1 13 10 0
9 -14 10 -13 10 18 0 11 -44 9 -53 -3 -5 -6 -7 -4 -4 5 2 8 8 15 13 15 5 0 15
4 22 9 11 6 11 11 0 24 -12 15 -11 16 5 3 15 -12 21 -9 19 9 0 3 15 6 33 6 18
0 32 -3 30 -6 -2 -3 7 -6 20 -6 14 0 21 4 17 11 -4 7 -1 7 9 -1 20 -15 45 -11
41 6 -2 8 0 11 4 7 11 -10 14 -38 4 -32 -4 3 -6 -3 -3 -14 3 -10 0 -22 -5 -25
-6 -4 -8 3 -4 16 3 14 2 19 -7 14 -6 -4 -8 -13 -4 -19 4 -7 0 -6 -10 2 -16 12
-22 8 -18 -12 1 -5 -2 -6 -7 -3 -5 3 -8 -7 -6 -22 l4 -27 -9 25 -9 25 -2 -25
-2 -25 -8 25 -8 25 -2 -25 -2 -25 -9 25 -9 25 4 -27 c2 -15 0 -25 -4 -23 -12
8 -31 -21 -27 -41 1 -11 7 -26 12 -34 8 -13 7 -13 -10 0 -15 12 -17 12 -10 1
5 -10 4 -12 -4 -7 -6 4 -9 11 -6 16 3 5 0 12 -6 16 -9 5 -10 1 -7 -14 4 -13 2
-20 -6 -19 -6 1 -10 -6 -10 -15 1 -11 -5 -15 -17 -13 -10 2 -22 -1 -25 -7 -5
-7 -2 -8 6 -3 9 6 11 4 5 -5 -5 -8 -4 -11 1 -7 6 3 10 -5 10 -18 0 -13 -4 -21
-10 -18 -5 3 -6 1 -2 -5 4 -7 0 -10 -12 -7 -15 3 -18 -3 -17 -30 0 -19 -4 -31
-9 -28 -5 4 -6 1 -1 -7 5 -7 4 -11 -1 -7 -5 3 -9 -5 -9 -18 0 -13 4 -21 9 -17
5 3 6 -1 1 -8 -5 -8 -4 -11 2 -7 6 4 10 -13 9 -48 -1 -30 2 -49 6 -42 8 12 11
3 11 -35 0 -10 3 -15 7 -13 5 3 7 -6 6 -20 -2 -13 0 -22 4 -20 11 7 26 -17 26
-40 -1 -11 -7 -19 -14 -17 -8 1 -11 -2 -6 -9 5 -8 3 -9 -6 -4 -9 6 -11 4 -5
-6 7 -12 6 -12 -7 -1 -10 8 -19 9 -22 3 -4 -5 -15 -8 -26 -6 -12 2 -18 0 -15
-6 9 -14 -1 -11 -14 5 -9 11 -7 13 11 12 13 0 23 5 24 12 1 6 2 18 3 25 1 8 4
7 11 -3 6 -10 10 -11 10 -2 0 22 -2 27 -10 25 -5 -2 -7 10 -4 25 3 20 2 23 -6
12 -9 -13 -10 -13 -10 0 0 13 -1 13 -10 0 -7 -11 -9 -2 -6 28 3 33 1 41 -8 33
-7 -6 -11 -25 -10 -43 l3 -33 -7 30 c-4 17 -10 28 -13 25 -3 -3 -13 1 -21 7
-8 7 -18 10 -21 6 -11 -11 -8 -23 6 -21 7 2 11 -6 9 -23 -2 -23 1 -26 25 -24
37 3 66 -22 53 -44 -10 -20 -89 -23 -112 -3 -22 17 -31 2 -11 -20 9 -10 12
-18 8 -18 -4 0 0 -9 10 -20 17 -19 41 -18 29 1 -3 5 -9 7 -13 5 -4 -3 -8 1 -8
9 0 11 4 12 14 4 12 -11 18 -5 13 16 -1 5 8 1 19 -9 11 -10 18 -22 16 -27 -9
-14 12 -19 24 -5 6 7 28 12 51 11 23 -1 45 4 51 11 6 8 15 12 19 9 5 -3 12 0
16 6 4 8 3 9 -5 5 -13 -9 -25 21 -30 79 -1 6 -6 3 -11 -5 -10 -16 -12 -13 -14
40 0 17 -6 34 -11 38 -15 10 -17 62 -3 79 9 11 8 13 -2 11 -9 -2 -13 7 -13 25
1 15 2 29 3 32 1 3 3 8 5 13 9 31 18 43 26 31 4 -8 7 1 5 21 -4 47 27 90 60
84 25 -5 25 -3 28 51 1 25 5 30 25 30 23 0 33 11 46 50 6 20 7 20 21 1 10 -14
14 -16 14 -5 0 12 2 12 11 -1 9 -13 10 -13 6 1 -3 9 1 28 8 43 8 14 11 26 8
26 -3 0 -1 6 5 13 7 8 6 19 -3 37 -8 14 -14 21 -15 16 0 -5 -7 -2 -17 5 -15
13 -15 12 -2 -8z"/>
<path d="M2635 6131 c-3 -6 -12 -8 -18 -5 -7 4 -2 -4 11 -18 18 -20 20 -27 10
-36 -7 -6 -16 -11 -20 -11 -5 -1 -8 -4 -7 -7 1 -3 -11 -18 -26 -34 -17 -18
-23 -30 -16 -34 11 -7 12 -6 15 13 1 12 15 26 27 27 5 1 12 2 15 3 4 0 1 8 -6
16 -10 12 -8 14 9 10 12 -2 19 0 16 5 -3 5 4 7 15 5 13 -2 20 1 20 11 0 8 -4
13 -9 9 -5 -3 -12 -1 -15 4 -4 5 2 8 11 7 13 -2 18 -12 17 -34 0 -18 3 -29 9
-25 6 4 7 1 2 -7 -5 -8 -4 -11 2 -7 5 3 10 0 10 -8 0 -12 -3 -12 -16 -2 -12
10 -13 9 -7 -1 4 -7 4 -12 -1 -11 -19 3 -25 -2 -14 -15 8 -9 8 -20 1 -37 -10
-23 -10 -22 -5 4 4 22 3 27 -7 20 -19 -11 -51 -11 -67 1 -12 9 -13 7 -8 -7 4
-10 7 -24 7 -30 0 -7 4 -6 10 3 9 13 10 13 10 0 0 -13 1 -13 10 0 9 13 10 13
10 0 0 -12 2 -12 9 -2 7 11 9 10 14 -3 5 -11 3 -14 -6 -9 -9 6 -9 5 0 -7 13
-16 14 -61 2 -53 -4 2 -5 -6 -1 -18 5 -21 6 -21 12 -2 6 15 9 11 15 -19 4 -21
5 -41 1 -44 -3 -4 -6 7 -7 23 0 28 -1 28 -10 6 -5 -14 -13 -20 -20 -16 -7 4
-9 3 -6 -3 4 -6 -5 -9 -21 -8 -15 1 -31 -1 -37 -4 -17 -10 -35 -10 -41 0 -3 5
0 8 7 7 7 -2 13 2 14 9 0 6 4 15 8 20 5 4 7 1 5 -7 -2 -9 6 -14 25 -15 25 0
40 18 17 21 -5 1 -11 3 -12 4 -7 6 -57 6 -53 0 3 -4 -4 -15 -15 -25 -11 -10
-20 -14 -20 -10 0 5 -6 0 -14 -10 -15 -21 -12 -40 5 -29 5 3 7 9 5 13 -3 4 1
8 9 8 10 0 12 -4 5 -12 -5 -7 -6 -15 -2 -19 4 -4 0 -6 -8 -4 -8 2 -14 -4 -15
-14 0 -10 5 -17 10 -15 6 1 9 6 7 11 -2 5 5 3 15 -4 10 -8 15 -11 11 -6 -11
13 42 77 56 69 18 -12 30 -10 49 5 18 16 19 14 21 -28 1 -15 7 -25 16 -25 8 0
15 -8 15 -17 0 -10 6 -23 12 -29 13 -13 -1 -54 -16 -45 -4 3 -8 -1 -8 -9 0
-11 4 -12 14 -4 7 6 13 8 13 4 0 -4 6 -2 13 4 8 6 17 8 21 4 3 -4 5 4 3 18 -2
13 -10 24 -18 24 -8 1 -13 7 -11 14 1 7 -1 18 -6 25 -5 6 -8 19 -7 28 2 10 -2
16 -8 15 -7 -1 -11 15 -10 43 0 25 -4 51 -10 58 -14 17 -13 49 1 85 7 15 11
32 9 36 -1 5 1 8 4 8 3 -1 13 4 23 12 15 13 15 15 -1 33 -10 11 -17 22 -15 24
5 9 1 57 -5 51 -3 -4 -17 2 -29 14 -14 13 -24 17 -29 10z"/>
<path d="M4425 5940 c-4 -27 -4 -54 0 -60 9 -14 -4 -52 -16 -44 -6 4 -6 11 1
19 7 9 8 15 1 19 -6 4 -7 14 -4 24 3 9 3 14 -2 10 -11 -11 -14 -61 -3 -74 5
-7 2 -16 -7 -24 -12 -10 -12 -16 -3 -34 12 -22 12 -24 -3 -43 -7 -7 -6 -14 1
-18 6 -3 7 -11 4 -17 -4 -7 -2 -8 4 -4 7 4 12 3 12 -2 0 -17 -13 -22 -29 -9
-14 10 -14 10 -4 -4 7 -9 9 -20 5 -25 -4 -5 3 0 16 10 23 20 31 10 10 -13 -9
-9 -9 -12 -1 -7 6 3 14 0 17 -6 4 -9 5 -8 5 2 -3 34 4 43 11 15 l8 -30 2 30 3
30 7 -30 c7 -26 7 -25 5 9 -2 22 1 49 7 59 5 11 6 17 1 14 -4 -3 -8 28 -8 68
0 40 4 71 8 68 5 -3 5 3 0 13 -6 12 -5 31 3 54 12 32 13 33 15 10 3 -35 7 -73
8 -85 1 -5 5 -4 10 4 7 10 9 7 8 -12 -1 -14 -5 -23 -9 -21 -4 2 -5 -19 -4 -48
4 -71 6 -76 16 -53 7 16 8 14 7 -12 -1 -17 -6 -29 -11 -25 -5 3 -6 -1 -1 -8 5
-8 4 -11 -3 -6 -6 4 -8 14 -5 23 4 11 3 14 -5 9 -8 -5 -10 -1 -5 11 4 13 3 15
-5 8 -12 -11 5 -76 23 -92 4 -5 6 -1 2 8 -3 10 4 26 19 40 l24 22 -25 33 c-16
21 -21 35 -15 39 8 5 8 11 0 20 -7 9 -7 15 -1 19 11 7 9 41 -4 70 -5 11 -4 31
2 47 13 32 8 39 -24 39 -18 0 -23 -6 -24 -27 -2 -25 -2 -24 -9 7 l-7 35 -3
-30 c-6 -65 -8 -76 -15 -83 -4 -4 -4 19 -1 51 4 31 5 57 3 57 -3 0 -8 -22 -12
-50z"/>
</g>
</svg>
