<?xml version="1.0" standalone="no"?>
<!DOCTYPE svg PUBLIC "-//W3C//DTD SVG 20010904//EN"
 "http://www.w3.org/TR/2001/REC-SVG-20010904/DTD/svg10.dtd">
<svg version="1.0" xmlns="http://www.w3.org/2000/svg"
 width="920.000000pt" height="674.000000pt" viewBox="0 0 920.000000 674.000000"
 preserveAspectRatio="xMidYMid meet">
<metadata>
Created by potrace 1.16, written by Peter Selinger 2001-2019
</metadata>
<g transform="translate(0.000000,674.000000) scale(0.100000,-0.100000)"
fill="#000000" stroke="none">
<path d="M8213 6519 c-174 -15 -400 -76 -672 -179 -312 -118 -779 -336 -1031
-480 -69 -40 -135 -77 -146 -82 -18 -9 -41 1 -140 63 -681 418 -1566 532
-2345 304 -694 -204 -1297 -660 -1677 -1268 -356 -569 -511 -1274 -426 -1936
8 -63 11 -117 7 -121 -4 -4 -60 -45 -123 -90 -202 -146 -279 -208 -650 -519
-543 -457 -767 -704 -911 -1006 -128 -268 -127 -477 4 -672 120 -180 343 -310
618 -359 124 -23 381 -23 549 0 184 25 391 68 695 146 435 111 672 187 1051
337 l191 75 93 -52 c629 -355 1421 -460 2119 -281 497 128 939 376 1305 730
529 515 841 1175 907 1924 14 157 6 474 -15 626 l-15 104 169 176 c295 309
628 706 814 971 364 517 499 915 408 1199 -69 214 -279 362 -552 391 -104 11
-97 11 -227 -1z m342 -54 c106 -27 222 -91 289 -159 194 -197 193 -483 -5
-894 -93 -195 -206 -376 -379 -607 -54 -71 -106 -139 -116 -150 -11 -11 -31
-36 -45 -55 -15 -19 -40 -49 -55 -67 -16 -18 -47 -53 -69 -79 -22 -25 -53 -61
-70 -79 -16 -18 -48 -54 -70 -80 -22 -25 -56 -63 -75 -84 -408 -442 -828 -843
-1260 -1202 -724 -601 -1696 -1277 -2455 -1706 -773 -437 -1477 -726 -2255
-926 -699 -180 -1044 -214 -1366 -132 -280 71 -488 246 -556 469 -48 158 14
399 165 641 162 260 401 495 1092 1076 83 70 311 246 431 332 l52 37 11 -57
10 -58 -47 -43 c-26 -24 -139 -123 -252 -220 -498 -427 -884 -883 -983 -1160
-24 -67 -46 -167 -27 -127 5 11 9 30 9 43 1 13 5 21 10 17 10 -5 8 -34 -4 -58
-4 -6 0 -4 8 5 8 10 17 15 20 11 4 -3 2 -12 -4 -20 -6 -7 -8 -13 -4 -13 4 0 2
-6 -4 -14 -9 -11 -9 -16 0 -22 7 -4 9 -3 5 4 -3 6 -2 13 4 17 6 4 8 10 5 15
-3 4 3 14 12 21 14 12 15 11 9 -11 -7 -25 -7 -25 6 -3 13 22 14 22 26 3 8 -13
8 -21 1 -26 -13 -8 3 -27 25 -30 9 -1 12 5 9 20 -5 19 -5 20 8 3 13 -16 14
-15 16 9 0 17 -2 22 -7 14 -5 -8 -9 -9 -14 -1 -4 6 -2 11 4 11 6 0 8 5 4 11
-4 8 -9 7 -15 -2 -7 -12 -9 -11 -10 1 -1 8 -1 21 0 29 2 7 -3 10 -9 6 -6 -4
-8 -16 -5 -28 5 -20 4 -20 -8 2 -11 18 -16 20 -20 10 -4 -10 -6 -9 -6 4 -1 9
4 17 9 17 6 0 10 5 10 11 0 8 -4 8 -14 0 -10 -8 -16 -9 -21 -1 -3 6 -10 8 -13
6 -7 -4 -8 44 -2 52 2 1 3 6 4 11 0 6 8 16 16 23 12 11 12 11 4 -2 -14 -20
-11 -46 4 -42 7 1 11 -1 10 -5 -2 -5 4 -17 12 -28 19 -27 46 -26 42 0 -2 11
-1 17 2 14 6 -6 11 -23 20 -66 5 -26 18 -27 14 -1 -3 15 -2 25 2 23 4 -3 11 7
14 21 4 15 9 24 11 22 2 -2 -3 -26 -11 -53 -9 -28 -16 -81 -16 -120 -2 -133
65 -213 217 -261 59 -19 227 -44 291 -44 8 0 14 -5 14 -11 0 -6 -9 -8 -22 -4
-13 3 -18 3 -13 -2 6 -4 10 -18 9 -31 -1 -21 0 -22 16 -7 12 11 20 13 25 5 3
-5 11 -8 16 -5 5 4 9 2 9 -3 0 -17 -13 -22 -29 -10 -12 10 -12 7 2 -8 9 -11
15 -24 12 -27 -3 -4 -2 -4 2 -1 5 3 8 10 8 15 0 12 20 12 21 -1 1 -5 3 -13 4
-17 1 -5 2 -11 2 -14 -1 -3 18 -5 41 -4 23 2 42 3 42 4 0 1 32 3 70 6 39 2
151 18 250 35 894 152 1754 503 3061 1251 1338 765 2252 1472 2943 2278 240
279 444 565 649 908 192 320 274 497 307 662 45 219 -34 388 -202 437 -120 35
-339 5 -548 -76 -118 -46 -444 -184 -441 -187 2 -2 41 6 87 16 208 49 423 53
534 11 81 -31 164 -114 191 -190 30 -87 25 -202 -15 -319 -124 -366 -442 -795
-1109 -1498 -749 -789 -1546 -1380 -2762 -2046 -1012 -554 -1898 -879 -2630
-963 -197 -22 -481 -16 -592 14 -139 38 -222 94 -270 185 -19 35 -23 57 -22
137 1 294 213 671 557 994 105 99 404 346 419 346 9 0 50 -128 45 -143 -6 -18
73 -243 133 -377 93 -208 220 -432 327 -576 29 -39 53 -73 53 -76 0 -15 -261
-93 -441 -132 -257 -56 -441 -56 -535 -1 -55 32 -74 75 -74 163 0 182 144 467
438 867 59 80 64 90 27 50 -127 -137 -325 -423 -411 -595 -251 -504 -31 -680
641 -514 181 45 388 116 411 141 12 13 26 23 33 23 21 0 205 62 391 132 1092
409 2182 1018 3075 1719 447 350 916 798 1285 1228 30 35 65 67 76 71 24 10
135 138 247 286 149 198 261 396 313 554 38 116 41 256 6 311 -90 145 -405 86
-1015 -191 -64 -29 -115 -55 -113 -57 2 -2 75 25 162 61 294 120 538 195 704
217 99 14 176 0 211 -37 22 -23 24 -34 24 -122 0 -75 -5 -113 -24 -167 -55
-162 -207 -418 -374 -630 -106 -135 -127 -159 -131 -154 -2 2 -20 38 -40 79
-51 101 -144 240 -260 385 -130 162 -303 345 -326 345 -10 0 -44 29 -77 65
-32 36 -97 94 -145 129 l-88 64 113 63 c246 138 660 334 999 474 240 98 500
175 678 201 114 16 300 11 385 -11z m-3938 -278 c-4 -11 23 -15 136 -20 78 -3
165 -11 192 -16 28 -5 97 -17 154 -27 58 -9 122 -22 143 -30 37 -13 39 -13 50
11 13 28 18 29 72 14 35 -10 38 -13 33 -39 -6 -26 -3 -29 41 -40 26 -6 79 -27
118 -46 69 -34 71 -36 70 -70 -1 -30 -3 -32 -13 -17 -8 11 -9 20 -3 28 7 8 5
12 -4 12 -9 0 -15 -21 -20 -70 -12 -127 -90 -443 -117 -471 -5 -6 -9 -17 -9
-26 0 -8 -9 -32 -20 -53 -11 -20 -18 -37 -14 -37 3 0 -1 -12 -9 -27 -8 -16
-43 -87 -78 -160 -35 -72 -68 -132 -72 -132 -5 -1 -5 4 -1 11 4 7 3 8 -5 4 -6
-4 -9 -11 -6 -16 19 -31 -91 -123 -114 -96 -6 7 -8 15 -5 18 3 3 1 9 -4 12
-11 7 -10 -19 1 -30 14 -14 7 -26 -9 -14 -12 11 -15 11 -12 1 2 -8 -4 -15 -12
-17 -8 -1 -25 -5 -38 -8 -16 -3 -20 -1 -15 7 4 7 0 6 -10 -2 -26 -20 -22 8 6
50 31 48 100 188 143 294 20 50 40 95 44 100 5 6 9 13 9 18 0 4 19 64 41 134
71 222 140 511 110 463 -5 -8 -7 -17 -4 -21 2 -4 0 -10 -6 -14 -5 -3 -10 -17
-10 -30 0 -13 -4 -26 -8 -29 -5 -3 -5 18 -1 46 5 29 7 53 5 55 -1 1 -22 -66
-45 -150 -178 -634 -366 -1002 -736 -1442 -513 -609 -1227 -1150 -1986 -1505
-156 -74 -488 -210 -509 -210 -6 0 -10 -11 -10 -25 0 -14 2 -25 5 -25 14 0
247 90 370 143 136 58 444 208 535 261 25 14 56 31 70 38 14 6 33 19 43 27 17
14 18 13 12 -33 -4 -27 -15 -73 -25 -102 -11 -30 -16 -54 -13 -54 3 0 1 -6 -5
-12 -5 -7 -13 -28 -17 -47 -5 -22 -17 -39 -36 -50 -16 -9 -29 -20 -29 -25 0
-5 -8 -2 -17 5 -11 10 -14 10 -9 2 4 -8 -2 -17 -18 -25 -14 -6 -26 -16 -26
-21 0 -5 -7 -4 -15 3 -13 11 -14 10 -9 -4 4 -9 3 -16 -2 -14 -9 2 -170 -76
-190 -93 -6 -5 -14 -6 -17 -2 -4 3 -7 1 -7 -6 0 -7 -4 -9 -10 -6 -5 3 -10 1
-10 -4 0 -6 -3 -10 -7 -9 -5 2 -44 -15 -88 -36 -44 -21 -84 -39 -90 -40 -5 -1
-19 -7 -30 -13 -34 -18 -282 -113 -295 -113 -7 0 -10 -7 -6 -16 3 -9 6 -20 6
-25 0 -17 30 -9 207 62 201 80 519 232 698 333 267 151 592 383 871 620 174
148 610 586 767 771 397 469 639 848 800 1255 79 198 125 385 148 599 7 61 16
111 20 111 17 0 192 -72 302 -124 l119 -56 -7 -52 c-27 -210 -91 -409 -214
-663 -312 -645 -732 -1147 -1486 -1774 -452 -377 -925 -703 -1552 -1068 -261
-152 -683 -367 -695 -355 -11 11 -128 250 -128 262 0 5 10 12 22 16 12 3 36
13 54 20 31 13 33 16 23 38 -10 21 -15 23 -36 13 -14 -6 -27 -7 -33 -1 -12 13
-70 211 -70 242 0 25 -4 26 -69 10 -9 -2 -19 20 -31 60 l-17 63 39 20 c21 11
37 23 34 27 -9 15 -46 167 -51 211 -13 114 -13 114 -40 97 -13 -9 -26 -12 -28
-8 -3 4 -8 59 -11 123 -7 110 -6 116 13 125 20 9 21 19 25 209 2 110 7 210 11
223 5 16 3 22 -8 22 -13 0 -12 12 3 99 25 138 59 264 74 276 16 12 32 70 16
60 -15 -9 -14 -8 33 127 53 149 124 308 148 328 9 8 28 38 41 65 161 337 572
795 910 1014 37 24 66 47 63 51 -3 4 3 7 13 6 9 0 16 4 15 11 -2 8 4 10 14 6
10 -4 14 -2 9 5 -3 6 -1 14 5 18 8 4 9 3 5 -4 -10 -16 -1 -15 33 3 16 8 31 23
34 34 5 22 211 125 372 187 155 60 349 114 353 99 4 -17 50 -7 65 15 16 23
256 68 267 50 5 -8 35 -9 112 -2 58 6 120 9 138 8 22 -2 34 3 41 16 11 21 34
25 26 5z m2111 -792 c112 -108 278 -294 306 -342 10 -18 -53 -114 -240 -363
-390 -518 -840 -971 -1470 -1476 -167 -134 -407 -314 -412 -309 -2 1 23 27 55
56 575 529 1046 1123 1328 1674 148 290 247 575 277 798 6 48 15 87 19 87 4 0
66 -56 137 -125z m468 -577 c24 -45 8 -32 -21 17 -14 25 -31 43 -36 39 -7 -4
-6 -10 1 -19 6 -7 7 -21 3 -30 -4 -12 -3 -16 5 -11 6 3 14 2 17 -4 4 -6 2 -9
-3 -8 -10 3 -12 -1 -12 -28 0 -9 5 -12 13 -8 7 4 9 3 4 -2 -5 -5 -14 -9 -20
-9 -7 0 -12 -8 -12 -17 0 -10 5 -17 10 -15 6 1 9 6 7 10 -1 5 2 5 8 2 8 -5 7
-12 -4 -23 -8 -10 -15 -21 -15 -27 -1 -5 -5 -10 -11 -10 -5 0 -10 -3 -10 -7 0
-32 0 -33 9 -20 7 11 9 10 14 -3 4 -9 3 -14 -2 -11 -13 9 -20 -31 -8 -43 11
-11 9 -12 -15 -15 -6 0 -13 -7 -16 -15 -3 -9 0 -11 9 -5 12 7 12 5 0 -9 -7 -9
-10 -17 -5 -17 5 0 2 -6 -6 -13 -8 -7 -16 -19 -16 -29 -1 -9 -27 -63 -57 -120
-55 -102 -61 -109 -275 -314 -690 -661 -1525 -1264 -2465 -1778 -205 -112
-816 -420 -823 -414 -2 2 31 24 74 47 209 117 540 338 801 535 95 72 284 205
420 296 855 573 1626 1296 2183 2050 47 63 98 134 113 158 l28 43 49 -73 c27
-40 56 -85 64 -100z m-1361 -2555 c-435 -404 -1039 -797 -1600 -1040 -178 -77
-167 -68 80 69 397 221 964 586 1385 892 102 73 187 134 190 134 3 1 -22 -24
-55 -55z m-2973 -26 c-6 -7 -12 -24 -14 -37 -2 -14 -6 -29 -9 -35 -6 -9 -19
-60 -35 -135 -5 -26 -15 -95 -17 -117 -1 -19 -14 -16 -31 9 -15 22 -12 43 5
32 5 -3 7 -9 4 -14 -3 -5 -1 -11 4 -14 7 -5 8 22 1 32 -8 9 -4 30 8 45 8 9 12
17 8 17 -4 0 -4 6 1 13 13 20 12 36 -3 48 -8 6 -12 15 -9 19 3 5 1 11 -4 14
-12 8 -8 -18 5 -35 9 -12 10 -24 5 -44 0 -3 -1 -8 -2 -12 0 -5 -8 -16 -16 -25
-9 -10 -12 -18 -8 -18 4 0 1 -8 -8 -18 -10 -11 -13 -22 -7 -32 11 -18 3 -33
-13 -24 -7 4 -2 -4 11 -18 12 -13 20 -27 16 -30 -3 -3 -1 -9 4 -12 5 -3 9 4 8
16 0 12 4 23 9 25 6 2 9 -17 9 -44 -1 -30 -6 -49 -15 -52 -8 -2 -51 -21 -97
-43 -46 -21 -88 -35 -94 -32 -6 4 -8 2 -5 -3 8 -13 -70 -46 -85 -37 -6 4 -8 3
-5 -3 4 -6 -15 -20 -43 -31 l-50 -21 -52 62 c-50 60 -148 203 -148 216 0 3 61
35 135 70 74 35 223 112 332 172 196 107 225 121 205 96z m-75 -555 c1 -26 -1
-31 -6 -18 -7 19 -8 18 -14 -4 -3 -13 -9 -21 -13 -17 -4 4 -16 0 -26 -10 -10
-9 -18 -13 -18 -9 0 3 -18 -3 -40 -14 -22 -11 -40 -18 -40 -15 0 3 -11 -2 -25
-11 -14 -9 -25 -13 -25 -10 0 4 -6 4 -12 -1 -14 -8 -24 -11 -53 -15 -11 -2
-22 -6 -25 -10 -3 -3 -16 2 -28 13 l-24 19 29 11 c15 6 40 18 55 26 15 7 31
14 35 15 15 2 111 42 161 67 55 28 67 24 69 -17z"/>
<path d="M5175 5840 c-10 -22 -22 -40 -27 -40 -4 0 -7 -3 -7 -7 3 -18 -2 -33
-10 -33 -6 0 -8 10 -6 21 3 12 1 18 -3 15 -4 -4 -7 -11 -8 -14 0 -4 -8 -24
-17 -46 -9 -21 -14 -43 -10 -49 3 -5 2 -7 -4 -4 -5 3 -29 -37 -53 -91 -89
-198 -272 -533 -339 -621 l-18 -24 -48 36 c-26 20 -69 47 -96 59 -26 13 -48
27 -49 32 0 4 15 34 34 65 46 77 102 181 183 342 66 133 83 173 66 156 -4 -5
-8 -13 -8 -18 0 -5 -4 -9 -10 -8 -5 1 -9 5 -7 11 1 5 -3 6 -9 3 -8 -5 -8 -10
0 -18 6 -6 11 -18 11 -26 0 -11 -3 -10 -14 4 -13 18 -16 15 -41 -36 -44 -86
-238 -435 -260 -467 -1 -1 -11 -4 -21 -6 -11 -2 -37 -7 -58 -10 -110 -20 -209
-105 -381 -326 -62 -80 -137 -168 -166 -196 -52 -50 -137 -109 -145 -102 -2 2
34 50 80 105 187 227 423 563 410 584 -4 7 -3 9 3 6 10 -6 136 190 135 210 0
4 7 17 16 28 9 11 2 7 -16 -9 -39 -36 -40 -29 -6 30 14 24 23 44 20 44 -3 0
-24 -33 -46 -72 -213 -386 -538 -805 -925 -1194 -276 -277 -512 -475 -875
-736 -102 -73 -197 -141 -210 -151 -37 -27 -1 -8 48 26 54 36 63 30 20 -13
-30 -30 -31 -31 -6 -15 16 9 28 22 28 27 0 5 4 7 9 3 5 -3 16 3 23 12 7 10 19
19 26 21 7 1 78 49 158 107 80 58 151 105 158 105 11 0 67 -22 239 -93 15 -6
27 -14 27 -17 0 -3 -30 -25 -67 -50 -38 -25 -70 -48 -73 -51 -11 -14 -302
-200 -460 -294 -91 -55 -168 -103 -171 -108 -3 -5 -10 -9 -15 -9 -5 0 -19 -5
-31 -11 -17 -8 -20 -13 -12 -23 8 -9 5 -15 -10 -23 -13 -7 -22 -8 -26 -1 -6
10 1 14 18 11 5 -1 6 3 2 9 -5 8 -11 7 -21 -1 -8 -6 -12 -14 -9 -17 3 -3 -1
-12 -8 -21 -11 -14 -10 -14 5 -2 10 7 18 11 18 7 0 -3 23 5 50 19 28 14 49 29
46 33 -3 5 0 14 6 22 8 12 9 12 4 -2 -8 -28 7 -22 123 41 190 104 391 230 567
357 109 78 127 83 153 43 11 -19 11 -23 0 -30 -8 -5 -31 -19 -51 -31 -211
-130 -356 -210 -595 -331 -203 -102 -283 -147 -283 -159 0 -19 -14 -31 -24
-21 -10 11 -37 12 -30 2 3 -5 11 -7 17 -3 7 3 3 -2 -7 -10 -25 -20 -36 -20
-36 1 0 9 -3 14 -6 10 -3 -3 -3 -14 1 -25 6 -19 11 -18 108 25 197 87 594 293
787 409 418 249 773 524 1088 842 456 460 832 1016 1077 1592 32 74 66 155 76
179 11 24 18 46 16 48 -2 2 -12 -15 -22 -37z"/>
<path d="M4052 5235 c-18 -25 -32 -50 -32 -56 0 -6 -5 -7 -12 -3 -7 4 -8 3 -4
-4 4 -7 2 -12 -3 -12 -6 0 -11 -6 -11 -13 0 -7 -7 -22 -16 -33 -14 -18 -15
-18 -4 4 6 12 8 22 5 22 -3 0 0 10 6 23 9 17 9 19 0 11 -11 -10 -18 -29 -20
-57 -1 -5 -5 -6 -9 -3 -13 8 -104 -123 -96 -136 4 -6 3 -8 -4 -4 -6 4 -25 -14
-43 -41 -39 -57 -39 -57 -84 -108 -19 -22 -35 -43 -35 -47 0 -5 -8 -16 -17
-26 -10 -10 -43 -47 -73 -82 -63 -73 -63 -73 -149 -163 -34 -37 -66 -67 -70
-67 -3 0 -40 7 -81 16 -97 21 -233 14 -310 -15 -115 -44 -233 -154 -342 -321
-101 -155 -130 -230 -130 -339 1 -58 -3 -78 -16 -88 -42 -35 62 26 148 85 514
355 946 767 1227 1169 35 51 61 97 58 103 -4 6 -11 8 -16 5 -10 -7 -12 8 -2
18 3 4 11 -1 18 -9 11 -16 36 17 134 179 31 51 22 47 -17 -8z"/>
<path d="M7073 4949 c-6 -6 -9 -18 -6 -26 3 -7 1 -13 -5 -11 -5 2 -9 0 -8 -3
0 -4 -7 -16 -16 -26 -14 -15 -15 -22 -6 -31 7 -7 9 -12 5 -12 -4 0 2 -16 13
-35 10 -19 15 -37 11 -40 -8 -5 -26 23 -23 37 1 3 -6 12 -16 20 -15 11 -16 11
-6 -2 9 -13 11 -31 4 -45 -7 -14 -5 -51 3 -62 5 -7 6 -13 1 -13 -4 0 2 -10 14
-23 12 -13 19 -26 16 -30 -3 -3 -16 6 -28 20 -17 19 -23 22 -23 10 0 -9 5 -15
10 -14 5 1 12 -4 15 -12 3 -8 0 -11 -7 -7 -7 5 -9 1 -4 -10 4 -11 3 -15 -4
-11 -7 4 -10 0 -8 -10 2 -10 4 -18 5 -18 1 0 5 -17 15 -65 1 -8 -3 -21 -9 -29
-8 -11 -8 -13 0 -8 7 4 15 0 18 -9 9 -25 7 -27 -11 -13 -9 8 -19 13 -22 12 -3
-2 -6 1 -6 6 0 5 -3 12 -7 16 -8 9 -5 -16 5 -32 4 -6 3 -14 -2 -17 -5 -3 -7
-22 -5 -41 1 -20 0 -34 -4 -31 -4 2 -7 -8 -6 -22 1 -15 -3 -35 -7 -44 -6 -11
-5 -19 3 -24 7 -4 10 -4 6 1 -4 4 -2 17 4 29 7 11 11 30 10 41 -2 15 -1 17 6
6 8 -11 11 -9 17 10 5 13 8 37 7 54 0 24 1 26 8 10 4 -11 5 -27 3 -35 -2 -8 6
3 18 25 20 35 24 49 28 88 1 5 5 6 10 2 6 -3 8 4 6 16 -5 26 12 52 29 42 8 -4
7 -2 -1 7 -6 7 -9 18 -6 25 2 8 0 22 -6 33 -8 15 -7 23 3 31 7 6 15 8 19 5 5
-5 2 27 -3 34 -6 6 -5 28 1 37 9 13 6 86 -4 102 -4 6 -3 14 3 18 11 7 4 24
-27 63 -14 17 -21 20 -30 11z m16 -6 c-3 -21 2 -33 13 -27 6 4 8 3 4 -4 -3 -6
-1 -14 5 -17 5 -4 8 -13 5 -20 -2 -7 -2 -16 2 -20 9 -8 11 -87 3 -100 -8 -15
-8 -28 1 -41 5 -6 0 -18 -11 -28 -11 -10 -17 -25 -14 -34 4 -13 1 -12 -11 3
-15 19 -15 18 -5 -13 9 -25 14 -30 20 -20 7 9 8 7 6 -9 -2 -11 -9 -28 -15 -36
-7 -8 -12 -19 -10 -23 1 -5 -3 -19 -10 -30 -6 -12 -9 -24 -6 -27 3 -3 -1 -18
-9 -34 l-15 -28 0 25 c0 22 -6 65 -15 110 -1 8 -5 20 -9 25 -3 6 0 19 8 30 8
10 14 15 14 11 0 -5 7 -3 15 4 14 12 13 16 -6 37 -21 21 -21 27 -1 21 4 -2 6
-7 4 -12 -2 -5 4 -4 12 3 9 7 13 18 9 24 -4 6 -1 7 6 2 9 -5 9 -1 -1 14 -7 12
-15 16 -17 10 -2 -8 -6 -7 -13 2 -7 11 -8 11 -6 -1 2 -8 -1 -17 -7 -20 -11 -6
-15 49 -5 55 5 3 11 -2 14 -11 5 -13 9 -14 21 -4 12 10 11 16 -4 44 -17 29
-17 34 -4 52 15 18 15 18 11 -8 -3 -16 -1 -25 5 -21 5 3 6 -3 2 -16 -4 -14 -2
-21 6 -21 7 0 9 3 6 6 -3 4 -2 15 4 26 15 28 23 78 9 58 -9 -13 -10 -13 -10 0
0 13 -1 13 -10 0 -9 -13 -10 -13 -10 0 -1 9 -6 6 -14 -9 -7 -13 -16 -19 -19
-13 -4 5 0 15 8 22 8 7 12 16 9 21 -3 5 0 8 8 7 7 -2 14 4 14 12 3 26 4 30 9
30 3 0 4 -3 4 -7z"/>
</g>
</svg>
