<?xml version="1.0" standalone="no"?>
<!DOCTYPE svg PUBLIC "-//W3C//DTD SVG 20010904//EN"
 "http://www.w3.org/TR/2001/REC-SVG-20010904/DTD/svg10.dtd">
<svg version="1.0" xmlns="http://www.w3.org/2000/svg"
 width="900.000000pt" height="792.000000pt" viewBox="0 0 900.000000 792.000000"
 preserveAspectRatio="xMidYMid meet">
<metadata>
Created by potrace 1.16, written by Peter Selinger 2001-2019
</metadata>
<g transform="translate(0.000000,792.000000) scale(0.100000,-0.100000)"
fill="#000000" stroke="none">
<path d="M7450 7414 c-14 -12 -45 -25 -70 -28 -77 -13 -203 -48 -253 -71 -48
-23 -49 -23 -155 -7 l-107 15 -41 -26 -42 -26 10 -48 c15 -76 3 -127 -45 -202
-55 -83 -83 -150 -102 -241 -18 -84 -19 -228 -4 -314 9 -50 8 -69 -5 -106
l-15 -45 44 -70 c58 -94 150 -201 210 -248 47 -35 53 -37 100 -31 41 5 63 0
125 -24 41 -16 109 -38 150 -47 41 -10 89 -25 106 -35 43 -24 174 -13 207 18
13 12 44 23 77 27 30 4 89 16 130 27 66 17 111 18 174 5 5 -1 21 31 36 71 20
50 44 90 79 128 28 31 51 62 51 70 0 10 13 14 50 14 28 0 50 3 50 8 0 4 -6 28
-14 53 -12 39 -12 54 0 105 7 32 14 82 14 111 0 45 4 54 30 76 26 23 30 32 30
79 0 75 -7 93 -44 111 -31 14 -33 19 -44 99 -15 104 -61 203 -129 278 -27 30
-62 75 -78 100 -15 25 -29 46 -30 48 -2 2 -14 -4 -28 -12 -23 -15 -28 -15 -93
13 -38 16 -94 36 -125 45 -43 13 -63 26 -87 55 -28 35 -37 39 -84 43 -42 2
-57 -1 -78 -18z m123 -50 c24 -42 56 -65 110 -79 115 -30 259 -107 340 -184
64 -59 127 -210 127 -300 0 -25 8 -36 40 -57 37 -25 40 -30 40 -74 0 -38 -5
-53 -29 -77 -20 -21 -36 -56 -50 -108 -59 -214 -226 -409 -424 -494 -152 -65
-369 -74 -539 -21 -65 20 -95 45 -43 36 13 -3 27 -1 30 4 8 12 -141 43 -174
37 -25 -5 -29 -2 -39 31 -17 55 -105 166 -183 230 l-69 57 0 89 c0 81 -1 87
-16 75 -16 -13 -16 -5 -11 106 10 204 72 346 221 504 64 67 61 70 -15 15 l-45
-33 -14 52 c-7 29 -15 57 -17 63 -2 6 14 19 36 29 38 17 44 17 133 1 91 -17
95 -16 139 2 56 24 197 60 266 68 37 5 59 14 75 31 20 21 29 24 63 18 22 -3
43 -13 48 -21z"/>
<path d="M7245 7148 c-43 -23 -65 -52 -65 -83 0 -56 62 -95 152 -95 134 0 193
116 86 171 -42 21 -140 26 -173 7z"/>
<path d="M6859 7062 c-111 -137 -159 -257 -159 -397 0 -77 2 -86 16 -81 15 6
16 -4 12 -98 -6 -100 -5 -106 16 -120 12 -7 48 -37 79 -66 31 -29 57 -50 57
-47 0 3 -22 56 -48 119 -48 112 -49 118 -54 241 -7 163 8 253 61 361 22 44 49
96 61 114 36 53 9 36 -41 -26z"/>
<path d="M7701 6761 c-26 -26 -27 -51 0 -85 24 -31 74 -47 109 -34 48 18 53
54 13 98 -37 41 -92 51 -122 21z"/>
<path d="M2913 7241 c-80 -77 -82 -78 -145 -85 -34 -4 -124 -18 -198 -32 -329
-60 -625 -148 -816 -244 l-112 -56 -361 54 -361 53 -133 -80 c-72 -45 -138
-85 -146 -90 -11 -7 -10 -28 10 -122 17 -85 23 -150 23 -254 1 -202 -17 -263
-119 -399 -185 -246 -335 -592 -405 -933 -64 -307 -67 -674 -10 -1000 39 -221
21 -423 -46 -502 l-25 -31 57 -97 c76 -131 240 -375 333 -497 216 -287 425
-490 623 -608 l69 -41 72 17 c91 21 187 27 252 15 28 -5 115 -36 195 -68 264
-108 478 -173 707 -216 114 -21 129 -27 213 -79 l91 -56 257 21 257 22 71 69
c40 37 78 68 85 68 33 0 297 43 429 70 143 29 352 85 420 113 32 14 48 12 210
-19 96 -19 182 -34 190 -34 10 0 44 77 110 257 l95 258 104 100 c57 55 125
127 151 160 55 70 110 164 110 189 0 16 14 17 165 14 91 -2 165 -1 165 2 0 3
-24 83 -53 178 l-53 174 27 106 c46 181 70 348 76 514 l6 157 98 78 99 78 -5
75 c-2 41 -7 125 -10 185 -3 61 -8 140 -11 176 l-6 66 -129 61 -129 60 0 92
c0 429 -209 903 -528 1202 -52 48 -94 105 -182 243 -62 99 -118 186 -125 193
-9 10 -27 -1 -83 -49 l-73 -61 -137 61 c-291 128 -544 217 -674 236 -46 7 -48
9 -148 140 -115 151 -87 136 -290 155 -63 6 -128 12 -145 15 -26 4 -40 -5
-112 -74z m373 -114 c0 -1 44 -64 97 -139 l97 -137 58 -11 c569 -113 1246
-501 1473 -845 147 -222 251 -537 283 -855 l11 -115 130 -76 130 -77 3 -162 4
-163 -106 -106 -106 -106 -30 -122 c-112 -462 -297 -820 -603 -1172 -253 -291
-660 -577 -981 -690 -190 -67 -453 -122 -699 -146 -91 -9 -373 -10 -472 -1
-271 24 -579 100 -778 191 -86 40 -65 50 98 50 73 0 128 3 122 6 -44 24 -219
81 -307 100 -86 20 -134 24 -271 24 l-167 0 -21 70 c-28 90 -98 228 -162 321
-128 184 -371 437 -591 613 l-116 93 5 305 c4 223 3 304 -5 299 -6 -4 -26 -27
-44 -52 l-32 -46 -9 29 c-12 39 -18 473 -7 558 21 173 40 270 81 415 88 308
258 634 473 905 94 118 274 304 369 382 37 31 65 58 63 61 -12 12 -234 -131
-354 -228 -34 -27 -67 -51 -73 -53 -7 -1 -35 85 -69 211 l-57 213 56 26 c31
14 90 40 131 58 l75 33 325 -54 325 -55 65 30 c271 124 681 231 1084 282 l98
13 69 76 69 76 133 -14 c72 -8 132 -15 133 -15z"/>
<path d="M910 6708 c-58 -22 -108 -43 -112 -47 -6 -5 75 -275 87 -289 2 -2 88
43 192 100 104 57 233 121 286 143 53 22 97 42 97 45 0 3 -91 22 -202 43 -112
20 -212 39 -223 41 -11 2 -67 -14 -125 -36z"/>
<path d="M2315 6526 c-300 -47 -499 -205 -561 -446 -13 -53 -33 -86 -120 -202
-58 -76 -102 -138 -99 -138 4 0 62 44 131 98 112 87 124 100 124 128 0 52 37
157 78 220 91 140 282 269 472 320 36 10 69 21 75 26 11 10 1 9 -100 -6z"/>
<path d="M2345 6376 c-282 -55 -436 -240 -351 -423 46 -98 165 -181 316 -219
88 -22 254 -22 345 1 142 36 267 120 310 210 10 22 21 66 23 97 4 48 0 67 -22
113 -46 94 -161 174 -301 210 -85 22 -236 27 -320 11z"/>
<path d="M4233 6344 c-84 -37 -195 -72 -254 -79 -46 -6 -58 -12 -82 -43 -51
-66 -58 -154 -19 -226 l17 -31 5 80 c9 119 20 134 127 169 109 35 210 85 242
120 14 14 23 28 20 30 -2 2 -28 -7 -56 -20z"/>
<path d="M1000 6153 c-350 -369 -583 -820 -640 -1240 -13 -91 -9 -428 5 -485
l7 -27 48 24 47 24 -3 -47 c-2 -26 -8 -150 -14 -277 -6 -126 -13 -266 -16
-310 l-6 -80 69 -50 c121 -88 296 -240 383 -331 46 -49 81 -80 78 -69 -3 11
-83 200 -176 420 l-170 400 -6 300 c-3 165 -9 345 -12 399 -25 408 162 961
463 1374 29 39 49 72 44 72 -5 0 -51 -44 -101 -97z"/>
<path d="M4275 6218 c-24 -19 -27 -26 -22 -62 11 -78 107 -135 178 -106 38 16
52 43 45 84 -16 84 -137 135 -201 84z"/>
<path d="M1731 5589 c70 -137 252 -249 498 -305 133 -30 166 -30 78 1 -134 47
-328 158 -519 296 -37 27 -70 49 -73 49 -3 0 4 -19 16 -41z"/>
<path d="M1160 5409 c-43 -37 -126 -79 -156 -79 -13 0 -26 -4 -29 -10 -3 -6 4
-10 17 -10 42 0 120 -35 163 -72 24 -21 45 -38 47 -38 3 0 6 54 7 120 1 66 -1
120 -6 120 -4 -1 -24 -14 -43 -31z"/>
<path d="M3730 5211 c-44 -14 -87 -40 -125 -75 -48 -46 -103 -55 -180 -31 -31
10 -58 22 -61 26 -3 5 -12 9 -20 9 -10 0 -4 -16 19 -52 l33 -51 -24 -66 c-26
-72 -39 -196 -27 -257 7 -36 9 -32 30 74 26 126 58 201 95 219 14 7 54 25 90
41 36 16 81 43 100 59 66 57 97 68 197 68 50 0 89 3 87 7 -3 4 -28 14 -56 23
-55 16 -117 18 -158 6z"/>
<path d="M925 5132 c-90 -55 -166 -239 -166 -402 0 -167 67 -259 155 -213 58
30 110 106 145 210 27 80 33 121 33 208 0 169 -72 254 -167 197z"/>
<path d="M3839 5066 c-100 -27 -156 -104 -146 -201 23 -229 356 -373 509 -220
135 136 1 381 -233 425 -63 12 -72 12 -130 -4z"/>
<path d="M2106 4495 c-81 -28 -132 -66 -159 -118 -22 -44 -24 -119 -4 -168
l14 -34 0 55 c0 36 7 69 21 95 25 51 94 119 152 153 55 31 54 31 49 36 -3 3
-36 -6 -73 -19z"/>
<path d="M2268 4368 c-76 -20 -148 -106 -148 -178 0 -35 29 -97 57 -122 63
-58 190 -75 273 -37 56 25 77 44 101 91 76 148 -95 296 -283 246z"/>
<path d="M995 4269 c61 -41 128 -88 149 -104 l39 -30 -7 30 c-22 90 -115 155
-245 172 l-46 6 110 -74z"/>
<path d="M3937 3182 c-20 -38 -39 -87 -43 -109 -5 -36 -2 -49 31 -102 34 -55
37 -66 33 -115 -5 -61 -39 -116 -89 -145 -39 -21 -37 -32 4 -20 39 11 74 36
101 73 32 43 28 151 -8 236 -33 76 -32 140 3 209 12 22 17 41 12 41 -4 0 -25
-31 -44 -68z"/>
<path d="M3562 2964 c-117 -34 -135 -45 -181 -115 -52 -77 -55 -122 -12 -163
25 -24 128 -62 139 -51 2 2 -13 13 -35 23 -59 31 -83 58 -83 96 0 40 47 109
88 130 47 24 153 48 217 49 82 0 128 -17 169 -64 l34 -41 -9 42 c-5 23 -16 52
-25 65 -38 58 -163 70 -302 29z"/>
<path d="M3090 2868 c80 -41 160 -115 160 -149 0 -38 41 -100 87 -133 34 -24
55 -30 115 -34 72 -4 184 10 200 26 4 4 -18 5 -49 2 -158 -18 -266 29 -292
127 -25 93 -127 174 -241 188 l-45 6 65 -33z"/>
<path d="M7800 5220 c-32 -19 -148 -43 -210 -44 -36 -1 -71 -5 -77 -9 -7 -5
-13 -25 -13 -45 0 -23 -14 -65 -37 -111 -37 -73 -38 -76 -39 -190 0 -111 1
-118 29 -163 39 -65 103 -121 129 -114 11 2 37 -1 57 -9 118 -43 196 -56 217
-35 13 13 110 34 156 33 31 -1 37 3 43 25 3 14 20 41 36 59 16 19 29 39 29 45
0 6 9 8 21 5 18 -5 20 -2 16 21 -6 31 10 133 24 147 17 18 10 74 -11 85 -14 7
-20 21 -20 43 0 51 -103 218 -123 198 -10 -10 -118 28 -144 52 -21 18 -58 21
-83 7z m72 -28 c7 -11 37 -27 66 -36 113 -38 184 -110 198 -203 3 -24 10 -43
15 -43 5 0 15 -11 21 -25 9 -20 8 -28 -5 -43 -9 -10 -23 -38 -32 -62 -36 -103
-107 -184 -192 -222 -58 -26 -166 -34 -233 -18 -30 7 -47 16 -40 20 16 10 -12
20 -56 20 -23 0 -34 5 -34 15 0 8 -28 45 -62 82 -58 62 -58 69 0 19 28 -25 28
-19 -4 51 -23 51 -25 67 -21 140 4 67 10 92 36 139 25 47 29 60 18 73 -8 10
-9 13 0 8 6 -4 15 -2 20 5 13 21 52 37 151 62 50 12 95 26 99 29 12 13 42 7
55 -11z"/>
<path d="M6055 4466 c-11 -7 -56 -21 -100 -31 -43 -9 -89 -22 -102 -28 -27
-12 -33 -43 -5 -32 9 4 60 16 112 26 55 12 100 27 107 36 16 21 56 10 91 -25
16 -17 55 -37 97 -51 39 -12 102 -44 140 -69 60 -40 75 -56 103 -112 18 -36
35 -88 38 -115 5 -41 11 -54 33 -66 35 -21 39 -64 8 -98 -13 -14 -31 -53 -41
-86 -10 -33 -32 -85 -49 -115 -41 -73 -141 -171 -208 -204 -119 -58 -286 -70
-409 -30 -46 16 -51 19 -30 24 36 8 12 19 -58 26 -56 6 -60 8 -75 43 -17 38
-102 141 -117 141 -5 0 -11 -13 -14 -30 -3 -16 -9 -44 -12 -60 -5 -27 1 -37
55 -91 56 -55 65 -61 94 -56 29 5 133 -22 252 -66 39 -15 141 -13 160 3 21 17
149 44 219 45 l59 1 19 49 c11 27 35 66 54 87 19 21 34 43 34 48 0 6 16 10 35
10 34 0 35 1 28 28 -8 31 -8 42 2 134 5 46 14 73 26 84 14 12 19 31 19 65 0
44 -3 50 -30 64 -26 13 -30 21 -30 55 0 56 -35 141 -78 191 -21 24 -49 60 -62
79 -13 19 -25 37 -27 39 -1 2 -9 -2 -17 -8 -11 -9 -26 -7 -73 12 -32 13 -71
27 -87 31 -15 4 -39 20 -53 36 -28 33 -74 40 -108 16z"/>
<path d="M5898 4270 c-27 -21 -36 -53 -20 -76 25 -39 124 -46 166 -13 55 43
20 100 -67 107 -42 3 -57 0 -79 -18z"/>
<path d="M8510 3700 c-41 -23 -181 -52 -218 -45 -61 10 -82 -6 -82 -61 0 -30
-7 -56 -20 -74 -36 -51 -48 -104 -51 -223 -2 -114 -2 -115 30 -166 42 -64 98
-114 122 -108 10 3 60 -8 111 -24 94 -29 146 -36 164 -20 14 13 149 40 172 34
17 -4 23 1 28 21 9 37 70 111 91 111 12 0 17 6 15 20 -2 11 -4 22 -4 25 -3 24
17 112 28 121 16 13 8 69 -11 84 -8 6 -17 29 -21 50 -8 47 -36 106 -59 125 -9
7 -23 27 -31 43 -9 16 -21 26 -28 24 -19 -8 -137 37 -151 57 -13 17 -60 21
-85 6z m84 -35 c14 -14 32 -25 41 -25 26 0 128 -56 157 -87 27 -28 58 -100 58
-134 0 -10 9 -24 20 -31 23 -15 26 -50 6 -67 -7 -6 -19 -32 -26 -58 -8 -25
-31 -72 -52 -104 -65 -97 -169 -150 -292 -148 -54 0 -164 25 -126 28 29 2 -12
21 -47 21 -26 0 -35 7 -57 45 -15 24 -44 59 -66 76 -32 26 -40 38 -39 63 l2
31 4 -28 c4 -26 62 -91 72 -81 2 2 -6 26 -18 53 -16 38 -21 70 -21 138 0 78 4
95 30 147 23 45 28 62 19 70 -9 8 -10 8 -5 -1 3 -6 1 -15 -5 -19 -8 -4 -9 -3
-5 4 4 7 2 12 -3 12 -6 0 -11 8 -11 18 0 10 3 13 8 7 10 -15 23 -13 57 11 17
12 41 24 55 27 138 33 166 41 175 48 16 16 44 10 69 -16z"/>
<path d="M7419 2634 c-26 -27 -42 -33 -107 -43 -124 -20 -271 -59 -360 -98
l-83 -35 -150 21 -150 22 -60 -37 c-60 -36 -61 -37 -55 -73 26 -154 17 -211
-49 -307 -146 -212 -210 -483 -174 -734 20 -136 18 -239 -4 -273 -17 -27 -17
-27 38 -116 110 -177 252 -341 352 -404 39 -25 48 -26 116 -21 70 6 80 4 178
-34 122 -47 188 -67 271 -82 33 -6 78 -22 99 -36 38 -23 40 -24 146 -13 94 10
112 15 139 38 25 22 50 30 138 45 60 9 147 28 193 42 76 22 92 23 147 14 33
-6 68 -13 77 -16 12 -3 25 21 58 108 37 101 47 119 95 165 30 28 66 72 81 97
l27 46 64 0 c35 0 64 3 64 8 0 4 -9 36 -20 72 -20 65 -20 65 0 160 11 52 21
127 23 167 3 71 3 72 45 105 42 33 42 33 38 88 -3 30 -5 78 -6 105 l0 51 -55
27 c-42 20 -55 32 -56 49 -2 91 -31 220 -69 305 -36 78 -74 135 -137 198 -27
28 -73 87 -102 133 l-54 83 -26 -25 c-15 -14 -31 -26 -35 -26 -4 0 -42 15 -85
34 -71 31 -204 77 -261 90 -15 4 -40 27 -64 61 -25 35 -47 55 -60 56 -12 0
-47 4 -78 8 -56 7 -59 6 -89 -25z m111 -44 c37 0 42 -4 82 -60 35 -50 49 -62
83 -70 163 -40 344 -123 473 -219 149 -111 222 -245 253 -466 l12 -85 54 -30
53 -30 0 -72 c0 -72 0 -73 -43 -118 -37 -38 -47 -58 -66 -130 -47 -182 -138
-345 -271 -484 -212 -222 -438 -322 -750 -331 -167 -5 -286 13 -433 67 -47 17
-55 23 -42 31 9 5 34 7 55 5 55 -5 40 8 -36 32 -44 13 -94 20 -148 20 l-82 0
-23 55 c-13 30 -40 82 -62 116 -43 66 -202 229 -263 269 l-38 25 5 128 c4 78
2 127 -4 127 -5 0 -12 -7 -15 -15 -27 -70 -34 189 -8 313 46 225 167 441 334
595 84 77 62 78 -40 1 -40 -30 -73 -54 -75 -52 -6 8 -47 179 -44 181 2 2 27
13 54 25 l50 23 142 -24 c136 -23 142 -23 175 -6 77 40 284 94 434 114 41 5
59 14 85 41 18 19 40 32 47 29 8 -3 31 -5 52 -5z"/>
<path d="M6548 2403 l-36 -15 20 -61 c12 -34 22 -63 23 -65 1 -1 33 15 72 37
38 22 93 50 121 62 29 12 50 24 48 26 -8 8 -149 33 -181 32 -16 -1 -46 -8 -67
-16z"/>
<path d="M7150 2261 c-84 -26 -130 -73 -130 -134 0 -32 7 -46 38 -77 114 -114
392 -57 392 80 0 28 -22 65 -55 92 -48 40 -174 60 -245 39z"/>
<path d="M6576 2144 c-183 -214 -272 -448 -250 -651 6 -62 7 -64 31 -58 14 3
23 2 20 -2 -2 -4 -8 -71 -11 -148 l-7 -140 80 -64 c45 -35 95 -79 112 -98 16
-19 32 -34 34 -32 2 2 -29 81 -69 175 l-73 170 -6 187 c-7 201 3 295 43 412
27 77 81 185 131 258 22 31 35 57 30 57 -5 0 -35 -30 -65 -66z"/>
<path d="M6573 1737 c-53 -24 -91 -174 -59 -235 21 -40 47 -41 80 -2 55 66 66
214 18 239 -10 5 -26 4 -39 -2z"/>
<path d="M7776 1689 c-51 -40 -27 -127 44 -164 41 -21 113 -19 141 4 28 23 31
76 5 115 -41 64 -137 86 -190 45z"/>
<path d="M7125 1408 c-59 -34 -62 -104 -4 -133 79 -42 165 11 145 90 -11 45
-94 70 -141 43z"/>
</g>
</svg>
