<?xml version="1.0" standalone="no"?>
<!DOCTYPE svg PUBLIC "-//W3C//DTD SVG 20010904//EN"
 "http://www.w3.org/TR/2001/REC-SVG-20010904/DTD/svg10.dtd">
<svg version="1.0" xmlns="http://www.w3.org/2000/svg"
 width="900.000000pt" height="739.000000pt" viewBox="0 0 900.000000 739.000000"
 preserveAspectRatio="xMidYMid meet">
<metadata>
Created by potrace 1.16, written by Peter Selinger 2001-2019
</metadata>
<g transform="translate(0.000000,739.000000) scale(0.100000,-0.100000)"
fill="#000000" stroke="none">
<path d="M4270 6534 c-321 -24 -576 -73 -825 -157 -481 -164 -934 -460 -1256
-823 -291 -329 -498 -700 -612 -1098 l-35 -119 -133 -39 c-571 -166 -963 -361
-1200 -597 -89 -89 -112 -119 -148 -191 -67 -137 -76 -245 -31 -376 40 -117
133 -233 279 -350 57 -46 108 -84 111 -84 4 0 -23 31 -59 69 -75 78 -123 153
-157 246 -31 86 -29 231 5 317 117 298 544 583 1194 798 70 24 130 40 133 37
6 -6 -13 -154 -22 -168 -3 -5 -11 -9 -19 -9 -18 0 -30 -211 -22 -410 17 -412
129 -825 319 -1179 l51 -94 -29 7 c-58 14 -282 89 -394 133 -151 59 -361 166
-480 244 -114 75 -250 209 -304 299 -21 36 -35 56 -32 45 44 -131 231 -308
471 -443 376 -213 1065 -416 1720 -507 22 -3 51 -8 65 -10 14 -3 48 -7 75 -10
28 -3 61 -8 75 -10 24 -5 152 -19 270 -31 30 -3 69 -7 85 -9 17 -2 73 -7 125
-10 52 -4 111 -9 130 -10 281 -27 1452 -27 1665 0 17 2 71 7 120 10 50 4 104
8 120 10 17 2 62 7 100 10 39 3 81 8 95 10 14 2 52 6 85 10 33 3 74 8 90 10
97 14 254 37 275 40 14 2 57 9 95 15 141 22 424 82 600 127 452 114 833 267
1085 434 121 79 273 231 318 315 40 77 42 98 2 25 -141 -255 -510 -483 -1075
-664 -77 -24 -154 -48 -172 -51 l-31 -7 73 143 c211 411 305 799 306 1254 1
204 -8 314 -26 329 -11 10 -40 203 -38 255 2 38 -42 206 -91 343 -79 224 -172
408 -311 617 -116 174 -198 273 -355 431 -485 487 -1104 781 -1808 859 -98 11
-394 19 -472 14z m430 -126 c974 -94 1834 -676 2262 -1531 134 -269 219 -547
259 -852 21 -156 17 -581 -6 -690 -3 -11 -7 -38 -10 -60 -13 -91 -60 -278
-100 -400 -68 -205 -136 -350 -256 -552 -52 -85 -64 -94 -149 -108 -19 -3 -43
-8 -52 -11 -16 -5 -35 -9 -88 -19 -14 -3 -36 -7 -50 -10 -14 -3 -36 -7 -50
-10 -27 -5 -60 -12 -100 -20 -14 -2 -41 -7 -60 -10 -19 -3 -46 -8 -60 -10 -65
-11 -88 -14 -130 -20 -25 -3 -56 -8 -70 -10 -57 -9 -113 -16 -232 -30 -24 -3
-59 -7 -78 -10 -19 -2 -62 -7 -95 -10 -33 -3 -78 -8 -100 -10 -89 -9 -289 -24
-430 -30 -60 -3 -146 -8 -190 -11 -203 -13 -917 -7 -1175 11 -30 2 -98 7 -150
10 -297 20 -777 78 -986 119 -12 2 -39 7 -60 10 -37 6 -55 9 -114 22 -47 10
-175 35 -200 40 -14 3 -33 7 -42 10 -9 3 -27 7 -40 9 -127 25 -118 19 -180
124 -251 426 -376 877 -376 1356 1 583 191 1138 555 1618 108 143 371 403 518
513 437 327 929 519 1465 572 114 12 452 12 570 0z"/>
<path d="M2067 1981 c453 -566 1087 -945 1798 -1075 345 -64 714 -67 1065 -10
577 94 1122 363 1559 771 77 71 264 273 258 279 -1 1 -47 -6 -102 -16 l-100
-18 -101 -99 c-282 -276 -601 -483 -964 -626 -251 -99 -498 -157 -820 -192
-63 -7 -432 -8 -470 -1 -14 2 -57 7 -96 10 -39 4 -80 8 -91 11 -11 2 -38 6
-59 9 -22 4 -61 11 -89 16 -27 6 -59 12 -70 14 -303 59 -678 220 -972 416
-204 135 -346 257 -528 451 l-61 65 -97 21 -97 20 37 -46z"/>
</g>
</svg>
