<?xml version="1.0" standalone="no"?>
<!DOCTYPE svg PUBLIC "-//W3C//DTD SVG 20010904//EN"
 "http://www.w3.org/TR/2001/REC-SVG-20010904/DTD/svg10.dtd">
<svg version="1.0" xmlns="http://www.w3.org/2000/svg"
 width="900.000000pt" height="658.000000pt" viewBox="0 0 900.000000 658.000000"
 preserveAspectRatio="xMidYMid meet">
<metadata>
Created by potrace 1.16, written by Peter Selinger 2001-2019
</metadata>
<g transform="translate(0.000000,658.000000) scale(0.100000,-0.100000)"
fill="#000000" stroke="none">
<path d="M7540 5545 c-8 -2 -49 -9 -90 -15 -92 -15 -284 -79 -447 -150 -257
-110 -744 -369 -1058 -564 l-88 -54 -95 79 c-111 92 -260 193 -284 193 -9 0
-16 4 -15 10 3 12 -180 104 -305 153 -259 101 -622 159 -868 139 l-86 -7 33
-35 c91 -97 -22 -208 -253 -249 -141 -26 -356 -17 -480 20 l-91 26 -87 -51
c-180 -106 -379 -274 -514 -433 -69 -80 -86 -107 -60 -91 7 4 8 3 4 -5 -4 -6
-11 -9 -16 -6 -4 3 -24 -17 -44 -44 -37 -50 -45 -68 -24 -55 6 4 8 3 5 -3 -9
-15 -37 -10 -84 15 -65 34 -130 27 -182 -21 -30 -27 -71 -114 -70 -147 0 -17
4 -10 13 21 36 136 131 191 236 137 49 -25 54 -39 18 -50 -17 -4 -18 -6 -5 -7
16 -1 15 -5 -8 -43 -57 -92 -150 -292 -146 -312 1 -5 -2 -12 -6 -15 -5 -3 -14
-17 -20 -31 -11 -24 -12 -24 -37 30 -15 30 -23 44 -20 30 4 -14 15 -42 25 -62
12 -24 17 -47 13 -63 -5 -22 -3 -25 21 -25 16 0 42 -13 66 -33 55 -47 134 -69
168 -48 10 6 1 8 -25 4 -36 -5 -46 -1 -80 28 -21 19 -30 24 -20 11 28 -32 6
-27 -34 8 l-35 30 52 -5 c103 -10 203 -67 239 -137 76 -147 -153 -302 -377
-256 l-67 14 -12 -94 c-20 -150 -3 -396 41 -609 7 -35 16 -63 20 -63 4 0 13 7
20 17 34 40 150 68 188 44 8 -5 -4 -7 -31 -4 -74 9 -168 -35 -168 -76 0 -27
66 -220 107 -314 20 -45 59 -122 86 -172 28 -49 61 -110 74 -134 30 -56 124
-180 181 -240 122 -128 210 -213 263 -252 56 -42 70 -59 49 -59 -5 0 -69 -34
-142 -76 -449 -258 -819 -414 -990 -418 -87 -1 -109 11 -110 60 -4 139 191
404 623 849 l106 110 -51 108 -52 109 -134 -123 c-496 -452 -939 -926 -1121
-1198 -46 -69 -49 -78 -49 -135 l1 -61 25 48 c13 26 26 47 28 47 2 0 -7 -34
-20 -75 -42 -134 -27 -207 52 -245 44 -22 145 -29 210 -15 20 4 25 3 14 -3
-29 -19 -160 -42 -234 -42 l-76 0 0 -29 c0 -37 12 -41 104 -36 309 17 1007
348 1831 868 61 38 131 83 157 99 l47 29 98 -49 c352 -176 763 -257 1131 -223
145 13 334 49 447 85 l80 25 0 83 c0 63 6 94 22 130 32 70 106 143 182 181 62
30 72 32 177 32 107 0 113 -1 183 -36 l73 -36 120 116 c116 111 195 204 288
339 43 62 43 62 24 85 l-19 22 21 -18 c21 -18 22 -17 41 15 11 18 40 70 64
116 35 66 50 85 74 92 l30 10 -28 -4 c-18 -2 -26 1 -23 8 30 68 74 189 95 267
l27 96 -33 38 c-18 21 -33 34 -33 28 0 -6 -14 -16 -31 -22 -52 -18 -59 -15
-49 22 14 49 20 87 27 147 3 30 7 57 9 59 10 11 2 -101 -11 -154 -18 -74 -17
-93 1 -40 13 37 14 37 11 9 -2 -22 1 -31 10 -30 28 4 32 21 17 76 -27 104 -14
221 36 322 l28 57 -42 14 -41 14 -7 109 c-4 60 -14 145 -22 189 l-14 80 34 34
c19 18 37 31 40 28 9 -9 23 -76 40 -197 27 -192 17 -518 -21 -682 -3 -16 4
-33 24 -57 l29 -35 11 55 c59 271 55 649 -9 903 l-17 68 66 62 c963 894 1393
1475 1231 1660 -17 19 -45 39 -63 45 -36 11 -114 20 -137 16z m129 -80 c34
-17 41 -33 41 -88 0 -55 -22 -115 -72 -204 -47 -83 -61 -89 -28 -11 31 72 36
153 13 198 -30 58 -73 75 -185 75 -53 0 -95 2 -93 4 2 1 34 11 72 21 84 23
213 26 252 5z m-135 -96 c48 -22 57 -92 23 -185 -22 -61 -43 -99 -108 -198
-33 -48 -59 -90 -59 -92 0 -2 -8 -12 -17 -22 -10 -10 -48 -57 -84 -103 -62
-78 -135 -161 -248 -284 -54 -58 -101 -96 -56 -45 17 19 35 39 40 46 6 6 30
35 55 64 25 29 49 60 54 69 5 9 31 43 57 76 137 176 211 333 204 433 -4 46
-17 69 -53 97 -24 17 -42 20 -142 19 -94 -1 -129 -5 -195 -26 -139 -45 -267
-94 -369 -142 -55 -25 -101 -44 -104 -42 -4 5 289 150 416 205 86 38 324 119
385 130 63 13 173 13 201 0z m-2872 -104 c591 -78 1113 -405 1445 -905 65 -98
123 -205 168 -309 l36 -84 -33 -34 c-35 -36 -48 -41 -48 -18 0 17 -89 223 -99
229 -3 2 -6 -33 -7 -78 0 -73 -4 -91 -36 -159 -84 -176 -240 -277 -428 -277
-418 0 -627 505 -331 801 120 119 286 165 446 123 33 -8 71 -22 85 -31 42 -28
-51 77 -140 157 -48 43 -84 69 -91 64 -7 -4 -9 -3 -5 4 7 12 -37 49 -164 132
-294 192 -683 310 -1027 310 l-103 0 0 39 c0 29 -5 41 -17 44 -46 12 249 5
349 -8z m2611 -76 c80 -22 86 -92 18 -228 -44 -86 -129 -215 -195 -295 -181
-221 -254 -300 -484 -532 -180 -180 -232 -224 -232 -196 0 4 33 41 73 83 96
100 237 254 278 305 121 146 161 200 222 304 25 41 51 93 58 115 7 22 17 44
21 49 21 26 -1 126 -34 154 -8 7 -41 17 -72 23 -128 23 -376 -56 -728 -232
-76 -38 -145 -69 -153 -69 -38 0 -6 30 88 82 429 237 762 384 967 428 101 22
123 23 173 9z m-3855 -263 c-89 -50 -177 -112 -273 -190 l-68 -56 44 0 c67 0
151 -28 205 -69 58 -43 118 -129 133 -188 24 -94 6 -213 -44 -287 -14 -20 -24
-40 -22 -44 1 -4 0 -7 -3 -7 -3 0 -24 -15 -47 -32 -73 -59 -127 -77 -228 -76
-107 0 -160 20 -231 85 -62 57 -91 105 -110 181 -29 112 -6 211 74 319 42 56
186 199 264 262 26 21 46 42 43 46 -3 5 0 12 6 16 8 4 9 3 5 -4 -10 -16 0 -15
27 2 12 8 68 26 123 40 56 14 112 30 125 35 59 24 47 7 -23 -33z m1657 -16
c53 -26 111 -87 137 -147 88 -199 -57 -423 -276 -425 -209 -2 -360 210 -287
403 66 174 258 250 426 169z m1873 -9 c38 -20 33 -83 -13 -177 -67 -138 -240
-360 -462 -593 l-109 -115 -66 135 c-97 199 -244 412 -360 522 -64 60 -29 42
42 -22 l65 -59 160 80 c277 139 451 208 590 234 77 14 120 13 153 -5z m-1746
-1358 c20 -17 24 -59 8 -83 -7 -11 -8 -5 -4 18 12 58 -45 94 -88 55 -39 -35
-5 -101 46 -91 14 3 23 1 20 -3 -3 -5 -1 -9 5 -9 18 0 71 -62 71 -83 -1 -18
-3 -17 -14 9 -34 78 -126 99 -190 44 -56 -49 -60 -120 -10 -173 14 -15 39 -30
55 -34 16 -3 32 -9 34 -14 6 -9 -43 4 -73 20 -17 9 -21 8 -25 -7 -3 -12 -5
-10 -6 7 0 13 -12 43 -25 66 -67 113 -219 141 -316 58 -100 -86 -107 -219 -15
-310 23 -24 39 -43 35 -43 -12 0 -90 88 -90 102 -1 8 -7 5 -15 -6 -8 -11 -15
-15 -15 -10 0 6 4 14 9 19 14 15 -3 103 -26 133 -35 47 -81 72 -135 72 -60 0
-97 -18 -137 -67 -17 -21 -31 -34 -31 -29 0 4 11 21 25 38 14 16 25 40 25 52
0 33 -36 74 -73 85 -18 5 -24 10 -14 10 10 1 31 -6 46 -14 16 -8 32 -11 35 -7
4 3 4 -1 1 -10 -4 -9 -2 -19 4 -23 6 -3 11 -17 11 -31 0 -24 1 -24 25 -8 15
10 47 17 78 18 61 0 118 -29 146 -75 l18 -29 11 38 c46 152 247 204 365 94
l27 -26 0 25 c0 36 36 87 74 106 29 13 33 19 25 34 -35 65 48 132 103 82z
m-999 -552 c41 -11 94 -29 117 -41 22 -11 45 -18 51 -15 5 4 8 2 7 -3 -2 -5
17 -25 42 -43 52 -40 132 -136 162 -194 37 -71 57 -139 46 -153 -8 -9 -16 4
-32 51 -81 242 -316 404 -570 393 -146 -7 -285 -69 -388 -173 l-53 -54 0 -127
c1 -112 4 -136 27 -200 34 -95 80 -171 145 -242 65 -70 156 -135 178 -126 9 3
13 10 10 16 -4 6 -11 8 -16 5 -12 -8 -51 20 -42 29 4 4 -1 4 -12 0 -20 -7 -20
-7 0 17 11 13 13 18 5 12 -18 -17 -33 -17 -24 0 5 7 0 6 -11 -3 -11 -9 -16
-10 -11 -2 4 7 0 19 -8 28 -9 9 -14 19 -11 24 3 5 0 12 -6 16 -7 4 -9 3 -6 -2
3 -6 1 -16 -4 -24 -8 -11 -9 -7 -7 16 3 19 0 31 -8 31 -7 0 -10 -7 -7 -16 4
-14 3 -14 -5 -1 -6 8 -9 17 -6 21 2 4 -3 10 -12 13 -8 3 -13 10 -10 15 9 14
-5 42 -17 34 -5 -3 -7 -2 -4 3 3 6 2 16 -3 24 -5 9 -5 19 2 27 8 10 7 12 -6 7
-17 -7 -37 30 -28 54 2 7 -4 22 -14 34 -11 12 -14 18 -7 15 6 -4 14 -3 17 2 3
5 -1 12 -10 15 -14 5 -14 9 -3 23 10 12 10 14 2 9 -7 -4 -13 -2 -13 3 0 6 6
11 13 12 6 0 3 4 -8 9 l-20 9 20 0 c15 1 17 3 6 10 -9 6 -10 11 -2 15 6 4 11
13 11 19 0 7 -4 6 -10 -3 -8 -13 -10 -12 -10 3 0 9 6 17 13 18 10 0 10 2 0 6
-7 2 -13 11 -13 19 0 8 6 14 13 14 8 0 7 4 -3 10 -12 8 -12 10 5 10 17 0 17 2
5 10 -11 7 -11 10 -2 10 7 0 11 4 8 9 -3 5 1 14 9 21 8 7 12 17 8 24 -3 6 -3
8 2 4 5 -5 14 1 22 12 8 12 20 17 30 13 9 -4 14 -2 11 3 -3 5 1 16 10 24 14
13 15 12 8 -5 -4 -12 6 -6 24 15 17 19 29 29 25 23 -3 -7 -2 -13 3 -13 6 0 13
7 16 16 5 14 9 14 23 3 14 -12 16 -12 8 0 -6 11 -4 13 8 8 9 -3 19 -2 22 4 4
5 11 7 16 4 5 -3 6 0 3 8 -7 19 12 32 22 16 5 -8 3 -9 -6 -4 -9 6 -11 4 -6 -4
6 -9 13 -8 27 5 10 9 19 14 19 9 0 -4 6 -2 14 4 10 9 16 8 26 -4 11 -13 15
-13 29 -2 14 11 43 14 92 8 5 0 7 -7 3 -13 -5 -8 0 -7 11 2 17 14 18 13 12 -5
-6 -18 -5 -18 5 -3 11 15 13 15 26 0 7 -9 11 -12 8 -5 -4 7 1 10 11 9 9 -2 19
-8 21 -16 4 -10 6 -9 13 1 7 11 9 9 9 -6 0 -17 2 -17 10 -5 7 11 10 11 10 2 0
-8 5 -10 12 -6 8 5 9 2 4 -11 -6 -16 -4 -16 11 -4 15 12 16 12 10 -3 -4 -12
-2 -15 9 -11 8 3 21 -3 30 -13 14 -18 14 -18 8 1 -3 12 1 9 11 -7 18 -32 27
-36 19 -10 -5 16 -5 16 6 -1 6 -9 8 -21 5 -27 -3 -5 3 -7 14 -5 19 3 65 -38
54 -49 -4 -3 1 -6 11 -6 9 0 14 -5 11 -10 -4 -6 -11 -7 -17 -4 -7 4 -8 2 -4
-4 4 -6 13 -9 21 -6 15 6 51 -51 46 -75 -1 -8 2 -10 10 -5 7 4 10 3 6 -3 -4
-6 0 -16 8 -23 8 -7 15 -18 15 -24 0 -6 -5 -4 -10 4 -5 8 -10 10 -10 5 0 -6 4
-15 10 -21 12 -12 -338 -273 -565 -422 -38 -26 -72 -49 -75 -52 -3 -4 -53 -39
-112 -78 l-106 -71 -39 28 c-97 70 -189 210 -218 332 -17 75 -19 206 -4 281 6
29 29 91 51 138 57 118 150 211 269 269 48 23 106 46 130 50 81 16 211 12 292
-8z m2131 -353 c24 -34 20 -73 -10 -97 -15 -12 -35 -21 -46 -21 -27 0 -68 45
-68 75 0 59 91 90 124 43z m-1700 -380 c-51 -196 -200 -354 -399 -423 -51 -18
-287 -37 -278 -22 2 4 10 7 18 7 18 0 346 229 567 396 36 28 55 37 52 26 -3
-9 6 2 21 26 14 23 28 42 30 42 2 0 -3 -24 -11 -52z m-2096 -197 c-1 -5 -59
-67 -128 -138 -359 -367 -571 -662 -586 -813 -18 -175 172 -196 521 -59 154
61 455 211 673 335 101 58 186 103 189 100 8 -8 24 3 -187 -123 -500 -299
-852 -474 -1140 -568 -146 -48 -290 -60 -329 -28 -37 30 -31 97 19 201 100
210 334 491 743 895 188 185 236 228 225 198z m-649 -548 c-8 -10 -26 -31 -41
-48 -14 -16 -38 -43 -53 -60 -56 -64 -155 -193 -206 -270 -118 -179 -156 -314
-107 -385 84 -123 315 -84 791 134 42 19 77 33 77 30 0 -3 -82 -45 -182 -93
-425 -205 -698 -288 -827 -252 -13 3 -33 18 -44 33 -18 24 -19 32 -9 84 7 31
23 81 36 110 65 142 307 460 515 677 54 56 77 74 50 40z"/>
<path d="M5586 4540 c-57 -10 -104 -45 -159 -116 -62 -81 -81 -143 -81 -264
-1 -98 1 -109 31 -173 44 -92 83 -140 155 -189 54 -36 155 -74 166 -63 3 2
-16 9 -42 16 -25 6 -46 16 -46 21 0 5 -5 6 -12 2 -8 -5 -9 -2 -4 11 5 14 4 16
-7 7 -10 -9 -21 -6 -45 12 -18 12 -28 27 -24 31 4 5 2 5 -4 2 -14 -8 -56 36
-52 54 2 8 -3 13 -9 11 -7 -1 -13 5 -13 14 0 9 5 12 13 8 7 -4 9 -3 4 2 -5 5
-13 9 -18 9 -5 0 -9 2 -8 5 0 3 -7 23 -17 45 -21 51 -26 159 -10 227 16 66 64
160 79 151 6 -3 7 -1 3 5 -9 14 71 92 94 92 9 0 22 6 29 13 11 10 12 9 6 -3
-7 -12 -6 -13 6 -4 19 16 158 9 187 -9 6 -5 12 -5 12 -1 0 4 9 -1 20 -11 11
-10 20 -14 20 -10 0 5 5 4 12 -3 7 -7 20 -12 30 -12 25 0 132 -106 122 -121
-5 -8 -3 -9 6 -4 10 6 12 4 7 -9 -4 -9 -3 -15 2 -12 21 13 53 -96 53 -185 1
-77 3 -84 11 -25 19 142 -75 330 -207 413 -84 54 -213 80 -310 63z"/>
<path d="M5800 4403 c-62 -25 -99 -77 -102 -143 -1 -27 -6 -40 -15 -40 -22 0
-63 -47 -63 -73 0 -29 39 -67 69 -67 12 0 32 11 45 23 22 22 25 23 52 9 37
-19 103 -18 142 2 98 51 109 204 19 268 -30 22 -116 34 -147 21z"/>
<path d="M5925 3978 c-32 -38 -29 -81 11 -115 34 -31 70 -29 105 6 37 38 39
82 4 116 -36 37 -86 34 -120 -7z"/>
<path d="M3053 4650 c-50 -10 -112 -41 -135 -66 -38 -43 -61 -117 -62 -204 -1
-76 2 -92 30 -150 51 -107 132 -174 244 -203 66 -17 84 -16 131 7 108 51 181
165 183 283 1 103 -25 165 -98 239 -44 44 -75 65 -111 77 -65 22 -130 28 -182
17z m67 -69 c0 12 2 12 9 0 5 -8 11 -9 15 -3 8 13 29 10 52 -8 16 -13 17 -13
9 0 -8 13 -7 13 8 1 9 -7 17 -10 17 -6 0 4 11 0 25 -9 14 -9 25 -14 25 -10 0
4 7 1 15 -6 8 -7 12 -16 10 -21 -3 -4 4 -6 16 -4 12 2 19 2 15 -2 -3 -3 3 -13
15 -21 11 -8 18 -20 15 -28 -3 -8 -2 -13 2 -11 4 1 9 -2 11 -8 3 -5 13 -18 22
-29 10 -10 15 -24 13 -31 -3 -7 -1 -16 5 -20 6 -3 11 -11 11 -17 0 -6 -7 -5
-17 3 -17 13 -17 13 0 -7 20 -24 23 -64 5 -65 -9 0 -10 -2 -1 -5 23 -10 -22
-118 -45 -109 -12 4 -13 3 -3 -9 11 -13 5 -22 -29 -55 -24 -22 -47 -38 -51
-35 -5 3 -9 1 -9 -4 0 -33 -146 -37 -182 -6 -12 11 -18 13 -14 6 7 -11 4 -12
-13 -3 -11 7 -21 19 -21 29 0 15 -2 15 -10 2 -8 -12 -10 -12 -10 5 0 17 -2 18
-11 5 -9 -12 -10 -10 -6 8 5 20 3 22 -11 10 -9 -7 -13 -8 -9 -2 3 6 -5 21 -18
34 -19 18 -22 26 -13 37 9 11 8 13 -3 11 -9 -2 -15 7 -17 25 -2 15 -8 27 -13
27 -6 0 -8 4 -4 9 3 5 1 13 -5 16 -8 5 -7 12 2 23 10 13 10 14 0 8 -9 -6 -11
-1 -8 18 3 14 8 31 12 37 4 7 3 9 -3 6 -6 -4 -10 5 -9 22 1 16 5 26 10 23 5
-3 7 2 3 11 -4 10 -1 17 5 17 6 0 9 3 5 6 -3 4 2 14 11 23 10 9 12 12 5 7 -8
-5 -16 -6 -20 -2 -3 3 -2 6 4 6 5 0 15 12 21 26 7 14 16 23 21 20 5 -3 11 4
14 16 5 19 8 20 23 7 12 -9 15 -10 10 -1 -4 7 -1 12 8 12 9 0 16 6 16 13 0 9
2 9 9 -1 6 -10 10 -10 21 3 10 12 16 13 26 4 11 -9 14 -8 14 2z"/>
<path d="M4848 4906 c-61 -22 -84 -42 -108 -90 -61 -127 -20 -295 91 -376 44
-32 59 -37 59 -19 0 5 -4 7 -10 4 -5 -3 -10 -1 -10 4 0 6 -6 11 -14 11 -21 0
-58 51 -53 72 3 11 1 15 -6 11 -6 -4 -8 0 -4 10 3 10 3 17 -1 17 -10 0 -4 119
8 155 13 41 54 83 88 91 15 4 33 12 41 18 12 9 13 8 6 -4 -7 -13 -6 -13 7 -2
17 14 53 13 77 -2 11 -7 12 -6 6 5 -8 12 -6 12 8 0 9 -7 17 -11 17 -7 0 11 74
-31 109 -63 28 -25 35 -40 42 -88 l8 -58 -3 65 c-4 104 -55 183 -149 231 -53
28 -157 35 -209 15z"/>
</g>
</svg>
