<?xml version="1.0" standalone="no"?>
<!DOCTYPE svg PUBLIC "-//W3C//DTD SVG 20010904//EN"
 "http://www.w3.org/TR/2001/REC-SVG-20010904/DTD/svg10.dtd">
<svg version="1.0" xmlns="http://www.w3.org/2000/svg"
 width="890.000000pt" height="891.000000pt" viewBox="0 0 890.000000 891.000000"
 preserveAspectRatio="xMidYMid meet">
<metadata>
Created by potrace 1.16, written by Peter Selinger 2001-2019
</metadata>
<g transform="translate(0.000000,891.000000) scale(0.100000,-0.100000)"
fill="#000000" stroke="none">
<path d="M3736 7812 c5 -5 36 -29 69 -54 53 -40 131 -118 175 -177 14 -18 32
-20 295 -25 273 -6 328 -9 468 -25 37 -4 67 -5 67 -1 0 13 -262 32 -515 37
l-260 6 -85 80 c-82 76 -199 167 -216 167 -4 0 -4 -4 2 -8z"/>
<path d="M3390 7721 c-198 -70 -256 -94 -425 -178 -130 -65 -340 -186 -350
-202 -2 -5 -20 -80 -39 -166 -24 -111 -41 -167 -57 -189 -168 -224 -315 -446
-371 -560 l-31 -64 -95 -38 c-90 -36 -235 -112 -406 -212 -78 -45 -79 -47
-117 -127 -64 -139 -164 -402 -222 -583 -95 -293 -136 -516 -137 -730 l0 -124
67 -70 c38 -39 102 -99 144 -134 l76 -65 6 -139 c10 -218 43 -412 102 -597
l26 -82 92 -68 93 -68 27 -110 c15 -60 41 -155 58 -210 l31 -100 108 -107 c59
-58 126 -119 149 -134 35 -23 44 -36 60 -93 18 -59 42 -157 55 -222 24 -122
55 -292 59 -328 4 -39 14 -53 93 -133 76 -76 228 -214 299 -271 11 -9 45 -36
75 -60 78 -63 192 -134 286 -179 l80 -39 100 35 c117 41 308 91 382 100 45 6
53 4 58 -11 22 -67 81 -217 105 -264 l28 -56 128 -31 c159 -38 210 -48 343
-62 58 -7 116 -13 128 -15 13 -2 78 -5 144 -6 l120 -1 64 100 64 99 117 23
c461 89 1151 407 1449 666 l72 63 104 16 c68 11 159 15 270 14 189 -3 167 -10
305 98 339 263 589 653 699 1094 39 157 38 186 -18 299 -25 52 -67 128 -93
167 l-47 73 26 87 c15 49 43 144 64 213 l39 124 -40 115 -40 115 12 112 c12
111 12 112 -19 225 -17 63 -33 125 -36 138 -3 14 -7 28 -10 32 -2 4 0 57 7
116 6 59 11 115 11 123 0 8 4 55 9 104 8 87 7 90 -23 149 -37 74 -71 128 -116
184 -25 33 -39 67 -57 142 -14 55 -43 146 -65 203 -66 165 -202 404 -223 391
-6 -4 -8 0 -4 10 3 8 -1 21 -9 27 -10 9 -14 9 -14 1 0 -6 4 -11 10 -11 5 0 7
-7 3 -16 -5 -14 -8 -12 -19 7 -7 14 -9 28 -4 34 5 6 -8 32 -33 65 -22 29 -43
48 -45 42 -2 -7 -8 -9 -13 -6 -6 4 -6 10 0 18 7 8 -14 39 -71 104 -44 51 -83
90 -87 86 -3 -4 0 -9 7 -11 6 -3 10 -9 6 -14 -3 -5 -2 -8 3 -7 4 2 8 -1 8 -7
0 -5 -4 -9 -8 -7 -5 1 -6 -2 -2 -8 5 -8 11 -7 21 1 17 14 19 -2 2 -21 -11 -12
-10 -12 3 -2 13 10 19 9 27 -1 8 -9 8 -17 1 -24 -7 -7 -4 -14 8 -24 16 -13 17
-12 5 3 -7 9 -9 18 -5 21 11 7 33 -19 25 -29 -4 -4 -1 -4 7 1 9 5 12 3 9 -6
-3 -8 -12 -13 -19 -11 -9 2 -7 -4 5 -17 10 -11 23 -19 29 -18 6 1 11 -3 12 -8
0 -6 10 -24 23 -40 15 -20 19 -22 12 -7 -6 12 -7 22 -3 22 13 0 33 -39 24 -45
-5 -3 12 -38 39 -78 120 -182 219 -429 250 -622 17 -105 20 -116 30 -110 6 3
10 16 9 28 0 21 -1 21 -9 2 -6 -14 -8 -5 -5 29 2 31 0 44 -5 35 -7 -11 -9 -9
-9 6 0 49 -9 152 -16 170 -5 16 -5 17 4 5 16 -22 13 -3 -3 23 -9 14 -11 29 -6
42 l9 20 1 -20 c2 -11 2 -26 1 -34 -2 -8 3 -10 11 -5 7 4 10 4 6 0 -3 -4 0
-23 8 -43 8 -19 10 -32 5 -28 -14 8 -14 -25 0 -45 8 -12 9 -10 4 8 -3 12 -2
22 3 22 5 0 9 -6 10 -12 2 -27 13 -72 23 -91 8 -14 8 -18 0 -13 -16 10 -14 -9
2 -23 14 -11 16 -38 4 -58 -4 -6 0 -16 8 -23 8 -7 15 -9 15 -5 0 4 7 2 15 -5
10 -9 12 -17 6 -23 -10 -10 -3 -40 8 -32 4 2 8 -3 8 -12 0 -11 -8 -7 -24 13
-12 16 -23 34 -23 41 0 6 -5 15 -12 19 -8 5 -9 2 -5 -10 4 -10 3 -15 -3 -11
-6 3 -10 1 -10 -4 0 -6 4 -11 8 -11 5 0 30 -27 57 -59 27 -33 54 -57 60 -54 5
4 7 3 3 -2 -4 -4 2 -23 13 -42 18 -29 20 -43 15 -96 -12 -117 -23 -198 -29
-203 -2 -2 -18 0 -35 5 -47 14 -118 17 -112 6 3 -6 10 -9 15 -7 6 2 7 0 3 -3
-4 -4 -3 -16 3 -27 10 -19 11 -19 32 -1 22 18 22 18 4 -3 -9 -11 -16 -23 -15
-25 2 -3 -8 6 -21 20 -14 15 -28 25 -32 24 -4 -2 -6 6 -4 17 2 11 0 20 -6 20
-5 0 -9 -17 -9 -37 -1 -21 -3 -56 -6 -78 -25 -197 -37 -271 -44 -280 -4 -5 -8
-14 -8 -18 0 -5 -3 -11 -5 -14 -7 -7 -3 20 5 32 10 16 13 169 4 184 -6 9 -5
12 1 8 10 -6 10 34 -1 203 -3 51 -10 98 -15 103 -5 5 -7 15 -5 22 3 6 0 32 -6
56 -6 24 -11 52 -11 61 0 10 -4 20 -9 23 -5 3 -7 12 -4 19 3 8 1 17 -5 20 -6
4 -8 13 -5 20 3 8 0 17 -5 21 -6 3 -9 11 -6 16 4 5 3 15 -2 22 -4 6 -9 21 -10
31 -2 11 -8 25 -13 31 -5 7 -7 14 -4 18 3 3 0 16 -7 29 -7 12 -12 27 -11 31 1
5 -2 6 -7 3 -5 -3 -12 1 -15 10 -9 23 -8 26 7 18 6 -4 4 1 -5 12 -9 10 -17 22
-17 27 -1 4 -1 8 -2 10 0 1 -2 10 -4 20 -6 33 -14 30 -10 -5 2 -18 4 -33 5
-33 1 0 3 -11 6 -24 4 -20 2 -22 -11 -11 -8 7 -13 15 -11 19 3 4 0 13 -6 21
-8 13 -9 12 -5 -1 10 -31 -15 -41 -42 -16 l-26 22 20 -23 c22 -26 27 -49 14
-58 -8 -5 -13 10 -10 29 1 5 -3 6 -9 2 -5 -3 -10 1 -10 9 0 8 -4 18 -10 21
-15 9 0 -25 30 -70 39 -57 73 -128 104 -213 33 -91 34 -139 2 -62 -113 270
-291 466 -537 590 -80 41 -248 102 -259 95 -12 -8 -71 -133 -96 -207 -48 -142
-66 -237 -71 -383 -6 -163 5 -220 68 -354 53 -114 99 -181 188 -274 123 -129
231 -197 342 -218 55 -10 73 -9 122 5 31 9 73 31 93 48 29 26 37 29 46 17 8
-11 9 -10 4 5 -4 12 4 30 24 52 89 102 155 350 131 491 -6 32 -13 76 -17 98
-7 39 3 47 10 9 2 -11 8 -37 14 -59 5 -22 10 -62 11 -90 1 -27 5 -53 9 -57 5
-5 7 18 5 49 -1 32 2 72 7 88 8 26 9 24 4 -15 -3 -28 -2 -40 4 -32 6 9 10 -1
11 -30 7 -93 6 -150 -2 -155 -4 -3 -3 -11 4 -19 6 -8 8 -14 5 -14 -4 0 -2 -10
4 -22 11 -23 11 -23 -7 0 -17 21 -21 22 -32 9 -8 -10 -9 -17 -1 -22 5 -3 10
-1 10 6 0 7 6 4 14 -6 9 -13 11 -25 5 -36 -4 -9 -5 -19 -2 -23 4 -4 8 -14 9
-22 1 -9 -1 -13 -4 -9 -4 4 -7 11 -7 16 0 5 -4 8 -10 7 -5 -2 -8 -7 -6 -13 7
-19 8 -64 2 -62 -3 1 -6 -3 -6 -8 0 -6 3 -9 7 -8 8 3 5 -18 -5 -34 -5 -7 -5
-13 -1 -13 4 0 0 -8 -8 -17 -8 -10 -14 -30 -13 -46 1 -15 -4 -32 -11 -38 -8
-6 -12 -15 -9 -19 2 -4 -4 -15 -14 -24 -14 -13 -18 -14 -18 -2 0 8 3 14 6 13
3 -1 8 3 9 8 2 6 9 16 15 24 7 8 12 26 12 41 0 15 6 34 14 43 7 10 10 17 6 17
-4 0 -2 6 4 14 8 10 8 16 -2 25 -14 11 -27 6 -27 -11 0 -5 6 -6 13 -2 9 6 9 5
0 -7 -6 -8 -11 -16 -12 -19 0 -3 -3 -13 -7 -23 -5 -15 -9 -16 -15 -5 -6 9 -9
3 -9 -17 0 -23 3 -27 10 -15 8 12 9 10 7 -7 -2 -12 -7 -26 -12 -30 -4 -5 -5
-3 -1 4 3 6 1 15 -5 19 -8 5 -10 -1 -7 -19 3 -15 2 -25 -1 -22 -4 2 -13 -22
-20 -53 -7 -31 -28 -100 -46 -154 -18 -53 -30 -100 -27 -104 4 -4 2 -4 -5 0
-9 5 -4 29 17 90 37 106 67 223 90 346 10 52 19 80 19 62 1 -18 5 -31 9 -28
11 7 9 46 -3 66 -7 12 -6 13 7 3 15 -13 28 -8 28 9 0 5 -5 6 -12 2 -6 -4 -8
-3 -5 3 4 6 -1 17 -10 24 -15 12 -16 12 -10 -6 7 -20 7 -20 -8 -1 -15 19 -15
19 -15 -2 0 -32 -51 -182 -61 -182 -5 0 -8 -4 -6 -9 1 -5 -14 -31 -34 -58 -64
-86 -172 -125 -289 -103 -87 16 -160 42 -153 53 3 6 1 7 -5 3 -6 -4 -30 3 -52
14 -37 19 -40 23 -28 38 12 15 11 16 -4 4 -18 -14 -43 -7 -33 9 3 5 -1 6 -9 3
-9 -4 -41 20 -87 66 -41 39 -75 67 -77 61 -9 -28 -99 -136 -154 -186 -34 -30
-57 -55 -51 -55 6 0 60 21 120 47 59 25 113 46 118 46 6 0 47 -23 92 -51 79
-51 81 -53 86 -100 3 -26 2 -48 -1 -49 -4 -2 -5 -25 -4 -52 2 -26 -1 -64 -6
-84 -15 -54 -4 -52 37 7 69 103 85 116 133 116 24 0 50 -5 58 -10 13 -8 13
-12 1 -32 -13 -20 -12 -22 1 -11 9 8 18 9 26 3 9 -7 9 -7 2 2 -22 27 -11 38
40 38 33 0 50 -4 50 -12 0 -10 2 -10 8 0 6 9 12 6 20 -13 9 -19 9 -25 0 -25
-7 0 -3 -7 8 -16 13 -11 15 -17 6 -20 -6 -3 -10 -9 -7 -14 3 -4 -3 -14 -13
-21 -15 -13 -16 -12 -4 3 7 9 9 19 4 22 -10 6 -35 -39 -36 -66 -1 -9 -4 -20
-8 -24 -4 -3 -6 3 -3 14 2 12 -1 24 -6 27 -5 4 -7 10 -4 15 3 5 1 11 -5 15 -6
4 -8 11 -4 16 3 5 10 7 15 4 5 -4 9 -2 9 4 0 17 -17 21 -29 7 -11 -13 -11 -42
1 -61 8 -13 5 -72 -5 -79 -4 -3 -5 -3 -2 1 3 3 0 12 -6 20 -10 11 -15 11 -27
1 -13 -11 -14 -11 -7 1 11 19 13 81 3 87 -4 3 -8 2 -9 -3 -6 -64 -5 -100 3
-110 6 -7 5 -14 -2 -18 -6 -3 -7 -11 -4 -17 4 -7 2 -8 -5 -4 -8 6 -9 12 -2 20
6 7 8 16 4 19 -3 4 -12 -1 -19 -11 -9 -13 -10 -20 -1 -32 10 -13 10 -13 -4 -3
-19 15 -33 5 -18 -13 7 -8 6 -14 -2 -20 -7 -4 -9 -3 -6 3 4 6 1 16 -6 22 -15
12 -44 -13 -66 -57 -10 -18 -15 -21 -26 -12 -10 9 -16 7 -23 -7 -5 -10 -8 -26
-7 -36 3 -15 1 -16 -11 -6 -10 8 -11 15 -4 24 6 7 12 21 14 31 2 11 5 24 6 29
5 21 0 36 -10 30 -6 -4 -8 -11 -5 -16 4 -5 3 -15 -2 -21 -4 -7 -8 -17 -8 -23
-1 -5 -5 -18 -9 -28 -5 -11 -3 -24 5 -35 12 -15 12 -16 -2 -5 -12 10 -18 10
-28 0 -7 -7 -6 0 3 17 8 16 13 34 9 38 -6 11 -14 5 -17 -15 -1 -8 -7 -21 -13
-28 -5 -8 -10 -26 -9 -41 1 -14 -2 -24 -7 -21 -5 3 -7 14 -4 24 3 10 -1 23 -9
30 -11 9 -13 5 -9 -20 2 -17 -1 -34 -6 -37 -6 -3 -8 -12 -5 -20 3 -7 1 -16 -3
-19 -5 -2 -8 11 -6 30 1 19 -4 40 -11 45 -9 8 -11 2 -9 -30 2 -33 0 -38 -11
-29 -8 6 -12 15 -9 19 3 5 1 11 -4 14 -5 3 -11 -1 -15 -9 -3 -8 -1 -17 5 -21
6 -4 7 -10 0 -17 -5 -7 -9 -15 -8 -19 1 -3 -2 -10 -7 -15 -5 -4 -6 -3 -3 3 4
7 0 17 -8 24 -13 11 -15 10 -12 -6 1 -11 6 -25 10 -31 5 -7 5 -13 1 -13 -3 0
0 -8 7 -17 13 -16 12 -17 -3 -5 -10 8 -17 17 -16 20 0 4 -1 10 -2 15 -1 4 -3
10 -4 15 -8 31 -19 51 -27 46 -5 -3 -6 -11 -2 -17 10 -16 13 -41 5 -32 -4 4
-7 11 -7 16 0 5 -4 8 -10 7 -5 -2 -8 -7 -6 -13 2 -5 3 -18 3 -28 0 -11 4 -15
11 -11 7 4 9 4 5 -1 -4 -4 -2 -15 4 -24 8 -10 4 -9 -10 3 -12 11 -22 24 -21
30 3 24 -1 37 -10 31 -6 -3 -8 -14 -6 -25 2 -11 -1 -19 -8 -17 -6 1 -12 -4
-13 -10 -1 -7 -3 -15 -4 -18 -1 -3 -3 -9 -4 -14 0 -5 -5 -13 -11 -18 -6 -4 -7
-4 -3 1 4 5 3 15 -3 23 -6 7 -8 13 -5 13 4 0 2 9 -4 21 -9 16 -14 18 -26 9 -7
-7 -11 -17 -8 -22 4 -6 10 -5 16 3 8 11 9 10 5 -2 -3 -9 0 -23 6 -30 7 -8 0
-3 -15 10 -28 24 -39 17 -15 -9 10 -12 9 -12 -4 -2 -24 18 -44 -6 -24 -28 14
-15 14 -19 -2 -31 -16 -12 -17 -12 -5 2 10 13 9 19 -5 30 -15 12 -16 12 -10
-3 3 -10 2 -20 -4 -24 -6 -4 -5 -12 3 -22 12 -15 11 -16 -4 -3 -10 7 -15 18
-11 24 4 6 8 26 9 44 2 26 -1 31 -11 23 -7 -5 -11 -22 -9 -36 2 -24 1 -25 -15
-10 -15 14 -20 14 -29 3 -7 -8 -10 -16 -7 -19 3 -3 -3 -11 -12 -19 -16 -13
-17 -12 -5 3 9 12 10 18 2 23 -6 4 -9 13 -6 21 3 7 1 16 -4 19 -13 8 -18 -18
-8 -39 7 -13 7 -16 -1 -12 -14 9 -14 0 -1 -24 7 -13 7 -21 0 -25 -6 -4 -7 -12
-3 -18 3 -7 -3 -4 -15 7 -12 10 -19 22 -17 27 3 4 1 10 -4 13 -5 3 -11 -4 -15
-17 -6 -27 3 -69 15 -62 11 7 28 -26 22 -43 -3 -7 1 -11 8 -10 7 2 14 -4 14
-12 0 -8 6 -14 11 -13 6 1 11 -5 11 -14 0 -11 -14 -2 -38 25 -39 44 -69 115
-69 163 0 15 -5 31 -10 34 -6 4 -8 16 -4 27 4 15 3 18 -6 13 -7 -4 -10 -19 -6
-35 3 -15 2 -31 -1 -34 -7 -6 -11 -21 -17 -61 -2 -11 -4 -20 -5 -20 -2 0 -4
-11 -7 -24 -9 -49 -74 -125 -92 -107 -3 3 0 6 8 6 10 0 10 4 -1 18 -13 15 -12
16 3 4 11 -9 18 -10 23 -2 3 5 3 10 -1 10 -3 0 -1 7 6 15 7 8 16 12 21 9 13
-8 11 10 -3 26 -11 12 -10 12 5 0 18 -13 18 -12 14 18 -3 18 -2 30 3 27 16
-10 18 24 3 37 -15 11 -16 11 -10 -5 4 -11 3 -16 -3 -12 -9 5 -15 -15 -11 -37
0 -5 -4 -7 -11 -5 -7 1 -12 -8 -13 -20 0 -12 -7 -28 -15 -35 -12 -11 -12 -11
-4 2 9 13 11 36 4 43 -2 1 -4 16 -5 32 -3 33 -21 85 -30 85 -4 0 -4 -9 0 -19
3 -11 1 -22 -5 -26 -6 -3 -7 -11 -4 -17 4 -6 10 -5 15 3 6 9 8 2 5 -19 -2 -18
0 -35 5 -37 9 -6 4 -42 -9 -59 -5 -6 -8 -21 -6 -33 4 -27 -4 -28 -50 -9 -46
19 -73 58 -97 140 -31 105 -33 107 -39 36 -3 -36 -2 -72 1 -80 10 -23 22 -116
14 -108 -7 7 -13 32 -14 61 -1 10 -6 15 -11 12 -6 -4 -9 -3 -8 2 2 4 -2 9 -7
11 -6 1 -11 -7 -11 -18 -1 -11 -3 -23 -4 -27 -1 -5 -2 -11 -2 -15 1 -3 -6 -12
-16 -20 -15 -11 -16 -11 -5 3 10 12 10 18 0 28 -9 10 -9 12 3 9 8 -2 14 5 15
17 0 11 2 25 5 30 5 9 5 34 1 89 -2 37 -14 6 -17 -46 -4 -72 -6 -77 -18 -75
-6 1 -10 -5 -8 -13 3 -11 -2 -10 -17 4 -19 18 -26 15 -22 -8 1 -5 -5 -3 -14 4
-10 8 -13 20 -9 34 6 19 5 19 -10 7 -15 -12 -15 -16 -1 -37 11 -18 12 -25 2
-30 -6 -4 -9 -4 -5 1 4 4 -2 21 -13 36 -11 16 -18 33 -14 38 3 5 1 12 -4 15
-17 11 -20 -10 -6 -38 8 -14 10 -24 4 -20 -17 10 -28 48 -17 61 5 7 5 13 -1
17 -22 14 -25 -51 -3 -76 9 -12 9 -15 -3 -15 -8 0 -12 4 -9 8 2 4 0 10 -6 14
-5 3 -10 -1 -10 -9 0 -8 -5 -18 -12 -22 -7 -4 -8 -3 -4 5 10 15 -3 53 -15 45
-6 -3 -5 -12 3 -22 10 -14 10 -15 -2 -5 -11 10 -18 9 -34 -5 -17 -14 -18 -14
-8 -1 10 14 9 21 -8 40 -10 13 -19 19 -20 14 0 -6 5 -16 11 -22 8 -8 8 -16 0
-30 -10 -16 -11 -15 -5 7 6 21 5 23 -8 12 -8 -7 -14 -23 -13 -37 2 -14 0 -27
-4 -29 -4 -3 -7 9 -6 27 3 45 -12 72 -31 57 -7 -7 -11 -17 -8 -22 4 -6 10 -5
15 3 6 10 8 7 6 -8 -1 -21 -2 -21 -19 -6 -17 15 -22 12 -19 -12 1 -5 -7 0 -18
12 -10 12 -21 19 -24 16 -7 -6 24 -50 35 -49 4 1 14 -8 23 -19 13 -16 16 -17
11 -3 -3 10 0 20 7 24 7 4 9 4 5 -1 -9 -10 32 -86 42 -80 4 3 14 -2 21 -11 15
-18 19 -65 5 -57 -5 4 -7 0 -4 -9 4 -8 1 -15 -7 -15 -10 0 -11 6 -2 25 10 23
6 29 -60 92 -44 41 -75 64 -81 58 -11 -11 -10 31 1 49 4 6 3 14 -2 17 -5 3
-14 -8 -20 -24 -5 -17 -13 -30 -16 -30 -3 0 1 15 8 33 9 20 11 41 6 55 -12 32
-20 27 -14 -7 3 -17 0 -33 -5 -36 -6 -4 -8 -10 -5 -15 3 -5 1 -12 -5 -15 -8
-5 -7 -11 1 -21 6 -7 15 -11 20 -8 16 9 10 -3 -8 -17 -9 -8 -14 -9 -10 -3 4 7
1 17 -7 23 -15 12 -16 28 -3 48 4 6 3 14 -2 17 -10 6 -27 -32 -22 -49 1 -5 -7
-1 -18 9 -21 19 -30 9 -10 -11 8 -8 7 -13 -2 -18 -7 -5 -10 -4 -6 1 3 5 -3 20
-13 34 -16 21 -16 26 -4 45 13 20 12 24 -3 36 -15 12 -16 12 -10 -4 4 -10 1
-26 -5 -37 -9 -14 -9 -22 3 -37 12 -16 12 -17 -2 -6 -19 15 -33 5 -18 -13 7
-8 7 -14 -1 -19 -6 -4 -10 -3 -9 2 1 4 0 11 -1 16 -1 4 -3 12 -4 17 -1 13 -21
13 -21 1 0 -5 -4 -13 -8 -18 -5 -4 -7 -3 -6 2 2 6 -3 21 -10 33 -7 13 -10 26
-8 29 3 2 8 -5 12 -16 3 -12 11 -19 16 -16 5 3 1 18 -8 32 -16 23 -18 24 -30
7 -10 -14 -10 -21 -1 -33 7 -9 1 -6 -13 6 -24 22 -26 22 -44 5 -14 -12 -16
-13 -7 -1 6 9 9 19 5 22 -3 4 2 16 12 27 10 11 16 22 13 25 -3 3 -12 -3 -22
-14 -15 -16 -20 -30 -30 -79 -1 -7 -8 -18 -16 -25 -10 -10 -11 -9 -4 3 5 8 9
24 9 35 1 11 6 29 11 40 11 22 11 27 0 67 -5 16 -12 25 -17 22 -5 -3 -5 -12 0
-22 11 -22 9 -51 -6 -78 -7 -12 -9 -25 -5 -30 4 -5 0 -3 -7 3 -12 10 -18 10
-30 0 -14 -10 -14 -10 -3 5 8 10 9 19 3 22 -5 4 -13 2 -16 -4 -5 -8 -11 -8
-19 -1 -7 6 -16 8 -19 5 -7 -8 -1 32 7 45 3 5 -2 15 -11 22 -14 12 -15 11 -9
-8 4 -12 2 -24 -3 -27 -5 -4 -8 -15 -6 -26 2 -11 0 -22 -4 -25 -5 -2 -7 9 -6
25 1 17 -1 33 -6 36 -8 5 -13 -10 -10 -29 1 -5 -3 -6 -9 -2 -6 4 -7 12 0 24 6
12 5 22 -3 30 -8 8 -16 6 -32 -12 -11 -13 -16 -18 -12 -11 13 20 16 53 6 59
-8 6 -13 -9 -10 -29 1 -5 -5 -16 -12 -25 -8 -9 -13 -24 -12 -34 2 -9 -1 -14
-7 -11 -5 3 -7 8 -4 11 3 3 -6 22 -19 42 -15 26 -20 42 -14 52 6 10 9 11 10 2
4 -40 20 -74 30 -67 6 4 6 11 -1 19 -6 7 -10 17 -9 21 1 5 -1 17 -5 26 -5 11
-2 23 8 33 21 22 20 31 -4 31 -20 0 -27 -10 -12 -19 4 -2 1 -2 -7 0 -8 2 -11
-2 -7 -12 3 -9 2 -14 -3 -11 -5 3 -11 -2 -14 -12 -2 -9 -8 -26 -13 -36 -5 -13
-4 -17 4 -12 6 4 16 -3 22 -16 10 -21 10 -22 -3 -5 -9 11 -18 14 -21 8 -4 -5
-1 -13 4 -16 8 -5 7 -12 -3 -23 -8 -10 -13 -25 -12 -34 2 -10 -1 -20 -5 -23
-5 -3 -7 3 -5 14 2 11 -4 26 -13 33 -14 11 -15 11 -9 -5 4 -10 3 -16 -2 -13
-9 6 -38 -53 -33 -67 1 -5 -2 -6 -7 -3 -12 8 -23 -22 -14 -37 3 -7 2 -9 -2 -4
-11 9 -46 -43 -38 -56 3 -6 1 -7 -6 -3 -9 6 -9 13 2 29 8 12 33 57 57 100 32
59 45 75 55 67 9 -7 16 -6 24 4 9 10 8 16 -3 25 -11 9 -7 26 23 100 l36 89 85
26 c47 14 104 30 128 36 101 24 124 32 118 37 -3 3 -1 12 5 19 7 8 7 14 -1 19
-5 3 -10 11 -10 17 0 6 6 6 15 -2 15 -13 15 -38 0 -73 -6 -15 -10 -16 -16 -5
-7 10 -9 11 -9 0 0 -7 -5 -10 -10 -7 -6 3 -14 -5 -20 -19 -11 -30 -24 -35 -15
-6 5 16 2 19 -15 17 -12 -2 -26 -10 -31 -18 -7 -12 -9 -12 -9 1 0 9 -3 11 -8
5 -4 -5 -18 -11 -32 -12 -48 -4 -64 -10 -71 -29 -7 -18 -8 -18 -9 1 l-1 20 -9
-20 c-6 -13 -9 -15 -9 -5 -1 9 -4 11 -9 5 -4 -6 -14 -10 -22 -10 -23 2 -40
-15 -33 -32 5 -12 7 -12 14 -1 7 10 9 10 9 -2 0 -13 1 -13 10 0 9 13 10 13 10
0 0 -13 1 -13 10 0 9 13 10 13 10 0 0 -13 1 -13 10 0 9 13 10 13 10 0 0 -13 1
-13 10 0 9 13 10 13 10 0 0 -13 2 -13 11 0 9 13 10 13 6 -1 -3 -9 -1 -22 4
-30 7 -12 9 -12 9 1 0 13 1 13 10 0 9 -13 10 -13 10 0 0 8 9 2 20 -15 11 -16
20 -25 20 -18 0 6 -4 15 -10 18 -5 3 -10 11 -10 18 0 6 7 2 15 -9 13 -16 14
-16 9 -1 -4 10 -1 17 6 17 6 0 9 -4 5 -9 -3 -5 0 -13 6 -17 9 -5 10 0 7 14 -4
14 -2 20 4 15 7 -4 8 -1 3 7 -6 9 -4 11 5 5 9 -6 11 -4 5 6 -7 12 -6 12 6 0
11 -10 11 -15 2 -18 -7 -3 -13 -12 -13 -21 0 -15 2 -15 11 -2 8 12 9 9 4 -10
l-6 -25 16 25 16 25 -6 -25 c-5 -19 -4 -22 4 -10 10 13 11 13 11 0 0 -13 1
-13 10 0 9 13 10 13 10 0 0 -12 2 -13 9 -1 6 10 11 6 19 -15 8 -23 11 -25 12
-9 l1 20 10 -20 c8 -16 8 -14 5 10 l-5 30 15 -30 c11 -22 14 -24 10 -7 -2 12
0 20 5 16 5 -3 9 -13 10 -22 0 -14 2 -13 9 3 l9 20 1 -20 1 -20 9 20 9 20 1
-20 1 -20 9 20 9 20 1 -20 1 -20 9 20 9 20 1 -20 1 -20 9 20 9 20 1 -20 1 -20
10 20 c9 19 9 18 5 -2 -5 -29 2 -29 15 0 9 21 9 21 5 0 -3 -17 0 -21 15 -18
13 3 17 0 12 -8 -4 -7 2 -5 12 3 10 8 16 10 13 5 -4 -7 23 -10 77 -10 54 0 81
3 77 10 -3 5 3 3 13 -5 10 -8 16 -10 12 -4 -4 7 13 10 52 9 56 -1 57 -1 55 25
-1 17 3 27 12 27 7 0 10 -5 7 -10 -3 -6 -1 -7 5 -4 6 5 8 -1 4 -15 -3 -14 -2
-19 7 -14 6 4 9 12 6 17 -4 5 -1 9 5 9 7 0 10 -7 6 -17 -6 -17 -5 -17 7 -1 12
15 14 15 24 0 10 -14 11 -13 7 8 -4 24 -4 24 5 3 13 -29 20 -29 15 0 l-5 22
10 -22 c13 -29 20 -29 15 0 -4 20 -4 20 4 2 7 -16 10 -17 14 -5 3 10 4 9 2 -3
-1 -10 2 -14 8 -10 7 4 8 1 3 -7 -5 -8 -4 -11 1 -7 6 3 9 -14 8 -43 -2 -27 1
-52 5 -54 4 -3 7 29 7 71 0 46 -3 69 -7 57 -7 -15 -8 -13 -6 8 2 15 7 31 12
35 4 5 4 1 0 -7 -8 -13 -7 -13 10 0 17 13 18 13 10 0 -8 -13 -7 -13 10 0 17
13 18 13 10 0 -8 -13 -7 -13 10 0 15 12 17 12 10 1 -6 -10 -4 -12 5 -6 9 6 11
4 5 -6 -7 -11 -5 -11 10 1 17 13 18 13 10 0 -8 -13 -7 -13 10 0 17 13 18 13
10 0 -8 -13 -7 -13 10 0 17 13 18 13 10 0 -5 -9 -5 -12 1 -7 5 5 10 13 10 18
1 5 2 12 3 15 0 4 9 0 18 -7 9 -8 14 -9 10 -3 -4 7 4 10 21 9 15 -1 33 3 41 9
11 8 13 8 8 0 -3 -6 0 -11 8 -11 8 0 11 5 8 11 -4 6 1 5 10 -2 14 -12 16 -11
12 8 -4 19 -2 20 12 8 14 -11 16 -11 8 1 -6 10 -4 12 5 6 9 -6 11 -4 5 6 -7
11 -5 11 10 -1 10 -8 16 -10 12 -4 -4 7 2 11 16 10 17 -1 22 4 21 22 -1 19 1
20 14 10 13 -11 14 -11 7 2 -8 13 -7 13 10 0 17 -13 18 -13 10 0 -8 13 -7 13
10 0 15 -12 17 -12 10 -1 -6 10 -4 12 5 6 9 -6 11 -4 5 5 -6 9 -4 11 5 5 9 -6
11 -4 5 6 -7 11 -5 11 10 -1 17 -13 18 -13 10 0 -8 13 -7 13 10 0 12 -9 16
-10 11 -2 -5 8 -3 11 5 10 7 -2 16 8 20 22 l7 25 2 -25 2 -25 8 25 8 25 1 -24
c1 -31 10 -23 13 12 2 21 5 24 17 14 12 -10 13 -9 6 3 -8 13 -7 13 10 0 10 -8
16 -10 12 -4 -4 8 3 11 22 9 24 -2 28 1 25 19 -4 20 -4 20 5 1 l10 -20 1 20 1
20 9 -20 c8 -17 9 -18 11 -2 3 33 4 35 13 44 6 5 6 2 1 -7 -7 -12 -6 -13 6 -4
8 6 22 10 31 9 12 -2 15 3 13 17 -4 17 -2 18 12 6 13 -10 15 -10 9 0 -5 8 -3
11 6 10 8 -2 12 6 11 22 -3 25 -3 25 7 3 5 -13 11 -23 14 -23 2 0 2 10 0 23
-4 20 -4 21 5 2 l10 -20 1 20 1 20 9 -20 c8 -17 9 -18 11 -2 1 9 3 22 4 27 1
6 4 20 5 33 2 21 2 21 10 -3 l8 -25 2 25 2 25 8 -25 8 -25 2 25 2 25 8 -25 c8
-24 8 -24 10 -2 4 38 5 40 14 49 6 5 6 2 1 -7 -8 -13 -6 -13 7 -2 10 8 14 21
11 30 -4 13 -2 12 11 -3 10 -13 15 -15 13 -5 -2 8 -2 11 1 7 2 -4 10 0 18 10
13 17 14 17 8 -2 -4 -15 -3 -17 4 -6 5 7 8 28 6 45 -3 25 -2 27 5 11 l10 -20
1 20 1 20 9 -20 9 -20 1 20 1 20 10 -20 c7 -16 8 -14 4 10 -4 23 -3 26 5 15 8
-11 9 -8 5 15 l-6 30 15 -30 15 -30 -5 30 c-4 26 -3 27 6 10 10 -19 10 -19 6
3 -2 12 -2 22 0 22 3 0 9 -10 15 -22 l10 -23 -5 23 c-2 12 -1 20 3 17 4 -2 8
2 8 10 0 8 -5 11 -11 8 -6 -4 -2 3 8 15 23 26 34 29 15 5 -12 -17 -12 -17 6
-1 24 22 15 31 -34 33 -34 2 -45 -4 -73 -32 -17 -18 -29 -33 -25 -33 4 0 2 -6
-5 -14 -7 -8 -16 -12 -21 -9 -4 2 -7 1 -6 -4 3 -20 -2 -34 -11 -28 -7 4 -7 -3
0 -20 7 -19 7 -24 -2 -19 -6 4 -8 3 -4 -4 3 -6 1 -14 -5 -18 -8 -5 -9 -3 -4 7
7 11 5 11 -10 -1 -15 -12 -17 -12 -10 -1 6 10 4 12 -5 6 -9 -6 -11 -4 -5 5 6
9 4 11 -5 5 -9 -6 -11 -4 -5 5 6 9 4 11 -6 5 -11 -6 -11 -5 -3 4 7 7 9 29 7
48 -3 19 -1 33 4 30 5 -3 9 6 10 21 l2 27 -10 -24 c-12 -30 -19 -24 -12 11 3
17 10 25 17 21 7 -4 7 -1 -1 8 -10 12 -9 20 4 39 9 13 12 20 6 17 -12 -8 -46
26 -37 36 4 4 12 0 18 -9 10 -13 12 -13 12 4 0 11 -5 19 -11 18 -19 -3 -35
-17 -30 -26 3 -5 1 -11 -5 -15 -5 -3 -10 2 -11 12 0 11 -3 13 -6 5 -3 -7 0
-18 5 -25 6 -7 8 -17 4 -23 -9 -13 -33 -12 -29 1 1 5 6 9 10 7 5 -1 6 2 2 8
-5 8 -12 7 -23 -2 -13 -11 -15 -10 -9 4 3 10 3 19 -1 22 -17 10 -10 -33 8 -49
17 -16 17 -60 -1 -50 -4 3 -6 11 -3 18 2 7 -4 21 -15 31 -11 10 -18 23 -14 29
4 6 1 7 -6 2 -9 -5 -7 -13 8 -29 33 -35 24 -43 -11 -10 l-33 29 28 -31 c15
-17 25 -33 21 -36 -3 -4 -18 7 -33 24 -19 22 -28 26 -28 15 0 -9 4 -14 8 -11
11 7 37 -35 34 -54 -2 -9 -4 -21 -4 -26 -2 -21 -16 8 -16 31 0 26 -29 42 -40
23 -3 -5 4 -7 15 -5 14 3 20 0 17 -8 -5 -15 -27 -17 -45 -4 -10 8 -10 13 0 25
13 15 20 104 8 97 -4 -2 -6 -21 -5 -42 1 -22 -5 -46 -14 -57 -9 -10 -16 -21
-16 -25 0 -3 -4 -5 -10 -3 -5 2 -7 0 -3 -4 4 -4 3 -13 -3 -20 -6 -8 -7 -14 0
-18 6 -4 8 -13 5 -21 -4 -8 -10 -12 -15 -9 -5 3 -7 9 -4 14 3 5 1 11 -5 15 -6
4 -7 12 -3 18 11 18 12 36 3 42 -5 3 -7 -3 -5 -15 2 -11 -1 -22 -6 -26 -6 -3
-6 -11 -1 -17 9 -13 9 -24 -3 -50 -6 -15 -10 -16 -16 -5 -12 18 -11 31 0 23
11 -6 6 34 -5 44 -4 3 -5 -1 -1 -10 3 -9 0 -22 -6 -28 -8 -8 -5 -19 11 -40 11
-16 18 -32 15 -35 -4 -3 -15 6 -25 21 -10 16 -18 23 -18 18 0 -6 5 -16 10 -21
15 -15 21 -52 9 -59 -8 -6 -13 8 -10 28 1 4 -5 18 -14 29 -11 16 -12 25 -3 35
6 7 7 13 3 13 -4 0 -2 7 5 16 11 12 11 15 0 12 -8 -2 -14 5 -14 17 0 11 6 19
13 17 7 -1 10 2 6 8 -10 16 -34 -7 -30 -28 2 -9 4 -17 5 -17 7 0 6 -36 0 -40
-5 -3 -6 -13 -3 -23 6 -15 5 -16 -13 -2 -13 10 -15 10 -7 0 9 -10 9 -18 1 -34
-6 -12 -11 -22 -10 -23 1 -2 2 -6 2 -10 0 -5 -4 -1 -10 7 -5 9 -5 19 1 27 7 7
7 19 1 30 -5 10 -8 31 -7 46 1 15 -2 30 -7 33 -4 3 -5 10 -2 16 4 7 2 8 -5 4
-6 -4 -8 -13 -4 -19 4 -7 8 -25 9 -42 1 -16 5 -38 8 -47 10 -22 -16 -18 -46 7
l-23 20 23 -26 c21 -24 22 -27 5 -40 -15 -12 -16 -12 -10 3 3 10 -1 22 -11 30
-15 11 -15 11 -5 -3 7 -9 10 -19 6 -22 -3 -4 -1 -13 6 -21 17 -21 -1 -102 -21
-90 -5 3 -4 11 2 19 7 8 9 19 6 24 -4 5 -2 13 4 16 8 5 8 11 0 20 -6 7 -13 23
-15 35 -2 13 -11 30 -20 40 -8 9 -12 20 -8 25 5 4 2 5 -5 1 -11 -6 -10 -11 3
-26 9 -10 18 -30 21 -46 4 -28 3 -28 -11 -10 -8 11 -15 15 -15 9 0 -7 5 -15
10 -18 6 -4 8 -11 4 -16 -9 -15 -33 22 -27 41 4 13 3 13 -5 1 -8 -11 -6 -21 4
-35 17 -25 18 -37 2 -33 -7 1 -12 -4 -13 -10 0 -7 -3 -13 -7 -13 -5 0 -11 0
-14 0 -4 0 0 10 9 23 13 20 13 25 0 42 -13 19 -14 19 -10 -6 3 -14 1 -32 -4
-40 -7 -12 -9 -12 -10 1 -1 8 -1 20 1 25 1 6 -15 -6 -34 -24 -41 -40 -49 -31
-10 10 20 21 23 29 12 35 -7 4 -10 3 -5 -1 4 -5 -4 -21 -19 -36 -23 -24 -24
-29 -12 -48 11 -18 10 -23 -5 -38 -9 -10 -17 -12 -17 -6 0 7 5 15 10 18 7 4 5
14 -5 28 -13 19 -13 23 7 44 19 20 38 66 20 48 -4 -4 -8 -11 -8 -16 -1 -5 -2
-12 -3 -16 0 -3 -10 2 -21 12 l-20 18 20 22 c16 17 17 22 6 22 -8 0 -13 -4
-11 -8 3 -3 -2 -12 -10 -19 -14 -12 -13 -16 5 -35 18 -19 19 -23 5 -35 -8 -7
-12 -17 -8 -23 9 -15 11 -77 1 -83 -8 -5 -9 0 -12 53 0 12 -5 25 -9 29 -4 5
-5 1 -2 -7 4 -12 0 -15 -17 -14 -13 1 -21 6 -18 11 3 5 9 8 15 6 5 -2 7 0 3 3
-4 4 -3 17 3 29 9 19 8 19 -7 -2 -16 -22 -18 -22 -38 -5 -20 17 -20 17 -6 -1
20 -25 21 -43 4 -57 -13 -10 -14 -8 -10 14 2 15 1 29 -3 31 -10 6 -8 -50 2
-60 4 -4 7 -12 7 -18 -1 -6 -10 0 -21 14 -12 14 -20 18 -19 10 4 -26 0 -41 -8
-36 -12 7 -7 61 5 59 5 -1 10 5 10 13 0 11 -6 9 -23 -7 -22 -21 -25 -34 -11
-56 4 -6 3 -14 -2 -17 -5 -4 -11 -3 -14 1 -2 5 -2 3 -1 -4 2 -7 -1 -15 -6 -18
-10 -6 -15 10 -10 30 2 6 4 18 4 27 1 10 11 27 21 38 22 25 28 87 9 87 -7 0
-10 -5 -6 -11 10 -16 10 -49 -1 -64 -12 -15 -41 4 -30 21 4 6 1 7 -6 3 -9 -6
-9 -12 3 -25 15 -16 13 -20 -14 -46 -17 -16 -28 -35 -26 -42 3 -7 1 -15 -3
-18 -5 -3 -11 2 -15 10 -3 9 7 30 25 49 18 21 26 37 19 41 -6 4 -10 3 -9 -2 4
-20 -2 -27 -12 -13 -9 13 -10 12 -5 -2 5 -17 -9 -35 -17 -21 -2 5 -3 3 -1 -3
1 -6 -2 -17 -7 -25 -7 -12 -9 -12 -9 0 0 8 -3 11 -6 8 -4 -4 -1 -13 5 -21 18
-22 22 -73 6 -73 -8 0 -12 10 -10 26 1 14 -2 31 -7 37 -5 7 -11 22 -13 34 -2
13 -7 25 -11 29 -3 3 -4 -1 -3 -9 2 -8 -1 -16 -6 -17 -12 -4 -14 18 -3 34 5 6
5 14 -2 18 -6 3 -7 11 -4 17 4 7 2 8 -5 4 -9 -6 -9 -11 -1 -21 7 -8 7 -15 1
-19 -10 -7 -9 -31 2 -42 3 -4 1 -16 -5 -28 -6 -11 -11 -22 -10 -23 1 -2 2 -6
2 -10 0 -5 -4 -1 -10 7 -5 9 -5 19 2 27 7 9 7 17 0 26 -13 15 -13 29 -1 44 7
7 6 14 -1 18 -6 4 -10 3 -9 -2 1 -4 0 -10 -1 -13 -7 -19 -7 -41 1 -46 5 -3 9
-10 9 -16 0 -6 -9 -3 -19 6 -20 18 -21 31 -6 56 7 13 6 13 -7 2 -16 -13 -18
-35 -5 -48 4 -4 0 -18 -8 -30 -8 -13 -12 -31 -8 -41 6 -16 5 -16 -10 -4 -16
13 -16 16 -1 38 8 14 13 27 10 31 -3 3 -6 0 -6 -7 0 -7 -5 -9 -11 -5 -8 4 -8
9 0 17 6 6 11 15 11 21 0 5 -6 1 -14 -10 -9 -11 -11 -23 -5 -30 5 -6 3 -19 -6
-31 -9 -12 -12 -29 -8 -40 6 -16 5 -16 -10 -4 -16 13 -16 16 -2 38 12 17 13
28 6 37 -7 9 -7 16 1 24 7 7 13 19 14 28 1 9 -1 13 -4 9 -4 -4 -7 -11 -7 -16
0 -5 -4 -8 -10 -7 -5 2 -9 7 -7 11 1 5 -2 6 -8 2 -8 -5 -7 -11 1 -21 6 -8 8
-14 3 -14 -4 0 -3 -5 4 -12 19 -19 14 -32 -5 -17 -16 12 -17 12 -6 -1 7 -9 8
-21 4 -29 -12 -19 -19 -2 -16 37 3 34 -8 51 -21 31 -5 -8 -3 -9 6 -4 10 6 12
4 7 -9 -4 -10 -7 -22 -7 -27 0 -6 -5 -7 -10 -4 -6 4 -8 10 -5 15 3 5 1 12 -5
15 -8 5 -7 11 1 21 6 8 8 14 4 14 -4 0 -2 6 4 13 8 10 7 14 -3 14 -7 0 -13
-10 -12 -21 1 -14 -4 -20 -14 -18 -11 3 -10 -2 4 -17 11 -12 16 -21 11 -21 -4
0 -2 -6 4 -14 7 -9 8 -17 2 -20 -5 -3 -11 -3 -14 1 -2 5 -2 3 -1 -4 4 -17 -13
-26 -19 -11 -2 7 0 21 4 30 7 12 3 27 -12 50 -12 18 -18 24 -14 13 11 -34 11
-39 -5 -40 -9 0 -15 -10 -15 -27 -1 -27 -14 -52 -16 -30 -1 7 -2 18 -3 25 -1
6 1 19 6 28 5 11 2 21 -10 30 -15 12 -15 12 -5 -1 8 -10 9 -21 3 -30 -6 -8
-10 -13 -11 -10 0 3 -2 13 -5 23 -2 9 -5 24 -7 32 -2 8 -6 18 -10 21 -4 4 -1
14 6 23 11 14 10 14 -5 2 -10 -7 -15 -18 -11 -25 4 -6 8 -15 9 -21 1 -5 3 -14
5 -20 2 -5 -1 -10 -6 -10 -6 0 -9 4 -7 8 1 5 -2 6 -8 2 -7 -5 -8 -11 -1 -19 6
-6 8 -25 6 -41 -5 -42 -5 -42 -14 -20 -5 11 -5 25 -2 30 4 6 -1 26 -12 45 -13
25 -17 28 -12 10 11 -40 10 -179 -1 -167 -9 9 -11 68 -2 73 4 3 4 15 -1 27 -4
12 -7 28 -5 35 1 7 0 8 -3 2 -2 -5 -9 -8 -14 -4 -5 3 -6 11 -2 17 11 18 12 36
3 42 -5 3 -7 -3 -5 -12 1 -10 -3 -25 -11 -33 -7 -9 -11 -24 -10 -35 2 -11 -1
-26 -6 -32 -11 -14 -28 -8 -28 8 0 6 4 8 9 5 5 -4 8 2 6 11 -1 10 2 27 8 38
12 22 17 84 7 90 -3 2 -6 -13 -5 -33 1 -39 -13 -74 -27 -66 -5 3 -5 11 -1 17
9 15 16 53 7 45 -5 -5 -7 -14 -13 -48 -1 -3 -5 2 -11 10 -5 9 -5 19 1 26 7 8
7 14 0 18 -5 4 -8 15 -6 25 2 10 -3 18 -11 18 -10 0 -11 -4 -3 -14 6 -7 8 -13
3 -13 -4 0 -3 -5 4 -12 9 -9 8 -16 -6 -32 -10 -12 -12 -16 -3 -11 11 6 13 4 8
-8 -4 -10 -2 -16 5 -14 6 1 12 -9 13 -23 1 -14 4 -29 5 -35 1 -5 2 -19 1 -30
-1 -16 -3 -17 -10 -6 -5 8 -7 20 -4 27 2 6 0 15 -6 18 -6 4 -9 12 -7 19 1 7 1
9 -1 4 -8 -12 -22 3 -17 17 3 8 0 17 -6 21 -8 5 -6 13 7 28 10 11 13 17 6 14
-15 -9 -27 9 -13 18 7 4 7 11 2 18 -5 7 -8 20 -7 29 2 10 0 20 -4 23 -10 5 -8
-41 2 -51 4 -4 2 -13 -4 -20 -7 -8 -7 -14 1 -19 8 -5 7 -11 -2 -22 -7 -9 -14
-26 -14 -37 -3 -42 -4 -47 -12 -42 -12 7 -6 64 8 80 8 10 8 16 0 21 -8 5 -7
12 2 23 12 15 11 16 -5 3 -11 -9 -14 -18 -8 -25 10 -12 -11 -50 -22 -39 -4 3
-2 12 4 19 7 8 7 14 -1 19 -8 5 -4 16 12 33 18 22 19 23 2 9 -11 -9 -23 -14
-27 -11 -3 3 -4 -1 -3 -10 1 -8 5 -19 9 -22 4 -4 1 -14 -6 -22 -6 -8 -13 -25
-13 -36 -3 -42 -4 -47 -12 -42 -12 7 -6 64 8 80 8 10 8 16 0 21 -6 3 -8 11 -4
16 3 5 0 8 -8 7 -7 -2 -12 2 -11 9 1 6 -5 17 -15 25 -15 11 -15 11 -6 -2 6 -8
10 -23 9 -32 -2 -10 2 -16 8 -15 10 2 12 -10 8 -44 0 -5 -5 -8 -11 -4 -5 3 -7
13 -4 23 5 13 4 14 -4 3 -12 -17 -19 -4 -17 31 1 15 -2 25 -7 22 -5 -3 -7 -9
-4 -12 3 -3 -2 -14 -11 -25 -10 -10 -17 -21 -15 -23 1 -2 2 -7 2 -11 0 -5 -5
-1 -10 7 -6 10 -4 20 7 32 9 10 12 18 8 18 -4 0 0 10 11 23 l19 22 -21 -18
c-17 -14 -23 -15 -31 -5 -11 16 -11 28 2 48 7 13 6 13 -7 2 -19 -16 -18 -35 5
-60 17 -18 17 -20 0 -33 -15 -12 -16 -12 -11 3 4 9 -1 23 -12 33 -11 10 -17
22 -13 28 4 6 1 7 -6 2 -9 -5 -7 -13 9 -30 l21 -22 -20 -24 c-11 -13 -20 -19
-21 -14 0 6 5 16 11 22 9 9 6 19 -10 39 -15 19 -18 30 -11 40 8 9 7 14 -1 20
-7 4 -9 3 -5 -4 3 -6 2 -13 -4 -17 -7 -4 -7 -12 0 -24 5 -10 7 -21 3 -24 -3
-4 -2 -12 4 -19 5 -7 8 -29 8 -49 -1 -24 3 -36 12 -36 9 0 10 4 3 11 -5 5 -10
15 -10 21 1 5 9 0 19 -12 l19 -22 0 26 c0 15 -3 20 -8 13 -5 -8 -10 -8 -14 -2
-3 5 1 15 8 22 12 9 17 7 24 -7 5 -10 8 -26 7 -35 -2 -10 1 -21 6 -24 5 -3 8
0 7 8 -2 7 2 12 8 11 6 -1 11 6 10 15 0 9 3 17 9 17 5 0 9 -13 10 -30 l0 -30
-105 4 c-58 3 -127 5 -153 5 l-48 1 -22 74 c-16 50 -28 75 -39 77 -11 1 -15
-3 -11 -12 12 -31 -93 -305 -194 -509 -53 -105 -51 -103 -49 -71 0 13 3 22 5
20 9 -8 52 80 46 95 -3 8 -3 12 1 9 4 -4 20 20 35 53 32 67 34 73 19 64 -6 -3
-7 1 -3 10 5 13 7 14 14 3 7 -10 9 -9 9 4 0 9 2 23 5 31 4 8 0 14 -10 14 -9 0
-14 -6 -11 -14 3 -8 2 -12 -3 -9 -11 7 -24 -41 -15 -56 5 -7 2 -8 -6 -3 -10 6
-12 4 -7 -9 5 -11 3 -15 -5 -10 -8 5 -9 2 -5 -10 5 -11 3 -15 -5 -10 -8 5 -9
2 -5 -10 5 -11 3 -15 -5 -10 -8 5 -9 2 -5 -10 4 -9 3 -15 -2 -12 -5 3 -14 -8
-21 -24 -7 -16 -17 -34 -24 -39 -6 -5 10 34 37 87 58 117 97 266 97 367 0 77
16 110 39 82 8 -10 7 -18 -5 -33 -14 -18 -15 -18 -9 6 4 16 3 20 -2 12 -5 -6
-9 -46 -8 -87 1 -41 -2 -72 -6 -70 -4 3 -6 -3 -4 -12 1 -10 0 -22 -4 -28 -7
-12 -9 -20 -16 -65 -4 -28 -3 -31 5 -17 6 9 9 21 6 25 -3 5 1 9 9 9 10 0 11
-5 4 -18 -5 -10 -9 -21 -9 -26 1 -4 7 3 14 16 8 14 11 32 8 40 -3 9 -1 12 7 7
6 -4 11 -4 10 1 -1 4 0 11 1 16 1 4 4 12 5 17 1 6 3 11 5 13 3 3 10 50 11 70
0 11 5 15 12 11 7 -4 9 -4 5 1 -4 4 -3 14 3 22 6 7 8 13 5 13 -4 0 -2 10 4 23
11 21 10 21 -4 3 -19 -24 -21 -4 -3 25 11 19 7 25 -33 60 -68 59 -200 152
-216 152 -8 0 -14 4 -14 8 0 4 -24 21 -52 37 -42 23 -62 28 -95 25 -24 -3 -43
-8 -43 -12 0 -3 -17 -7 -38 -7 -42 -2 -142 -34 -216 -69 -28 -13 -54 -21 -59
-18 -5 3 -8 0 -5 -8 7 -20 30 -18 49 5 12 15 18 16 24 6 6 -9 4 -11 -5 -5 -9
5 -11 4 -6 -4 4 -6 12 -9 17 -5 5 3 7 9 4 14 -3 5 -1 11 4 14 5 4 13 1 17 -5
5 -8 3 -9 -6 -4 -9 6 -11 4 -6 -4 8 -13 21 -6 21 10 0 5 4 9 9 8 5 0 13 5 18
13 7 9 8 7 4 -7 -5 -17 -3 -16 15 5 11 14 18 18 14 10 -4 -8 1 -6 9 4 12 15
16 16 16 5 0 -12 2 -12 9 0 5 8 16 11 26 8 10 -5 14 -3 9 5 -5 7 0 9 14 6 12
-4 25 -2 28 3 3 5 16 7 30 5 14 -3 22 -1 19 5 -4 5 5 9 19 9 13 0 32 3 42 7
11 4 15 3 11 -4 -4 -6 0 -24 9 -39 14 -27 15 -28 12 -5 -2 13 2 26 8 28 7 2
10 -6 9 -21 -2 -14 3 -31 11 -37 9 -7 14 -8 12 -3 -2 5 1 9 7 9 5 0 10 -6 12
-14 1 -7 7 -19 14 -25 9 -8 9 -6 0 11 -7 14 -8 24 -1 28 5 3 10 5 11 3 0 -2 2
-11 4 -21 7 -37 40 -58 40 -24 0 5 5 12 12 14 12 4 12 -14 0 -34 -4 -6 -3 -14
3 -18 10 -6 11 -5 14 17 0 6 6 13 13 15 12 4 12 -14 0 -34 -4 -6 -3 -15 3 -18
6 -4 9 -3 8 2 -2 4 2 9 7 10 6 1 9 -6 7 -15 -2 -15 -1 -15 7 -2 10 14 12 13
15 -9 0 -5 4 -13 8 -17 4 -3 5 3 3 15 -3 15 0 21 8 18 13 -4 11 -36 -4 -51 -5
-6 -17 -2 -31 11 -38 33 -109 78 -190 120 -43 22 -76 42 -74 44 3 2 -10 5 -27
6 -38 3 -158 -36 -247 -81 l-64 -32 -84 101 c-68 82 -82 105 -79 128 2 15 0
30 -5 33 -8 5 -11 -7 -9 -36 0 -10 -1 -11 -5 -2 -3 6 -10 10 -15 7 -5 -4 -1
-17 8 -31 9 -15 12 -29 7 -32 -12 -9 -11 -33 1 -52 10 -16 16 -64 6 -54 -3 3
-6 14 -6 25 0 10 -4 19 -10 19 -5 0 -10 -9 -10 -19 0 -11 -3 -22 -6 -25 -3 -4
-5 5 -5 18 1 14 5 28 9 32 4 4 -1 17 -10 28 -17 20 -17 20 0 7 28 -22 19 3
-13 34 -25 24 -28 31 -18 49 18 31 18 44 1 58 -14 11 -15 10 -9 -9 4 -13 3
-30 -2 -39 -7 -12 -9 -7 -8 18 1 18 5 38 9 45 4 6 3 14 -1 17 -14 8 -32 -40
-20 -52 6 -6 6 -12 -1 -16 -8 -5 -8 -13 -1 -26 6 -10 6 -21 2 -24 -5 -3 -9 0
-10 7 -1 7 -3 24 -5 39 -1 15 -11 36 -21 47 -17 19 -15 26 7 22 4 0 7 3 7 9 0
12 -20 13 -38 2 -10 -7 -9 -14 6 -33 10 -13 17 -31 17 -39 -1 -8 3 -22 9 -30
8 -13 8 -13 -4 -2 -8 7 -15 21 -15 30 0 32 -31 65 -54 57 -12 -3 -19 -11 -15
-16 3 -6 12 -5 22 3 15 11 15 11 6 -2 -12 -18 -12 -49 1 -70 7 -13 6 -13 -7
-2 -9 7 -15 22 -13 32 7 37 -20 44 -87 21 -106 -36 -89 -22 22 18 58 20 142
53 188 73 75 33 88 34 83 6 0 -5 4 -8 9 -8 6 0 22 -25 37 -55 15 -30 31 -54
37 -52 5 2 37 68 71 147 117 273 164 380 210 478 l47 99 165 6 c92 4 252 7
356 7 105 0 188 3 184 6 -3 3 -45 19 -94 36 -101 34 -333 151 -372 188 -27 25
-27 26 -20 130 4 58 13 142 20 187 l12 82 190 206 c104 114 187 208 185 210
-2 2 -48 -12 -103 -32 -55 -19 -149 -45 -210 -58 -115 -25 -313 -50 -322 -41
-7 7 114 181 191 276 33 41 105 120 158 175 54 55 98 100 98 101 0 1 -78 -38
-172 -86 -95 -49 -247 -121 -338 -160 -91 -40 -166 -74 -167 -74 -1 -1 18 -59
42 -131 52 -156 113 -424 122 -533 5 -75 3 -87 -46 -248 -102 -329 -174 -514
-210 -533 -28 -15 -41 -14 -35 4 4 8 11 12 18 8 6 -3 8 -3 4 2 -10 10 11 37
23 29 5 -3 6 3 2 12 -5 13 -3 15 7 9 10 -6 11 -4 4 6 -13 20 -12 32 4 51 9 11
10 18 2 23 -8 5 -8 11 1 21 10 12 10 15 -2 12 -8 -2 -13 3 -10 12 2 8 5 22 6
30 2 8 4 15 5 15 6 0 6 36 0 40 -5 3 -7 -3 -5 -12 1 -10 -2 -24 -8 -30 -5 -7
-6 -13 -3 -13 4 0 2 -8 -3 -18 -7 -13 -6 -23 1 -30 7 -7 8 -12 4 -12 -5 0 -3
-6 3 -13 8 -11 6 -18 -9 -32 -14 -13 -17 -22 -10 -30 7 -9 4 -20 -10 -36 -10
-13 -19 -19 -20 -12 0 6 5 15 10 18 6 4 8 16 5 27 -4 12 0 27 12 40 10 12 12
18 4 13 -11 -6 -13 -4 -8 9 11 28 -3 39 -24 20 -10 -9 -19 -12 -19 -6 0 6 4
13 9 16 17 11 19 45 2 58 -13 10 -14 10 -5 -1 13 -14 7 -54 -7 -46 -4 3 -6 13
-3 23 5 14 4 14 -4 2 -7 -9 -7 -19 -2 -26 6 -6 7 -13 5 -16 -11 -11 -14 -52
-5 -62 5 -7 1 -20 -12 -36 -16 -20 -18 -21 -13 -5 8 23 9 31 1 62 -2 13 -1 25
5 28 5 4 9 11 9 17 0 6 -13 -6 -30 -27 -16 -21 -30 -34 -30 -29 0 5 -10 -2
-21 -16 -17 -21 -20 -22 -15 -5 6 20 6 20 -9 1 -11 -14 -15 -16 -15 -5 0 11
-2 12 -9 1 -4 -8 -12 -13 -17 -13 -5 1 -12 -15 -15 -36 l-5 -38 -6 35 c-5 34
-5 33 -5 -7 1 -23 4 -40 8 -37 4 2 5 -6 3 -18 l-5 -23 10 23 c15 31 23 28 10
-5 -13 -34 -29 -54 -38 -48 -4 2 -8 -2 -8 -10 0 -11 4 -12 14 -4 7 6 13 8 13
4 0 -4 7 -2 15 5 8 7 15 9 15 4 1 -5 9 1 19 14 13 15 21 18 24 10 4 -10 6 -10
6 0 1 7 6 10 11 7 6 -3 13 1 16 10 6 13 9 14 16 3 6 -9 7 -5 3 12 -6 24 -5 24
9 6 9 -11 16 -14 16 -7 0 7 4 10 9 6 16 -9 32 32 26 66 -5 27 -4 30 8 20 13
-10 14 -24 4 -75 -3 -14 -33 -31 -113 -62 -157 -61 -157 -61 -149 -34 5 15 4
20 -4 16 -6 -4 -11 -16 -11 -27 0 -10 -6 -19 -14 -19 -8 0 -21 -3 -30 -6 -9
-3 -16 -1 -16 6 0 6 4 9 9 6 5 -3 9 7 9 22 2 61 5 83 13 88 13 7 11 44 -2 44
-5 0 -7 -4 -4 -10 3 -5 -1 -20 -8 -32 -8 -13 -13 -31 -12 -41 2 -9 -1 -14 -6
-11 -6 3 -7 -4 -4 -19 4 -14 3 -27 -2 -30 -4 -3 -8 10 -8 29 0 19 -4 34 -10
34 -13 0 -14 -21 -1 -40 9 -13 9 -13 -6 -2 -16 12 -18 35 -6 48 8 7 -2 36 -14
44 -4 3 41 25 100 48 209 83 211 85 262 187 42 85 133 339 160 450 10 43 9 66
-9 165 -25 142 -61 269 -101 356 -16 37 -27 71 -23 78 3 6 3 8 -2 4 -5 -5 -23
13 -41 40 -17 26 -45 60 -62 76 l-30 28 -99 -32 c-54 -18 -140 -50 -190 -71
-51 -20 -93 -34 -93 -31 0 4 -4 2 -8 -4 -8 -13 -92 -57 -92 -48 0 3 -7 -2 -16
-10 -8 -9 -19 -14 -24 -11 -5 3 -10 2 -12 -3 -6 -15 -68 -54 -62 -39 3 8 15
17 26 20 11 3 17 10 13 17 -4 6 -1 9 7 8 8 -2 12 5 10 17 -3 19 -3 19 10 2 13
-17 15 -17 27 -3 7 9 18 13 24 9 7 -4 8 0 3 12 -5 15 -4 16 9 5 18 -15 20 0 3
20 -7 8 -3 6 10 -4 26 -23 29 -11 5 18 -10 12 -14 18 -9 13 5 -4 17 0 26 8 14
13 17 13 17 1 0 -8 -3 -14 -6 -13 -3 1 -7 -3 -8 -8 -2 -6 5 -10 15 -10 9 1 16
7 14 15 -3 11 0 11 14 -1 16 -12 17 -12 12 2 -3 9 -2 22 4 30 8 11 9 11 4 -3
-3 -10 -1 -20 4 -23 13 -8 18 18 8 40 -9 20 -9 20 6 1 16 -19 17 -19 20 7 0 6
6 12 11 12 6 0 16 4 23 8 7 5 12 5 11 0 -3 -18 2 -33 11 -33 5 0 7 7 4 15 -9
23 5 38 24 23 13 -11 15 -10 9 5 -4 10 -3 16 2 12 5 -3 12 -1 16 4 3 5 14 8
25 6 11 -2 20 1 20 7 0 6 3 8 6 5 4 -4 1 -13 -6 -22 -7 -9 -10 -18 -6 -22 3
-3 6 -1 6 5 0 7 3 11 8 11 4 -1 10 0 15 1 4 1 12 3 19 4 6 0 13 8 15 16 4 13
3 13 -6 0 -10 -13 -11 -13 -11 0 0 13 -1 13 -11 0 -8 -12 -10 -12 -7 -1 5 18
45 25 51 8 2 -6 3 -4 2 6 -2 9 1 17 5 17 5 0 11 -8 13 -17 4 -14 5 -12 6 5 1
15 7 22 21 22 11 0 20 -4 20 -10 0 -5 -7 -7 -15 -4 -8 4 -15 2 -15 -4 0 -6 8
-9 18 -7 9 1 16 10 16 19 -1 9 3 15 10 13 6 -3 10 -11 8 -18 -2 -8 0 -11 4 -7
4 4 13 3 21 -3 7 -6 13 -8 13 -3 1 5 8 -2 16 -16 14 -23 14 -18 1 20 -1 3 3 6
8 8 6 1 11 -2 11 -8 1 -5 3 -13 4 -17 1 -5 1 -12 0 -18 -1 -5 1 -7 5 -3 4 4
18 -5 32 -20 24 -27 24 -26 -1 9 -23 32 -25 38 -11 49 12 10 13 16 4 26 -6 8
-8 14 -4 14 4 0 0 11 -8 24 -9 13 -13 27 -9 30 3 4 12 -4 20 -16 13 -22 12
-17 -1 22 -1 3 3 6 8 8 6 1 10 -2 10 -7 0 -5 3 -13 7 -16 4 -4 3 -17 -3 -27
-8 -14 -8 -23 0 -31 8 -8 6 -17 -7 -31 -9 -12 -13 -18 -8 -13 5 4 21 -3 35
-15 l26 -23 -23 26 c-12 14 -19 29 -15 33 11 10 13 37 2 30 -16 -9 -10 12 11
38 10 14 16 28 13 32 -4 3 -7 21 -8 39 0 19 -5 31 -13 30 -14 -3 -16 13 -3 21
14 9 38 -27 36 -56 -1 -15 2 -25 6 -23 4 3 6 13 4 23 -1 9 4 24 12 34 10 11
11 18 3 23 -6 3 -9 2 -8 -3 3 -9 -2 -12 -17 -12 -3 0 1 12 8 28 8 15 12 34 9
42 -5 13 -3 13 11 1 12 -10 14 -17 7 -26 -7 -9 -5 -16 7 -26 16 -13 17 -12 5
3 -9 12 -10 18 -2 23 8 5 6 13 -5 25 -11 12 -13 20 -5 25 7 4 8 11 2 18 -5 7
-8 26 -7 42 1 17 -3 36 -8 43 -7 8 -6 21 2 38 6 14 9 30 6 35 -4 5 -2 9 3 9
17 0 20 -25 6 -44 -11 -15 -11 -22 2 -41 11 -16 12 -25 4 -30 -8 -5 -8 -11 -1
-19 6 -7 7 -17 3 -21 -4 -5 -1 -5 6 -1 15 9 15 1 2 -24 -7 -13 -5 -21 8 -31
14 -11 15 -11 5 1 -9 9 -9 19 -2 32 8 14 7 24 -3 35 -14 17 -13 20 4 41 9 10
18 7 42 -15 17 -15 23 -18 13 -6 -13 14 -15 23 -7 28 6 4 7 12 2 18 -4 7 -7
18 -6 25 1 6 2 17 3 23 0 5 5 8 10 4 6 -3 8 -14 6 -25 -2 -11 0 -22 4 -24 10
-6 8 40 -2 50 -4 4 -3 12 2 18 5 6 10 14 10 19 1 4 4 7 9 6 4 -1 5 -6 3 -12
-2 -7 -3 -16 -2 -22 1 -5 2 -31 4 -57 1 -26 9 -53 16 -60 12 -11 12 -10 5 2
-5 8 -10 35 -11 60 -2 25 -3 50 -4 55 0 6 2 20 5 33 3 13 1 20 -5 17 -5 -4 -9
-2 -9 4 0 16 17 22 27 8 8 -10 10 -32 3 -39 -5 -8 -7 -39 -2 -33 4 4 8 11 8
16 1 5 3 11 4 14 2 5 6 19 9 32 0 3 10 -2 20 -11 11 -10 18 -27 16 -38 -3 -11
-1 -17 3 -14 4 4 7 11 7 14 0 4 4 13 9 21 6 9 5 12 -1 8 -6 -4 -18 2 -28 13
-10 11 -21 17 -25 15 -4 -3 -13 2 -20 10 -10 12 -16 13 -26 4 -8 -6 -14 -8
-14 -4 0 4 -7 2 -15 -5 -8 -7 -13 -22 -11 -34 2 -11 -3 -31 -11 -43 -8 -12
-14 -24 -14 -27 1 -4 -1 -6 -4 -6 -3 0 -7 0 -10 0 -3 0 0 10 6 22 7 13 13 36
15 53 1 16 0 24 -3 17 -2 -6 -8 -10 -13 -7 -8 5 -210 -81 -220 -94 -3 -3 -14
-8 -25 -9 -27 -5 -98 -42 -107 -56 -4 -6 -8 -8 -8 -3 0 7 -157 -69 -268 -130
-40 -22 -59 -39 -55 -46 11 -18 12 -38 2 -31 -5 3 -7 9 -4 14 3 5 0 12 -6 15
-6 4 -56 -23 -111 -60 l-101 -67 -30 17 c-53 31 -94 35 -124 12 -108 -80 -284
-293 -412 -499 -68 -108 -221 -385 -221 -399 0 -4 -5 -11 -11 -15 -14 -9 -4
128 17 231 55 270 213 589 412 836 74 92 287 299 429 417 193 161 433 322 625
419 l76 39 -169 74 c-93 41 -169 78 -169 81 0 7 186 92 263 119 28 10 45 19
37 19 -8 0 -89 -26 -180 -58z m100 -984 c15 -33 37 -39 32 -9 -2 15 -1 15 8
-1 7 -10 16 -14 23 -10 7 4 15 8 20 9 4 1 8 2 10 4 13 11 35 3 44 -16 8 -18 8
-26 -3 -35 -14 -12 -19 -3 -15 28 1 6 -3 14 -9 18 -5 3 -8 0 -7 -7 2 -7 2 -10
0 -5 -3 4 -14 -3 -25 -15 -18 -21 -19 -21 -14 -3 6 20 6 20 -9 1 -11 -15 -15
-16 -16 -5 0 8 -7 1 -15 -16 l-15 -30 4 27 c2 15 0 25 -5 22 -5 -3 -8 -16 -7
-27 3 -39 -3 -43 -11 -7 l-7 35 -3 -35 -3 -35 -7 30 c-6 23 -7 20 -4 -14 5
-55 -4 -49 -15 10 -8 38 -9 34 -6 -30 3 -59 1 -70 -8 -57 -11 14 -12 11 -12
-22 0 -30 3 -39 15 -37 8 1 21 -3 29 -9 12 -9 13 -8 6 3 -5 10 -4 12 3 7 18
-11 14 -29 -4 -22 -8 3 -13 2 -10 -3 3 -5 -8 -7 -24 -6 -17 1 -30 -2 -30 -9 0
-6 -5 -4 -10 4 -9 13 -10 13 -10 0 0 -13 -1 -13 -10 0 -8 13 -10 12 -10 -2 0
-10 4 -18 8 -18 26 0 128 23 136 30 6 6 15 2 23 -8 12 -16 13 -16 6 2 -4 13
-3 17 5 12 8 -5 10 -2 6 9 -8 21 4 67 16 60 6 -4 7 -12 3 -18 -12 -19 -10 -30
9 -56 15 -19 16 -27 6 -39 -9 -11 -9 -14 -1 -9 19 12 24 -10 6 -24 -9 -8 -14
-9 -10 -3 4 7 0 17 -8 24 -11 9 -12 17 -4 34 10 20 9 20 -8 -2 -13 -15 -22
-19 -29 -12 -10 10 -187 -37 -345 -91 -549 -189 -752 -482 -788 -1137 -5 -90
-12 -166 -15 -169 -3 -4 -7 30 -7 75 -1 45 -2 119 -3 165 -4 280 59 534 175
704 48 70 124 147 200 204 67 49 252 149 277 149 7 0 10 5 6 12 -4 7 -3 8 5 4
6 -4 46 4 89 18 42 14 112 33 155 43 64 14 77 20 77 37 0 20 0 20 -15 0 -8
-10 -15 -15 -15 -10 0 5 -6 3 -14 -3 -10 -9 -16 -9 -21 -1 -5 8 -12 5 -21 -7
-13 -17 -14 -17 -7 2 6 19 6 19 -14 2 -17 -14 -20 -15 -22 -2 -5 30 -5 80 0
95 2 8 -1 14 -8 13 -8 -2 -7 5 2 24 13 24 12 30 -3 48 -17 20 -17 20 3 3 13
-11 20 -28 19 -45 -2 -35 6 -49 17 -32 4 7 3 19 -2 25 -7 8 -6 15 1 19 8 5 4
16 -12 33 -16 19 -17 22 -4 12 18 -14 19 -13 13 3 -4 11 -3 16 4 12 6 -4 8
-13 5 -21 -3 -7 -1 -16 3 -19 14 -8 20 32 7 46 -6 8 -7 10 -2 6 5 -4 18 0 28
10 10 9 18 12 18 8 0 -4 9 0 20 10 11 10 20 14 20 10 0 -4 9 0 20 10 11 10 20
14 20 10 0 -4 9 0 19 9 11 10 24 15 29 12 6 -3 12 1 16 9 8 23 20 18 36 -18z
m-1450 -512 c0 -3 -22 -33 -48 -68 -109 -139 -257 -376 -341 -545 -37 -73 -44
-82 -63 -76 -26 8 -184 8 -198 -1 -5 -3 -10 -3 -10 1 0 8 140 398 167 467 12
30 27 44 72 66 86 44 175 81 296 122 115 40 125 42 125 34z m1415 -532 c57
-21 220 -96 233 -108 11 -10 -68 -227 -119 -331 l-60 -121 -62 -27 c-110 -50
-230 -87 -241 -75 -8 7 -6 8 7 3 13 -5 16 -2 11 10 -3 9 -9 14 -13 12 -4 -3
-8 5 -8 17 -2 20 0 19 15 -5 9 -16 21 -28 25 -28 5 0 2 11 -7 24 -10 16 -12
27 -5 31 6 5 6 12 -3 22 -7 9 -13 17 -13 17 0 1 8 12 18 26 23 34 21 51 -3 20
-11 -14 -20 -33 -20 -42 0 -9 -4 -19 -9 -22 -14 -9 0 36 21 66 21 31 24 45 5
29 -8 -6 -18 -7 -22 -3 -5 4 -5 -1 -2 -10 3 -10 3 -20 -2 -22 -4 -3 -8 0 -9 7
0 7 -4 23 -7 37 -4 14 -8 34 -9 45 -5 37 -17 65 -27 59 -5 -3 -6 -11 -2 -17
11 -18 12 -38 2 -31 -5 3 -7 9 -4 14 3 5 1 12 -5 15 -7 4 -7 11 -2 18 5 7 8
20 7 30 -2 9 0 15 5 12 13 -8 18 18 8 38 -5 10 -7 26 -3 35 4 9 9 28 11 41 4
21 3 22 -10 11 -9 -7 -13 -16 -10 -22 3 -5 0 -16 -8 -25 -13 -17 -13 -20 3
-40 7 -7 6 -14 -1 -18 -6 -4 -9 -3 -8 2 2 4 -1 9 -7 11 -5 1 -11 -2 -11 -8 -1
-5 -3 -12 -4 -15 -1 -3 -4 -9 -5 -15 -1 -5 -4 -12 -5 -15 -1 -3 -3 -9 -4 -14
0 -5 -4 -12 -8 -16 -5 -6 -3 25 2 33 2 1 4 7 5 12 1 6 3 11 5 13 7 9 6 38 -2
43 -5 3 -2 14 8 25 9 10 21 16 25 13 11 -6 12 10 2 19 -10 11 -63 -44 -55 -57
10 -17 11 -35 2 -41 -5 -3 -7 3 -5 12 1 10 -5 26 -13 36 -14 15 -14 18 -2 15
10 -2 14 4 13 17 -1 11 0 14 3 7 3 -6 10 -9 15 -6 6 3 5 12 -3 22 -11 15 -11
15 3 5 16 -13 29 -8 29 9 0 5 -6 6 -12 2 -10 -6 -10 -4 -2 7 13 17 12 39 -1
38 -5 0 -9 -6 -7 -14 1 -7 -2 -16 -8 -20 -6 -4 -7 1 -4 12 5 16 4 16 -10 -1
-8 -10 -13 -22 -11 -27 3 -4 1 -10 -5 -14 -6 -4 -7 -12 -3 -18 4 -7 -2 -5 -12
3 -17 14 -18 13 -12 -2 4 -11 2 -17 -6 -15 -7 1 -11 -4 -9 -11 1 -8 -2 -11 -9
-6 -9 5 -10 2 -6 -9 4 -10 2 -16 -6 -14 -7 1 -11 -4 -9 -11 1 -8 -2 -11 -7 -8
-14 9 -21 -20 -8 -35 8 -8 5 -8 -7 1 -18 14 -19 13 -13 -3 4 -10 3 -16 -3 -12
-12 7 -32 -29 -22 -41 4 -5 3 -6 -2 -2 -5 4 -17 -3 -28 -15 -11 -12 4 13 31
55 71 107 177 238 272 335 l81 81 51 -15 c29 -8 84 -27 122 -40z m3719 -35
c-4 -6 -10 -5 -15 3 -5 8 -9 10 -9 5 0 -5 8 -18 17 -28 13 -15 15 -23 6 -37
-7 -11 -8 -23 -2 -32 10 -16 10 -15 14 51 2 19 3 39 4 44 2 13 44 -44 46 -63
1 -9 5 -24 9 -33 4 -9 8 -22 10 -30 1 -7 5 -19 9 -25 5 -7 6 -17 2 -22 -3 -5
0 -13 6 -16 5 -4 8 -13 5 -21 -3 -7 -1 -16 4 -19 5 -3 9 -13 8 -23 0 -9 3 -28
7 -42 13 -53 14 -66 6 -95 l-8 -30 -7 37 c-4 21 -7 41 -7 45 -2 17 -20 43 -28
39 -4 -3 -13 16 -20 40 -8 25 -35 88 -61 139 -32 65 -44 97 -36 105 5 5 6 10
2 10 -5 0 -3 7 4 15 10 12 16 13 26 4 8 -6 11 -16 8 -21z m-732 -259 c125 -49
264 -128 368 -210 75 -58 201 -181 197 -192 -4 -13 -22 -9 -22 6 0 6 -7 12
-15 12 -8 1 -14 7 -12 14 1 7 -2 9 -9 6 -7 -5 -3 -15 10 -29 12 -12 18 -25 15
-29 -3 -3 -2 -12 2 -19 11 -18 13 -58 2 -64 -8 -5 -12 8 -9 38 1 9 -3 19 -8
22 -6 4 -8 12 -5 19 2 7 -4 22 -16 32 -16 15 -18 21 -7 34 10 14 10 14 -4 4
-9 -7 -20 -10 -25 -5 -5 4 3 -7 19 -24 37 -42 34 -54 -5 -18 -27 24 -27 22 5
-11 41 -45 44 -56 22 -75 -17 -14 -21 0 -5 16 7 7 -2 21 -27 45 -26 23 -30 25
-13 6 17 -19 25 -40 25 -68 1 -44 -14 -67 -16 -25 -1 14 -2 35 -3 46 0 10 -10
27 -20 37 -19 17 -19 17 -6 0 18 -25 24 -103 9 -113 -9 -5 -10 -2 -6 10 4 10
3 15 -3 11 -5 -3 -8 -16 -6 -28 2 -12 -3 -32 -10 -45 -11 -16 -12 -28 -5 -41
6 -10 8 -21 5 -23 -2 -3 2 -18 11 -34 9 -18 15 -23 15 -12 0 9 5 20 11 24 8 4
9 -1 5 -17 -3 -13 -3 -18 0 -11 3 6 10 10 15 7 5 -4 6 2 3 12 -5 16 -4 16 10
-1 12 -15 16 -16 16 -5 0 11 2 11 9 1 7 -11 9 -11 14 2 4 9 12 15 18 14 7 -2
18 8 25 20 8 17 14 20 19 11 11 -18 -37 -56 -87 -70 -263 -70 -589 341 -569
719 1 27 -2 27 63 1z m142 -941 c-15 -24 -20 -86 -11 -135 3 -18 1 -36 -5 -39
-5 -4 -2 -15 10 -28 20 -22 41 -56 27 -44 -10 9 -37 -11 -30 -22 3 -4 -9 -6
-25 -5 -34 3 -39 -2 -42 -37 -2 -20 -7 -24 -33 -24 -24 1 -30 -3 -29 -20 0
-15 -6 -21 -20 -20 -12 1 -21 -5 -21 -14 0 -8 -9 -15 -20 -15 -26 0 -47 -14
-40 -25 3 -5 -4 -7 -15 -5 -14 3 -24 -3 -30 -18 -9 -21 -9 -20 -7 4 2 15 8 33
15 41 6 8 8 19 4 23 -4 5 -1 5 7 0 9 -5 12 -4 8 2 -4 7 4 10 21 8 26 -2 28 0
24 28 -3 19 -1 28 6 23 5 -3 8 -16 6 -29 -4 -20 -4 -21 5 -2 l10 20 1 -20 c1
-15 3 -16 7 -5 3 8 11 22 19 30 14 17 14 17 14 61 0 16 4 28 9 25 4 -3 5 -24
1 -46 -4 -21 -3 -37 1 -34 5 3 10 20 10 37 l2 32 7 -35 7 -35 2 33 c0 18 5 31
10 28 4 -3 6 -18 3 -33 -2 -16 -2 -26 1 -23 3 3 7 17 9 30 5 33 17 52 29 45 5
-4 12 1 15 10 6 13 9 14 16 3 6 -8 7 -4 2 12 -4 14 -7 30 -7 37 0 7 -4 10 -9
7 -4 -3 -8 2 -8 12 0 13 3 14 13 5 10 -8 14 -7 14 4 0 8 -4 12 -8 10 -4 -3 -6
24 -4 60 2 55 0 62 -11 48 -7 -11 -9 -22 -4 -27 5 -5 3 -23 -5 -42 -7 -18 -11
-43 -9 -56 5 -21 4 -21 -6 -5 -7 11 -9 29 -4 45 11 43 13 54 6 47 -7 -6 -8
-10 -11 -36 0 -5 -5 -7 -11 -4 -6 3 -2 20 10 42 10 20 16 41 13 46 -3 6 -1 7
6 3 6 -4 14 0 17 8 3 9 10 14 14 11 5 -3 12 -1 15 5 4 6 3 10 -2 9 -17 -3 -24
1 -18 11 5 8 11 7 21 -1 7 -6 11 -16 8 -21z m-3198 -324 c25 -35 49 -62 54
-59 4 3 14 -3 21 -13 13 -15 12 -16 -3 -3 -29 22 -21 1 18 -46 l36 -44 -30
-77 c-16 -42 -38 -104 -48 -137 -10 -33 -22 -64 -27 -70 -16 -17 -2 156 18
216 18 56 18 57 -2 85 -47 67 -118 234 -92 219 5 -3 29 -35 55 -71z m2868 12
c-9 -23 14 -28 29 -6 14 21 15 21 19 -4 3 -14 2 -23 -3 -21 -17 11 -46 -50
-43 -90 3 -37 3 -38 -6 -11 -5 16 -7 33 -4 37 2 4 -5 6 -16 4 -14 -3 -18 0
-13 8 4 7 0 6 -10 -2 -15 -12 -17 -11 -17 2 0 9 -4 18 -9 21 -5 4 -7 -4 -3
-16 5 -21 4 -22 -11 -9 -16 12 -22 8 -18 -13 1 -4 -3 -14 -8 -20 -6 -7 -9 -22
-7 -33 3 -15 0 -20 -12 -18 -9 1 -22 -2 -29 -7 -7 -5 -14 -5 -18 2 -3 6 -10 8
-14 6 -4 -3 -6 16 -5 42 1 26 3 47 4 47 8 0 6 36 -3 42 -7 3 -9 3 -5 -2 4 -4
2 -15 -5 -23 -6 -8 -13 -23 -13 -34 -2 -31 -5 -34 -14 -13 -8 19 -9 19 -9 1
-1 -16 -3 -17 -18 -5 -16 13 -17 12 -5 -3 9 -11 10 -18 2 -23 -5 -3 -11 2 -11
12 -1 17 -2 17 -6 0 -4 -15 -7 -16 -19 -6 -9 7 -14 8 -13 3 1 -5 1 -25 -1 -44
-1 -28 -3 -31 -9 -15 -8 20 -1 66 10 62 12 -4 39 26 32 37 -4 6 0 5 9 -2 14
-11 21 -7 49 34 28 41 33 44 42 29 6 -12 6 -29 0 -49 -12 -38 -3 -68 20 -72
24 -3 29 7 36 74 0 7 5 11 10 8 12 -8 34 20 27 33 -3 5 2 8 11 6 10 -1 17 -9
15 -18 -1 -8 2 -18 7 -21 13 -9 41 33 41 61 0 13 4 23 10 23 5 0 7 -6 4 -14z
m-362 -61 c0 -6 7 -27 15 -47 8 -21 13 -44 10 -50 -7 -19 11 -60 23 -53 5 3
10 19 10 35 0 21 4 28 18 25 9 -1 25 4 35 13 15 14 17 14 17 -1 0 -9 -4 -18
-8 -21 -4 -2 -8 -19 -9 -38 0 -26 1 -28 5 -8 l5 25 7 -25 6 -25 6 27 c3 15 2
25 -2 23 -4 -2 -7 2 -7 10 0 8 4 12 8 10 4 -3 5 3 2 14 -3 10 -1 21 4 24 5 4
9 -6 9 -21 -1 -15 2 -27 5 -27 3 0 13 -6 21 -12 8 -7 18 -10 22 -6 16 16 36
10 36 -10 0 -20 0 -20 -15 -1 -11 14 -14 15 -9 3 7 -21 -12 -34 -51 -34 -24 0
-30 -4 -29 -21 1 -16 -4 -20 -25 -19 -14 1 -32 -3 -40 -9 -8 -6 -17 -11 -20
-11 -3 0 -5 -3 -4 -7 2 -4 -6 -5 -17 -3 -11 2 -22 0 -24 -4 -3 -4 -22 -7 -43
-6 -21 1 -45 -3 -53 -10 -13 -10 -50 -13 -65 -5 -28 14 -101 -1 -90 -19 2 -4
-13 -7 -33 -6 -20 1 -44 -2 -53 -6 -9 -5 -24 -3 -35 5 -29 18 -47 14 -51 -13
-4 -31 -13 -40 -14 -15 0 18 -1 18 -9 -1 l-9 -20 -1 20 -1 20 -9 -20 -9 -20
-1 20 -1 20 -9 -20 -9 -20 -1 20 -1 20 -9 -20 -9 -20 -1 20 -1 20 -9 -20 -9
-20 -1 20 c-1 20 -1 20 -10 0 -7 -18 -16 -21 -75 -20 -58 0 -69 3 -76 20 -8
20 -8 20 -9 0 l-1 -20 -9 20 -9 20 -1 -20 c-1 -20 -1 -20 -10 1 -7 18 -16 20
-78 19 -42 -1 -77 4 -87 11 -16 12 -16 14 -1 36 9 12 16 18 16 12 0 -5 -6 -16
-12 -23 -11 -11 -10 -12 2 -5 20 11 41 14 36 5 -7 -10 56 -7 73 3 9 6 12 5 8
-1 -4 -6 9 -9 33 -8 26 1 37 -2 33 -9 -4 -6 2 -4 12 4 17 13 18 13 10 0 -8
-13 -7 -13 10 0 15 12 17 12 10 1 -5 -10 -4 -12 4 -7 6 4 10 10 7 14 -2 4 1
16 5 27 9 18 9 18 5 -3 -3 -14 0 -20 6 -15 6 3 8 1 4 -5 -3 -6 -1 -14 5 -18 8
-5 9 -3 4 7 -7 11 -5 11 10 -1 17 -13 18 -13 10 0 -8 13 -7 13 10 0 17 -13 18
-13 10 0 -8 13 -6 13 8 1 9 -7 14 -18 10 -25 -4 -6 2 -4 12 4 17 13 18 13 10
0 -8 -13 -7 -13 10 0 17 13 18 13 10 0 -8 -13 -7 -13 10 0 17 13 18 13 10 0
-8 -13 -7 -13 10 0 10 8 19 15 20 15 1 0 10 -7 20 -15 15 -12 17 -12 10 -1 -6
10 -4 12 5 6 9 -6 11 -4 5 5 -5 8 -4 11 3 7 6 -5 8 1 4 15 -3 14 -2 19 7 14 6
-4 8 -13 4 -19 -3 -7 2 -5 13 4 10 9 27 15 37 14 10 -2 14 1 11 7 -4 7 -2 8 5
4 8 -5 9 -12 2 -20 -5 -6 -7 -17 -3 -23 4 -7 14 -2 26 15 11 14 14 22 8 18 -6
-3 -13 -2 -16 3 -4 5 2 8 11 6 10 -2 20 -4 22 -4 2 -1 -4 -11 -15 -23 l-19
-23 24 20 c15 12 21 14 16 5 -8 -13 -7 -13 10 0 17 13 18 13 10 0 -8 -13 -7
-13 8 -1 9 7 17 21 18 30 0 12 2 11 9 -4 7 -16 9 -17 9 -3 1 9 6 20 12 24 8 4
9 -1 5 -17 -3 -13 -3 -18 0 -10 5 11 8 11 16 0 6 -10 7 -6 3 11 -4 17 -3 21 3
11 8 -11 11 -11 16 0 3 8 4 3 1 -11 -3 -14 -2 -19 1 -11 5 11 8 11 16 0 6 -10
7 -7 3 10 -5 16 -4 21 4 17 6 -4 11 -13 11 -21 0 -8 4 -16 9 -19 5 -4 7 4 3
16 -3 14 -2 19 7 14 6 -4 9 -11 6 -16 -3 -5 -1 -11 4 -15 6 -3 8 4 6 15 -3 13
0 18 7 14 7 -5 8 -2 3 7 -5 8 2 5 15 -6 13 -11 20 -15 17 -8 -4 6 -3 14 3 18
5 3 11 -2 11 -12 1 -17 2 -17 6 0 2 9 9 15 14 11 5 -3 6 -10 3 -16 -4 -7 -2
-8 5 -4 6 4 8 12 5 18 -5 7 -2 8 6 3 9 -6 11 -4 5 5 -6 9 -4 11 5 5 9 -6 11
-4 5 5 -6 9 -4 11 5 5 8 -5 11 -4 6 3 -3 6 1 9 11 7 10 -1 27 5 37 14 11 9 16
11 13 4 -4 -7 -1 -10 9 -9 12 2 17 14 18 43 0 23 -2 39 -6 36 -5 -2 -8 -18 -8
-34 0 -17 -4 -28 -9 -24 -6 3 -6 18 0 37 5 19 5 28 -1 22 -5 -5 -10 -22 -13
-38 -2 -18 -10 -30 -20 -32 -11 -1 -14 2 -10 9 4 7 -1 5 -11 -3 -17 -14 -18
-13 -14 15 3 17 3 24 1 17 -8 -22 -20 -3 -15 24 3 18 7 22 13 13 6 -10 8 -7 6
8 0 12 -5 19 -11 16 -5 -4 -7 2 -3 13 5 14 2 12 -13 -6 -23 -29 -27 -15 -5 17
11 16 12 24 4 29 -8 5 -9 3 -4 -7 6 -10 5 -11 -4 -3 -13 12 -4 47 11 42 5 -2
10 -8 10 -13z m-194 -82 c0 -10 5 -31 11 -48 11 -25 14 -28 24 -15 18 22 36
22 30 1 -6 -22 12 -37 23 -20 4 7 9 26 11 42 1 17 7 35 11 39 14 14 29 -35 21
-67 -7 -33 -12 -17 -9 30 3 45 -8 26 -13 -22 -2 -27 0 -40 6 -36 6 4 7 1 2 -8
-7 -11 -6 -12 7 -2 8 7 17 11 20 8 2 -3 2 9 0 26 -3 21 -1 30 6 25 5 -3 8 -16
5 -29 -3 -12 -3 -19 2 -15 4 4 8 23 9 43 2 20 8 41 14 47 8 8 9 3 3 -18 -5
-18 -3 -38 5 -53 11 -21 11 -28 -2 -42 -9 -10 -24 -16 -35 -14 -10 2 -21 -1
-25 -6 -4 -6 -10 -6 -19 1 -8 7 -15 7 -19 1 -6 -10 -24 -10 -41 0 -5 3 -22 5
-37 4 -19 -1 -28 3 -28 13 0 12 2 12 17 1 9 -8 14 -9 10 -3 -4 8 3 11 22 9 25
-2 27 0 23 24 l-6 26 -6 -25 c-6 -23 -6 -24 -14 -5 l-7 20 -16 -20 c-14 -19
-14 -18 -10 17 3 21 1 35 -4 32 -5 -3 -6 -10 -3 -16 4 -6 2 -8 -4 -4 -14 8
-25 -11 -28 -49 -2 -25 -1 -27 7 -10 l9 20 -3 -20 c-1 -11 -9 -20 -16 -20 -8
0 -17 -8 -20 -18 -9 -24 -15 -25 -37 -6 -16 13 -52 18 -69 9 -3 -1 -9 -3 -14
-4 -5 0 -13 -4 -17 -8 -4 -4 -13 -3 -20 3 -11 9 -16 6 -23 -13 -8 -21 -15 -24
-64 -23 -30 0 -61 5 -68 11 -8 6 -22 10 -32 9 -15 -3 -37 27 -37 51 0 17 20
-11 21 -29 1 -20 2 -20 9 3 7 21 15 11 11 -13 -1 -5 4 -5 11 -1 20 13 39 13
32 2 -5 -7 -2 -8 6 -3 8 5 11 4 6 -3 -3 -6 -1 -14 5 -18 7 -4 9 -3 5 4 -3 6
-2 13 4 17 5 3 10 -2 11 -12 0 -16 1 -16 9 2 l9 20 1 -20 c1 -19 2 -18 10 3 5
12 12 22 15 22 4 0 4 -10 1 -22 -3 -13 -3 -17 0 -9 5 11 8 11 16 0 7 -10 8 -8
3 7 -3 14 1 26 12 35 15 12 16 12 8 -1 -8 -13 -7 -13 10 0 15 12 17 12 10 1
-5 -9 -4 -12 3 -7 6 4 8 14 5 23 -4 11 -3 14 6 9 7 -5 10 -14 8 -20 -3 -7 1
-13 8 -13 7 0 11 6 8 13 -2 6 1 15 8 20 8 5 11 2 7 -8 -4 -8 -1 -15 6 -15 13
0 15 25 3 44 -4 6 -3 14 3 18 5 3 11 -2 12 -12 2 -35 3 -38 13 -38 6 0 9 3 8
7 -2 4 6 26 17 50 11 24 20 40 21 36 1 -5 2 -11 3 -15 1 -5 6 -15 11 -23 5 -8
8 -26 6 -40 -2 -14 -1 -23 2 -20 5 5 14 49 16 78 1 6 7 11 14 10 6 -2 12 6 12
17 0 19 12 45 20 45 2 0 3 -8 3 -17z m-663 -65 c-4 -17 -2 -35 5 -43 6 -8 10
-18 7 -22 -2 -4 -1 -17 4 -28 7 -18 8 -18 8 -2 1 10 6 15 11 12 6 -4 7 -11 4
-17 -4 -7 -2 -8 5 -4 6 4 9 11 6 16 -6 10 15 8 34 -4 9 -6 12 -5 7 2 -3 6 -1
14 5 18 8 5 10 1 7 -13 -3 -12 0 -20 7 -20 10 0 10 7 3 30 -8 21 -13 25 -19
15 -7 -10 -9 -9 -9 4 0 28 16 29 29 1 6 -14 15 -23 18 -19 3 3 12 1 19 -5 17
-14 42 25 46 69 2 30 4 31 15 16 7 -10 13 -23 13 -28 0 -6 -5 -4 -10 4 -8 12
-9 9 -7 -10 2 -14 -2 -38 -9 -55 -11 -27 -17 -30 -59 -30 -25 -1 -49 3 -51 7
-3 5 -11 5 -17 1 -39 -24 -84 4 -71 44 5 15 4 15 -5 3 -6 -8 -8 -24 -5 -35 4
-17 3 -17 -8 2 -13 22 -14 22 -38 -22 -24 -44 -25 -44 -37 -22 -8 14 -12 17
-13 7 0 -13 -1 -13 -10 0 -9 13 -10 13 -10 0 -1 -12 -3 -11 -11 3 -6 9 -15 14
-21 11 -7 -4 -8 -2 -4 5 4 6 2 19 -5 27 -10 13 -14 12 -30 -2 -26 -23 -97 -27
-95 -5 1 13 -10 16 -61 16 -34 -1 -60 2 -58 6 3 3 23 5 46 4 34 -2 43 2 47 18
5 20 6 20 13 1 7 -16 8 -17 8 -1 1 18 4 19 59 21 18 1 36 6 40 11 11 16 30 16
28 0 -2 -23 18 -22 28 1 9 21 11 20 33 -14 13 -19 22 -41 19 -49 -7 -17 -26
-8 -26 12 0 8 -4 16 -9 19 -5 4 -7 -4 -3 -16 3 -14 2 -19 -7 -14 -6 4 -9 11
-6 16 3 5 2 11 -3 14 -4 2 -8 -6 -8 -19 0 -13 4 -22 8 -19 4 3 5 -3 2 -13 -6
-15 -4 -15 10 2 l16 20 -6 -20 c-5 -16 -4 -17 5 -5 9 13 11 13 11 0 0 -13 1
-13 10 0 9 13 10 13 10 0 0 -12 2 -13 9 -1 5 7 6 23 4 35 -4 17 -3 18 6 6 6
-8 8 -24 5 -35 -4 -11 -3 -17 1 -13 5 5 9 20 10 35 1 16 8 49 15 76 10 39 15
45 27 36 9 -8 12 -22 8 -41z m-761 12 c28 -10 37 -43 33 -120 -1 -32 -6 -45
-17 -45 -8 0 -21 -4 -29 -9 -9 -6 -12 -5 -7 2 3 6 2 13 -3 16 -5 4 -8 14 -6
24 1 9 -3 24 -11 32 -7 8 -13 18 -13 23 -1 4 -4 6 -8 5 -5 -2 -7 -6 -6 -10 1
-3 -5 -12 -14 -20 -14 -11 -16 -11 -7 2 5 8 10 33 10 55 2 68 2 68 29 61 13
-3 35 -10 49 -16z m3378 -380 c32 -50 72 -118 89 -151 l30 -61 -26 -40 -26
-40 -47 44 c-45 41 -110 96 -161 136 l-24 19 49 91 c27 51 51 92 54 92 3 0 31
-41 62 -90z m-1568 -125 c28 -4 72 -16 99 -26 49 -19 142 -78 135 -85 -2 -1
-26 8 -53 21 -90 43 -171 58 -270 51 -174 -11 -324 -81 -510 -236 -16 -14 -83
-77 -148 -140 -141 -138 -137 -134 -103 -88 16 21 25 42 20 49 -4 7 -3 9 3 6
5 -4 32 22 60 56 192 239 392 372 598 397 60 7 75 7 169 -5z"/>
<path d="M3263 5713 c-13 -8 -23 -25 -23 -37 0 -15 -3 -17 -9 -8 -7 11 -10 10
-15 -3 -3 -9 -6 -24 -5 -33 1 -11 4 -8 10 8 l8 25 -1 -25 c-1 -48 5 -55 12
-15 l7 40 3 -40 3 -40 7 35 c7 30 7 27 5 -15 -2 -35 -1 -44 5 -30 7 15 8 11 6
-17 -2 -23 2 -42 10 -49 8 -6 11 -15 8 -20 -3 -5 -2 -14 2 -21 4 -7 8 -39 9
-71 1 -52 0 -57 -12 -41 -13 18 -13 17 -10 -3 2 -13 7 -26 12 -30 4 -5 4 -1 0
7 -8 13 -7 13 10 0 17 -13 18 -13 10 0 -8 13 -7 13 10 0 17 -13 18 -13 10 0
-5 9 -5 12 1 7 10 -9 14 -88 4 -82 -3 2 -6 -9 -5 -25 0 -15 3 -26 7 -24 4 3 5
-4 3 -16 -2 -11 1 -23 7 -26 7 -5 8 -2 3 7 -7 11 -5 11 10 -1 17 -13 18 -13
10 0 -4 8 -4 12 0 7 5 -4 10 -18 12 -30 2 -18 1 -19 -7 -7 -10 13 -11 13 -9 0
1 -8 1 -22 0 -30 -1 -13 -2 -13 -11 0 -9 13 -10 13 -11 0 -1 -8 -1 -19 0 -24
1 -5 -5 -4 -13 4 -13 10 -16 10 -16 -3 0 -18 21 -17 44 2 9 7 16 10 16 5 0 -5
6 -2 13 6 7 9 19 15 27 15 23 -2 40 15 41 39 1 19 2 18 9 -4 8 -25 8 -25 9 -2
1 13 5 20 11 17 6 -4 7 -11 4 -17 -5 -7 -2 -8 5 -4 7 5 10 11 7 14 -3 3 -1 11
5 19 6 7 8 13 3 13 -4 0 3 12 17 27 13 14 19 23 13 20 -6 -4 -16 4 -22 18 -9
19 -8 26 5 37 14 11 15 10 9 -9 -9 -28 8 -38 25 -15 13 15 12 16 -3 4 -15 -12
-16 -10 -14 15 2 15 -1 33 -6 40 -5 7 -5 14 1 17 9 6 27 -31 23 -47 -1 -5 2
-6 7 -2 6 3 7 13 4 22 -5 12 -3 14 7 8 9 -5 11 -4 6 4 -4 6 -11 9 -16 6 -12
-7 -19 20 -9 36 8 13 13 5 10 -14 -1 -5 3 -6 9 -2 5 3 10 1 10 -6 0 -7 3 -9 7
-6 3 4 -3 18 -15 30 -12 13 -19 27 -15 32 5 4 2 5 -4 1 -15 -8 -18 10 -4 18
10 6 34 -18 26 -26 -3 -3 3 -11 12 -19 15 -11 16 -11 6 1 -10 11 -10 17 0 29
8 9 8 12 1 8 -7 -4 -17 0 -24 8 -7 8 -16 12 -21 9 -5 -3 -9 -2 -10 3 0 4 -2
17 -5 28 -8 44 6 49 41 15 19 -18 32 -37 29 -41 -2 -4 -1 -10 4 -13 4 -2 8 6
8 19 0 13 -3 22 -7 20 -11 -7 -54 46 -54 67 0 12 -7 23 -15 25 -9 3 -11 1 -5
-4 13 -10 13 -32 1 -35 -8 -3 -14 12 -19 52 -1 8 3 15 8 15 6 0 9 -4 7 -10 -2
-5 0 -7 4 -2 4 4 17 -1 28 -10 12 -10 7 -2 -10 17 -17 19 -30 42 -27 50 4 13
3 13 -6 0 -10 -14 -12 -13 -15 10 0 6 -5 10 -11 11 -5 0 -17 6 -25 13 -8 8
-25 12 -37 11 -12 -1 -25 5 -28 13 -3 8 -12 11 -20 8 -8 -3 -15 0 -15 7 0 9
-3 8 -9 -1 -7 -11 -9 -11 -14 2 -4 9 -10 16 -14 15 -4 -1 -10 -1 -13 1 -23 8
-49 6 -67 -7z m68 -14 c7 -12 9 -12 9 1 1 12 3 11 11 -3 6 -10 8 -23 5 -30 -2
-7 -5 -3 -6 8 l-1 20 -9 -20 -9 -20 -1 20 -1 20 -10 -20 c-7 -16 -8 -14 -4 10
4 22 3 26 -5 14 -6 -11 -6 -37 0 -74 5 -33 8 -61 5 -63 -2 -3 0 -14 6 -25 6
-10 7 -17 2 -14 -4 3 -9 -8 -10 -25 0 -17 2 -26 6 -20 12 20 26 -21 26 -77 -1
-53 0 -53 12 -22 7 17 16 31 19 31 3 0 3 -8 -1 -17 -10 -23 -14 -84 -6 -79 6
4 10 -20 12 -78 1 -21 4 -25 11 -15 8 11 9 10 4 -4 -4 -12 -2 -16 6 -11 7 5 8
3 3 -6 -5 -8 -4 -11 2 -7 7 5 10 -6 8 -31 -2 -20 -1 -31 2 -23 5 11 7 11 14 0
7 -10 8 -9 6 6 -1 11 -7 26 -11 34 -7 10 -6 12 4 6 8 -5 11 -4 7 2 -3 5 0 10
8 10 8 0 11 -5 8 -11 -4 -6 1 -5 10 3 15 12 17 11 17 -3 0 -9 -5 -15 -12 -14
-6 2 -14 -8 -18 -22 -4 -17 -13 -25 -28 -25 -13 0 -27 -7 -32 -15 -6 -9 -10
-10 -10 -3 0 6 4 15 10 18 18 11 2 60 -21 60 -5 0 -8 2 -7 5 1 3 -4 15 -10 26
-6 12 -8 24 -5 28 4 4 8 25 9 47 1 37 -8 53 -31 54 -5 0 -10 25 -10 55 -1 30
-4 61 -9 68 -4 6 -5 16 -2 21 3 5 0 14 -8 20 -7 6 -12 23 -10 37 1 15 -2 54
-7 87 -6 33 -8 66 -5 74 7 16 45 11 57 -8z"/>
<path d="M3201 5462 c-18 -36 -19 -40 -4 -55 11 -11 13 -20 6 -29 -13 -18 -14
-56 -1 -64 6 -4 9 -1 6 7 -3 8 1 26 8 41 8 15 10 29 5 32 -5 3 -11 17 -14 32
-2 14 -1 22 3 17 5 -4 10 -17 12 -28 2 -12 6 -16 10 -9 4 6 1 23 -7 38 -8 14
-10 24 -5 21 4 -3 10 1 13 7 2 7 5 1 6 -14 3 -52 4 -57 14 -51 6 4 7 1 2 -7
-5 -8 -4 -11 3 -6 6 3 9 -1 7 -11 -2 -10 -4 -22 -4 -27 -1 -6 -8 -1 -16 10 -8
10 -15 14 -15 8 0 -6 3 -14 6 -17 7 -6 13 -55 14 -106 0 -19 3 -21 14 -12 19
16 32 -4 16 -24 -8 -10 -8 -15 0 -20 8 -5 7 -12 -3 -23 -8 -10 -13 -26 -10
-37 2 -11 5 -26 5 -32 1 -7 10 -20 20 -30 16 -14 18 -14 18 0 0 8 3 24 7 34 6
16 5 16 -10 4 -9 -7 -14 -18 -10 -24 3 -5 1 -7 -5 -4 -5 4 -9 15 -7 25 1 9 -2
25 -7 36 -7 13 -7 16 1 12 6 -4 11 -1 11 8 0 8 4 17 9 20 5 4 7 -4 3 -16 -3
-14 -2 -19 7 -14 6 4 9 11 6 16 -3 5 -1 11 4 14 5 3 7 -9 6 -27 -4 -39 9 -68
18 -42 4 9 10 14 15 11 4 -2 8 4 8 14 0 10 -3 17 -7 14 -4 -2 -12 3 -19 11 -7
8 -9 15 -5 15 4 0 3 6 -2 13 -8 11 -8 27 -1 97 2 19 -2 25 -17 25 -33 1 -44
13 -39 47 2 18 -2 39 -10 47 -20 24 -24 44 -13 66 5 11 6 17 2 13 -5 -4 -14
-3 -21 3 -10 8 -18 1 -33 -29z"/>
<path d="M6180 7439 c14 -7 55 -25 92 -42 37 -16 65 -34 62 -38 -3 -5 3 -6 13
-2 15 6 16 4 5 -9 -10 -12 -10 -18 2 -27 11 -9 16 -9 22 0 4 7 3 9 -4 5 -6 -3
-13 -2 -16 3 -4 5 -2 12 3 15 13 8 42 -4 35 -15 -3 -5 2 -6 10 -3 32 12 15
-17 -26 -43 -40 -27 -46 -28 -167 -27 -69 0 -150 6 -180 12 -67 15 -77 8 -20
-14 121 -47 532 -269 680 -367 l27 -18 18 51 c10 27 20 46 23 41 4 -5 7 19 9
53 2 57 0 64 -25 86 -16 13 -55 47 -88 75 -80 69 -200 155 -222 160 -10 2 -65
26 -123 53 -58 28 -116 53 -130 56 l-25 6 25 -11z"/>
<path d="M3209 7030 c-98 -29 -229 -134 -285 -227 l-25 -43 33 -1 c103 -5 194
8 248 34 40 19 47 28 63 76 10 30 19 81 20 113 3 63 0 65 -54 48z"/>
<path d="M5145 6895 c-99 -22 -222 -72 -230 -94 -3 -8 -8 -38 -11 -66 -8 -70
13 -110 70 -135 48 -22 197 -50 261 -50 40 0 45 4 83 53 46 60 92 148 92 174
-1 25 -33 95 -54 116 -21 21 -121 22 -211 2z m182 -191 c2 -6 -14 -34 -37 -62
l-40 -52 -48 7 c-26 3 -78 14 -117 22 l-70 17 48 28 c26 16 67 34 90 42 49 15
169 14 174 -2z"/>
<path d="M5428 6781 c5 -53 -7 -81 -97 -224 l-36 -59 -95 6 c-85 5 -169 21
-224 42 -13 5 -17 4 -13 -3 10 -15 151 -70 227 -88 36 -8 88 -15 117 -15 59 0
61 2 132 132 l42 77 -21 83 c-25 98 -39 119 -32 49z"/>
<path d="M6090 6208 c42 -64 83 -164 110 -272 l28 -109 22 69 c13 38 36 98 51
133 16 35 28 65 27 65 -47 18 -165 83 -201 110 -26 20 -50 36 -53 36 -3 0 4
-15 16 -32z"/>
<path d="M5985 5710 c61 -63 126 -134 145 -157 18 -24 37 -43 40 -43 4 0 6 19
5 43 -2 23 -4 65 -4 94 l-1 52 -56 11 c-52 11 -137 50 -209 95 -16 10 20 -33
80 -95z"/>
<path d="M3843 4824 c9 -11 14 -24 11 -27 -4 -4 -3 -12 3 -19 10 -15 10 -74 0
-84 -4 -4 -7 -3 -8 2 0 5 -2 25 -4 44 -4 45 -9 68 -18 76 -7 7 -3 -18 8 -51 7
-20 6 -20 -9 -1 -9 11 -16 15 -16 9 0 -7 5 -15 10 -18 6 -4 7 -11 4 -17 -4 -6
-10 -5 -16 3 -8 11 -9 10 -4 -3 6 -19 -9 -34 -17 -18 -3 6 -4 5 -3 -2 2 -7 -7
-31 -19 -53 -12 -22 -20 -46 -17 -54 3 -8 0 -11 -7 -7 -7 5 -9 1 -4 -10 5 -13
3 -15 -8 -9 -8 4 -11 5 -7 0 4 -4 -1 -20 -12 -35 -22 -31 -25 -46 -11 -55 6
-3 8 4 6 16 -4 20 -3 21 15 4 12 -11 17 -25 14 -43 -5 -26 -5 -26 10 -7 l16
20 -6 -20 c-7 -19 -6 -20 8 -1 14 18 15 17 13 -11 -2 -33 18 -40 36 -12 7 12
9 12 9 -1 0 -13 2 -13 11 0 9 12 10 11 5 -5 -6 -20 -6 -20 9 -1 10 13 15 15
15 6 0 -7 3 -11 6 -8 3 4 1 15 -5 27 -6 11 -7 22 -2 25 17 11 20 -48 4 -64
-14 -13 -15 -13 -9 0 4 8 0 6 -9 -5 -9 -11 -21 -20 -27 -20 -6 0 -13 -6 -15
-12 -7 -19 -2 -17 63 22 32 19 73 41 91 47 30 11 39 27 35 60 -1 3 5 12 13 18
13 11 15 9 12 -6 -1 -11 -6 -25 -11 -32 -11 -18 0 -27 17 -14 8 7 17 9 20 5
12 -12 20 29 9 51 -7 17 -7 27 1 35 6 6 7 11 2 11 -5 0 2 12 16 28 13 15 20
24 15 19 -5 -4 -19 1 -30 10 -21 18 -21 18 -3 -3 15 -19 16 -23 3 -34 -9 -6
-14 -16 -13 -20 2 -7 -3 -10 -19 -10 -4 0 1 11 9 24 14 21 14 26 2 36 -12 10
-13 16 -3 27 9 11 8 13 -2 11 -16 -3 -21 21 -8 38 5 7 1 17 -9 25 -16 13 -17
12 -5 -3 8 -10 9 -19 3 -22 -10 -7 -9 -25 2 -43 5 -7 5 -13 1 -13 -4 0 0 -8 9
-17 13 -15 13 -21 2 -36 -7 -10 -16 -14 -19 -8 -4 5 -2 13 4 16 8 5 7 12 -2
22 -6 8 -13 22 -14 30 -2 8 -5 18 -8 21 -8 7 -3 -29 5 -43 6 -11 3 -67 -5
-100 -2 -11 -5 -22 -5 -25 -1 -3 -5 2 -11 10 -5 8 -5 19 0 25 7 9 6 50 -3 123
-1 12 -17 41 -35 64 -32 42 -41 65 -20 52 7 -5 8 -3 3 5 -5 9 -10 10 -18 2 -7
-7 -4 -19 9 -38 10 -15 17 -32 16 -36 -1 -5 2 -6 7 -3 5 3 12 -2 16 -12 13
-28 14 -42 4 -48 -5 -3 -10 0 -10 5 -1 6 -2 17 -3 24 -1 6 -7 11 -14 10 -7 -2
-13 2 -13 7 -1 6 -2 15 -3 20 0 6 -4 10 -8 10 -5 0 -10 0 -13 0 -3 0 1 -11 10
-24 14 -21 14 -24 -2 -37 -15 -12 -16 -12 -10 5 4 10 2 25 -5 33 -9 11 -9 19
0 33 7 12 8 21 2 25 -6 4 -7 11 -4 17 5 7 2 8 -6 3 -8 -5 -11 -3 -8 6 3 8 11
13 17 11 7 -1 9 2 6 8 -4 6 -10 9 -13 6 -3 -3 -15 2 -26 11 -21 18 -21 18 -3
-3z"/>
<path d="M4509 4644 c-18 -20 -79 -72 -134 -116 -55 -45 -101 -82 -103 -83 -1
-1 32 -28 75 -60 43 -31 114 -94 158 -139 44 -45 79 -80 78 -77 -2 2 2 10 8
18 12 13 11 15 -18 17 -23 2 -43 14 -43 27 0 6 6 7 13 2 24 -15 34 -10 32 16
-1 14 1 31 4 36 11 19 9 32 -5 32 -9 0 -11 -4 -4 -12 5 -7 6 -15 2 -19 -4 -4
-7 -16 -7 -27 0 -10 -4 -18 -10 -16 -5 1 -9 7 -7 12 2 6 -2 4 -9 -2 -18 -18
-54 14 -38 33 7 8 7 14 -1 19 -6 4 -9 3 -8 -2 2 -4 0 -9 -4 -10 -5 -2 -8 0 -9
5 -2 14 -21 32 -30 26 -5 -3 -14 7 -20 23 -17 44 13 134 76 232 30 46 55 88
55 92 0 17 -17 8 -51 -27z"/>
<path d="M3580 4651 c0 -6 -7 -8 -15 -5 -8 4 -15 1 -15 -5 0 -6 -3 -10 -7 -10
-5 1 -11 0 -15 -1 -12 -4 -27 -7 -37 -9 -5 0 -8 -9 -7 -18 0 -11 -5 -17 -13
-15 -12 3 -12 1 -1 -13 12 -15 15 -14 26 7 7 12 10 27 6 33 -3 5 4 2 16 -9 12
-10 19 -22 17 -26 -3 -4 1 -13 9 -19 16 -13 15 -26 -2 -57 -9 -18 -8 -25 12
-43 32 -30 42 -11 14 25 -13 15 -18 25 -11 21 14 -9 33 14 39 50 4 20 2 25 -6
17 -6 -6 -12 -20 -13 -32 0 -11 -5 -19 -9 -16 -4 3 -3 16 2 29 6 15 6 27 0 30
-6 4 -10 -2 -10 -12 -1 -11 -7 -5 -15 16 -18 41 -19 54 -1 22 8 -14 16 -19 20
-13 3 6 2 13 -4 17 -6 4 -8 11 -4 16 8 13 44 -19 45 -40 0 -12 3 -11 9 4 7 16
8 14 7 -12 -1 -17 -6 -28 -12 -25 -5 3 -3 -2 5 -12 8 -11 13 -29 12 -43 -3
-17 14 -44 59 -97 34 -41 67 -73 74 -72 20 3 45 27 39 37 -3 5 2 19 10 31 10
13 16 17 16 9 0 -8 3 -12 6 -8 3 3 3 11 -2 18 -5 9 -11 7 -21 -6 -9 -14 -13
-15 -13 -4 0 12 -2 12 -10 -1 -9 -13 -10 -13 -11 0 -1 8 0 22 1 30 1 8 -1 12
-5 8 -11 -11 -13 -57 -2 -55 6 1 11 -6 12 -15 0 -19 -19 -26 -21 -8 -3 24 -6
24 -15 0 l-8 -25 1 25 c1 44 -4 56 -12 30 -7 -21 -8 -21 -9 -5 0 11 4 27 9 35
7 11 10 11 10 2 0 -7 5 -10 10 -7 14 9 12 25 -2 23 -8 -2 -13 8 -13 24 0 14
-4 30 -9 35 -5 4 -6 3 -2 -4 3 -6 2 -14 -2 -17 -12 -7 -42 29 -67 79 -23 46
-65 102 -65 86z"/>
<path d="M6684 4258 c-3 -4 -3 -8 1 -8 3 0 1 -9 -5 -20 -6 -11 -15 -18 -20
-15 -5 3 -11 1 -15 -5 -4 -6 -10 -8 -14 -5 -11 6 -38 -25 -43 -50 -2 -15 -11
-20 -35 -19 -18 0 -31 -2 -29 -5 7 -11 -14 -52 -23 -46 -5 3 -12 1 -16 -5 -4
-6 -10 -8 -15 -5 -4 3 -13 -2 -20 -10 -7 -8 -16 -12 -21 -9 -5 3 -8 0 -7 -7 2
-8 -7 -13 -22 -14 -16 0 -29 -9 -37 -25 -7 -14 -17 -26 -23 -26 -5 -1 -12 -3
-15 -4 -3 -1 -15 -3 -27 -4 -12 0 -22 -7 -24 -14 -1 -7 0 -8 3 -2 3 7 11 4 20
-7 13 -16 14 -16 9 -1 -4 12 0 16 15 13 13 -3 17 0 12 8 -4 8 -2 8 9 -1 14
-11 17 -9 24 20 6 29 8 30 15 13 7 -19 10 -18 13 5 0 6 5 11 10 13 12 3 17
-31 5 -39 -5 -3 -6 -10 -3 -16 4 -6 2 -8 -3 -5 -6 4 -13 -3 -16 -15 -5 -19 -8
-20 -23 -7 -15 12 -16 11 -11 -11 4 -14 4 -19 1 -12 -3 6 -10 10 -15 6 -5 -3
-5 -13 1 -24 7 -13 7 -21 0 -25 -6 -4 -10 -3 -9 2 3 20 -2 34 -11 28 -6 -4 -7
-12 -4 -18 4 -7 3 -8 -2 -4 -9 9 -10 13 -13 43 0 8 -5 13 -11 9 -11 -7 -3 -32
22 -64 10 -13 15 -28 11 -34 -4 -6 -1 -7 6 -3 7 5 10 11 7 14 -3 3 1 14 11 24
9 10 13 18 8 18 -4 0 11 21 35 46 31 34 41 52 37 70 -2 14 0 21 6 17 6 -3 7
-1 3 5 -3 6 -1 14 5 18 7 4 9 3 5 -4 -3 -6 -1 -14 5 -18 9 -5 10 0 6 15 -3 13
-3 20 0 17 4 -3 13 0 21 7 11 8 14 8 9 0 -4 -6 -2 -15 4 -19 8 -5 10 -1 7 13
-6 21 6 25 31 9 10 -7 12 -2 6 22 -3 16 -2 33 3 36 6 3 8 -4 5 -16 -4 -22 -3
-22 11 2 10 16 15 19 16 10 0 -12 2 -13 9 -1 6 9 8 2 8 -22 -1 -20 -4 -34 -8
-31 -4 2 -9 -5 -12 -16 -6 -23 8 -36 20 -18 11 19 14 37 15 98 1 55 1 55 5 8
2 -25 11 -52 19 -58 9 -8 14 -9 14 -2 0 6 -4 13 -9 16 -12 8 -11 58 1 73 6 7
15 10 21 6 6 -4 8 2 5 14 -6 21 6 25 30 10 9 -6 11 0 8 27 -3 20 -1 34 4 31 5
-3 7 -13 4 -23 -5 -15 -4 -15 5 -2 9 12 10 9 5 -14 -5 -20 -3 -27 4 -22 6 3
14 1 18 -5 4 -8 3 -9 -4 -5 -7 4 -12 3 -12 -3 0 -15 18 -23 25 -11 4 6 1 18
-6 27 -8 9 -14 21 -15 27 0 6 -2 18 -2 27 -2 16 -29 22 -38 7z"/>
<path d="M4707 4240 c10 -11 9 -17 -4 -32 -9 -10 -13 -18 -8 -18 4 0 0 -11 -9
-25 -10 -14 -16 -34 -15 -43 4 -25 -11 -63 -22 -56 -5 3 -6 11 -2 17 4 7 8 23
8 37 0 14 5 32 10 40 11 18 16 45 7 35 -4 -4 -8 -11 -8 -16 -3 -22 -6 -23 -14
-4 -7 16 -9 14 -7 -12 1 -18 -2 -33 -8 -33 -12 0 -14 51 -2 68 6 7 7 15 3 19
-3 3 -6 1 -6 -6 0 -7 -5 -9 -10 -6 -6 4 -7 11 -4 17 4 6 2 8 -4 4 -5 -3 -13 0
-15 6 -4 8 -6 9 -6 2 -1 -6 6 -17 14 -24 12 -10 13 -16 4 -26 -6 -8 -8 -14 -4
-14 4 0 1 -8 -6 -17 -13 -16 -12 -17 4 -4 10 8 17 9 17 3 0 -6 -5 -14 -10 -17
-9 -6 -8 -24 5 -75 2 -8 4 -17 4 -19 1 -2 8 3 17 10 15 12 16 11 10 -11 -5
-17 -4 -21 2 -11 8 11 11 11 16 0 3 -8 3 -4 0 9 -3 12 -3 22 1 22 3 0 10 -10
15 -22 7 -19 9 -19 9 -5 1 10 6 15 11 12 6 -4 8 -10 5 -15 -3 -4 3 -7 12 -6
10 2 22 -2 26 -8 6 -7 7 -4 3 6 -3 10 -1 20 4 23 9 6 15 -9 11 -29 -1 -5 4 -4
12 3 12 9 16 9 20 -1 2 -7 4 5 3 27 -1 22 -4 45 -8 50 -3 6 -4 18 -3 28 3 14
0 15 -9 8 -16 -13 -15 -54 2 -73 6 -8 9 -18 5 -21 -9 -9 -38 34 -39 58 0 11 8
29 18 41 17 19 17 22 3 34 -8 7 -12 17 -8 23 4 6 1 7 -6 3 -9 -6 -9 -12 3 -25
15 -16 14 -19 -4 -36 -20 -18 -29 -8 -10 11 8 8 6 15 -4 23 -10 8 -16 9 -21 1
-4 -6 -3 -9 2 -8 4 2 9 -1 11 -7 1 -5 -6 -10 -15 -10 -11 1 -17 7 -14 15 2 8
4 20 5 26 1 7 7 19 14 27 10 11 9 17 -5 28 -15 11 -16 11 -6 -1z"/>
<path d="M6228 3948 c-2 -15 -10 -23 -23 -23 -11 0 -27 -5 -35 -10 -8 -5 -22
-10 -31 -10 -9 0 -22 -5 -30 -11 -8 -6 -26 -10 -41 -9 -15 1 -25 -1 -23 -5 3
-4 -2 -13 -10 -20 -8 -7 -15 -9 -15 -5 0 4 -7 2 -15 -5 -8 -7 -15 -9 -15 -5 0
4 -6 2 -13 -4 -8 -6 -17 -7 -21 -3 -4 4 -6 0 -4 -8 2 -11 -9 -14 -49 -15 -28
0 -55 -3 -59 -7 -4 -4 -14 -2 -22 5 -10 7 -13 8 -9 1 10 -17 -14 -30 -50 -28
-18 1 -34 2 -35 4 -2 1 -11 3 -21 5 -14 3 -16 0 -7 -10 6 -7 13 -23 15 -35 18
-96 64 -188 86 -175 5 4 9 1 9 -5 0 -6 5 -8 11 -5 7 5 2 16 -13 32 -13 14 -17
23 -9 21 7 -2 16 3 19 11 2 8 0 11 -6 7 -6 -4 -9 6 -8 25 1 16 -2 33 -6 35 -5
3 -6 15 -2 27 6 19 5 20 -9 8 -9 -7 -14 -18 -11 -23 10 -16 14 -77 5 -83 -13
-8 -33 22 -36 53 -1 16 -4 33 -8 38 -3 6 -4 19 -2 30 2 10 4 23 4 28 1 6 8 1
17 -10 14 -17 15 -17 10 -1 -4 11 -2 16 5 12 5 -4 7 -16 3 -27 -4 -14 -2 -18
5 -14 6 4 11 13 11 21 0 8 4 16 9 19 5 4 7 -4 3 -16 -3 -14 -2 -19 7 -14 6 4
9 11 6 16 -3 5 -1 11 5 15 6 4 7 11 4 17 -4 6 -2 8 4 4 6 -3 9 -15 7 -26 -2
-11 1 -22 6 -25 5 -4 7 -11 3 -16 -4 -6 -11 -6 -20 2 -17 14 -19 -2 -2 -19 8
-8 8 -15 -2 -27 -11 -14 -11 -20 -1 -37 9 -14 10 -23 2 -31 -8 -8 -7 -15 3
-26 8 -9 15 -20 15 -26 0 -5 4 -11 9 -13 14 -4 9 22 -8 44 -14 17 -13 18 2 6
14 -11 18 -11 25 5 12 23 11 44 -2 41 -5 -2 -9 -11 -9 -20 1 -10 -3 -15 -8
-12 -5 3 -7 9 -4 12 3 3 0 12 -8 21 -12 13 -12 19 -1 34 11 16 13 16 19 2 3
-9 2 -13 -3 -10 -5 3 -12 1 -15 -4 -11 -17 11 -21 24 -6 10 13 10 19 -4 33 -9
10 -13 22 -9 26 5 4 8 16 8 27 0 10 4 20 10 21 15 4 43 -64 38 -92 -3 -18 -1
-22 7 -14 18 18 46 80 42 92 -5 16 -22 5 -18 -11 1 -7 1 -9 -1 -4 -3 4 -9 4
-14 1 -6 -3 -5 -12 3 -22 12 -15 11 -16 -4 -4 -10 8 -17 17 -16 20 2 23 -4 42
-13 40 -6 -2 -13 5 -14 15 -3 15 -1 16 13 5 13 -11 15 -11 7 2 -5 9 -5 12 1 7
9 -9 10 -13 13 -43 0 -8 5 -13 11 -9 5 3 6 15 0 29 -6 16 -5 23 5 23 7 0 10
-8 7 -20 -3 -14 -1 -18 7 -13 6 4 9 11 6 16 -3 5 0 12 6 16 7 4 9 3 5 -4 -3
-6 -1 -14 5 -18 9 -5 10 0 7 14 -4 12 -3 24 1 27 4 2 8 -11 8 -30 0 -19 -4
-32 -9 -29 -9 6 -6 -32 4 -41 7 -7 21 54 19 78 -3 22 18 49 31 41 5 -3 6 -14
3 -24 -3 -10 -1 -21 5 -25 5 -3 10 -23 11 -43 0 -29 2 -33 8 -17 5 11 6 24 3
29 -3 5 0 6 5 3 18 -11 23 21 6 35 -15 11 -16 11 -10 -4 9 -25 0 -22 -14 3 -9
17 -8 20 2 14 9 -6 11 -3 6 8 -3 9 -2 19 4 22 5 4 7 10 4 15 -3 5 0 12 6 16 7
4 9 3 5 -4 -3 -6 -2 -13 3 -16 5 -4 12 2 14 11 4 17 5 17 6 0 0 -10 6 -15 11
-12 6 4 7 11 4 17 -5 7 -2 8 6 3 9 -6 11 -4 5 6 -7 12 -6 12 7 1 14 -11 17
-10 21 5 4 17 5 17 6 0 0 -10 6 -15 11 -12 6 4 7 11 4 17 -5 7 -2 8 6 3 9 -6
11 -4 5 6 -5 8 -5 11 0 7 4 -4 14 -3 22 4 8 6 13 7 12 2 -4 -22 2 -45 10 -40
5 3 8 14 6 24 -1 9 0 11 2 4 9 -25 21 -1 16 31 -6 40 -10 45 -15 15z"/>
<path d="M4907 3766 c-9 -24 -9 -28 2 -21 23 13 37 -47 16 -65 -8 -7 -15 -18
-15 -24 0 -6 8 -2 17 9 11 14 14 15 10 3 -9 -25 4 -29 22 -6 17 20 17 20 45
-17 l28 -36 14 26 c8 15 11 31 8 36 -3 6 -1 16 6 24 8 9 8 15 0 20 -6 3 -8 11
-4 16 9 15 23 0 19 -21 -2 -10 3 -24 11 -31 13 -10 13 -15 -1 -35 -9 -14 -11
-25 -5 -29 10 -6 14 1 11 18 -1 5 2 6 7 3 5 -3 10 11 11 32 1 20 3 42 3 49 1
7 5 10 9 8 4 -3 3 -20 -1 -39 -4 -19 -5 -37 -2 -40 2 -3 -1 -12 -7 -20 -7 -8
-8 -17 -3 -20 13 -8 27 33 27 80 0 22 5 41 11 41 11 0 11 -22 -1 -50 -5 -12
-2 -24 8 -34 13 -13 15 -10 12 29 -1 31 2 45 11 45 7 0 11 -4 8 -8 -5 -9 12
-42 42 -81 l22 -27 23 25 c24 25 24 25 40 5 9 -11 19 -18 21 -15 8 8 -1 66
-12 80 -8 8 -8 14 0 19 5 3 11 4 11 1 1 -3 3 -10 4 -16 1 -5 3 -18 4 -27 1
-15 3 -16 10 -4 6 9 6 22 1 31 -7 13 -3 16 15 16 14 0 22 -2 20 -4 -2 -3 0
-13 6 -24 14 -27 22 -17 10 14 -7 18 -6 25 4 25 7 0 10 -8 7 -20 -3 -14 -1
-18 7 -13 6 4 9 11 6 16 -3 5 0 12 6 16 7 4 9 3 6 -3 -3 -5 0 -10 8 -10 8 0
11 5 8 10 -3 6 -1 7 6 3 9 -6 6 -16 -11 -39 -13 -18 -23 -38 -22 -44 1 -7 2
-18 3 -24 0 -5 5 -8 11 -4 5 3 7 12 4 20 -3 7 0 23 6 35 l12 22 22 -21 22 -21
0 38 c0 35 1 37 31 36 19 0 30 4 26 9 -3 6 -1 7 6 3 6 -4 9 -11 6 -16 -3 -4 2
-13 10 -20 17 -14 19 -7 6 19 -7 12 -6 18 2 18 7 0 13 -15 13 -33 0 -25 -3
-31 -12 -24 -8 8 -11 4 -11 -15 0 -22 2 -24 16 -13 14 11 14 11 4 -3 -7 -9 -9
-20 -5 -24 4 -5 2 -5 -5 -1 -14 8 -27 -10 -14 -19 17 -10 39 38 38 81 0 22 2
45 6 51 4 7 -4 10 -23 8 -17 -1 -33 1 -36 6 -3 5 -11 6 -17 2 -23 -14 -38 -11
-48 10 -8 21 -9 21 -6 -3 2 -23 -1 -25 -48 -25 -27 0 -54 -3 -60 -6 -9 -5
-209 -4 -220 1 -3 1 -14 4 -25 5 -11 1 -22 4 -25 5 -3 1 -42 3 -86 4 -72 1
-83 3 -90 21 l-8 20 -1 -20 c-1 -19 -2 -19 -9 -1 -7 18 -8 18 -14 2z"/>
</g>
</svg>
